<svg xmlns="http://www.w3.org/2000/svg" width="89.948" height="46" viewBox="0 0 89.948 46">
  <defs>
    <style>
      .cls-1 {
        fill: #fff;
      }
    </style>
  </defs>
  <g id="Grupo_109" data-name="Grupo 109" transform="translate(-0.083 0)">
    <g id="Grupo_5" data-name="Grupo 5" transform="translate(26.573 0)">
      <g id="Grupo_4" data-name="Grupo 4">
        <g id="Grupo_1" data-name="Grupo 1">
          <path id="Caminho_1" data-name="Caminho 1" class="cls-1" d="M191.655,3.886c0-1.747.14-2.306.727-2.963A3.129,3.129,0,0,1,194.8,0a8.408,8.408,0,0,1,1.8.182V2.153a4.368,4.368,0,0,0-.978-.112c-.545,0-1.034,0-1.328.335a1.506,1.506,0,0,0-.266,1.09v.7h3.075V6.094h-3.075v9.281h-2.376V6.08H189.6V4.165h2.055Z" transform="translate(-189.6 0)"/>
          <path id="Caminho_2" data-name="Caminho 2" class="cls-1" d="M246,27.5a5.927,5.927,0,1,1-5.9,5.926A5.769,5.769,0,0,1,246,27.5Zm0,9.686a3.522,3.522,0,0,0,3.508-3.76A3.55,3.55,0,0,0,246,29.653a3.487,3.487,0,0,0-3.508,3.774A3.5,3.5,0,0,0,246,37.186Z" transform="translate(-233.041 -23.656)"/>
          <path id="Caminho_3" data-name="Caminho 3" class="cls-1" d="M337.7,30.548a3.741,3.741,0,0,0-3.62,1.048v8.037H331.7V28.424h2.139v1.062a3.33,3.33,0,0,1,2.809-1.286,3.13,3.13,0,0,1,1.034.112v2.236Z" transform="translate(-311.838 -24.258)"/>
          <path id="Caminho_4" data-name="Caminho 4" class="cls-1" d="M374.176,34.4c.084,1.607,1.384,2.851,3.662,2.851a5.784,5.784,0,0,0,3.578-1.132h.154v2.208a7.169,7.169,0,0,1-3.886,1.02,5.51,5.51,0,0,1-5.885-5.885c0-3.466,2.4-5.968,5.367-5.968,3.187,0,5.116,2.376,5.116,6.08,0,.405-.042.811-.042.811h-8.065Zm5.745-1.929a2.734,2.734,0,0,0-2.754-2.921,3.108,3.108,0,0,0-2.991,2.921Z" transform="translate(-346.333 -23.656)"/>
          <path id="Caminho_5" data-name="Caminho 5" class="cls-1" d="M446.917,40.924,442.5,29.7h2.53l2.167,6.08a22.485,22.485,0,0,1,.95,2.628h.028c.182-.615.391-1.1.923-2.628l2.153-6.08h2.516L449.4,40.924Z" transform="translate(-407.151 -25.549)"/>
          <path id="Caminho_6" data-name="Caminho 6" class="cls-1" d="M521.776,34.4c.084,1.607,1.384,2.851,3.662,2.851a5.784,5.784,0,0,0,3.578-1.132h.154v2.208a7.17,7.17,0,0,1-3.886,1.02,5.51,5.51,0,0,1-5.885-5.885c0-3.466,2.4-5.968,5.367-5.968,3.187,0,5.116,2.376,5.116,6.08,0,.405-.042.811-.042.811h-8.065Zm5.745-1.929a2.734,2.734,0,0,0-2.754-2.921,3.108,3.108,0,0,0-2.991,2.921Z" transform="translate(-473.302 -23.656)"/>
          <path id="Caminho_7" data-name="Caminho 7" class="cls-1" d="M606.7,30.548a3.741,3.741,0,0,0-3.62,1.048v8.037H600.7V28.424h2.153v1.062a3.33,3.33,0,0,1,2.81-1.286,3.072,3.072,0,0,1,1.034.112v2.236Z" transform="translate(-543.239 -24.258)"/>
        </g>
        <g id="Grupo_3" data-name="Grupo 3" transform="translate(24.055 16.899)">
          <g id="Grupo_2" data-name="Grupo 2">
            <path id="Caminho_8" data-name="Caminho 8" class="cls-1" d="M363.377,132v.727H361.7V120.9h1.859v3.634a3.84,3.84,0,0,1,2.488-.811,4.381,4.381,0,0,1,4.417,4.585,4.458,4.458,0,0,1-4.417,4.654A3.8,3.8,0,0,1,363.377,132Zm5.2-3.676a2.741,2.741,0,0,0-2.879-2.949,2.98,2.98,0,0,0-2.153.853v4.291a3.084,3.084,0,0,0,2.153.8A2.82,2.82,0,0,0,368.577,128.322Z" transform="translate(-361.7 -120.9)"/>
            <path id="Caminho_9" data-name="Caminho 9" class="cls-1" d="M431.459,146.567c.07,1.258,1.076,2.222,2.851,2.222a4.465,4.465,0,0,0,2.781-.881h.126v1.733a5.684,5.684,0,0,1-3.033.8,4.292,4.292,0,0,1-4.585-4.585,4.359,4.359,0,0,1,4.179-4.655c2.488,0,3.984,1.859,3.984,4.738a5.294,5.294,0,0,1-.042.629Zm4.487-1.5a2.127,2.127,0,0,0-2.152-2.278,2.426,2.426,0,0,0-2.334,2.278Z" transform="translate(-420.109 -138.363)"/>
            <path id="Caminho_10" data-name="Caminho 10" class="cls-1" d="M491.8,130.288h-1.9v-1.5h1.9V126.5h1.859v2.292h2.208v1.5H493.66v4c0,1.006-.014,1.37.252,1.593a1.466,1.466,0,0,0,1.02.224,4.747,4.747,0,0,0,.853-.084v1.538a6.683,6.683,0,0,1-1.482.154,2.6,2.6,0,0,1-1.929-.615c-.475-.531-.559-.936-.559-2.306v-4.5Z" transform="translate(-471.981 -125.717)"/>
            <path id="Caminho_11" data-name="Caminho 11" class="cls-1" d="M536.723,143.532v-1.677a5.489,5.489,0,0,1,2.809-.755c2.1,0,3.62,1.034,3.62,3.1v5.9h-1.677v-.7a3.4,3.4,0,0,1-2.516.95,2.874,2.874,0,0,1-3.159-2.837c0-1.887,1.705-2.935,3.76-2.935a5.147,5.147,0,0,1,1.747.294v-.489c0-1.146-.783-1.663-1.957-1.663a4.138,4.138,0,0,0-2.488.811h-.14Zm.936,3.914c0,.937.8,1.356,1.761,1.356a2.541,2.541,0,0,0,1.873-.783v-1.761a2.877,2.877,0,0,0-1.426-.266C538.6,145.992,537.659,146.509,537.659,147.446Z" transform="translate(-511.465 -138.277)"/>
          </g>
        </g>
      </g>
    </g>
    <g id="Grupo_6" data-name="Grupo 6" transform="translate(0.083 4.162)">
      <path id="Caminho_12" data-name="Caminho 12" class="cls-1" d="M29.047,46.008h-7.2V39.844h-.028a10.884,10.884,0,1,0-10.693,11.7h0V46.036C7.088,45.9,5.3,43.409,5.3,40.543a5.472,5.472,0,1,1,10.944,0v5.465H14.133v5.6h2.111v7.45h0a12.8,12.8,0,1,0,12.8-13.055Zm.2,20.421A7.39,7.39,0,0,1,21.849,59.2v-7.59h8.065a7.424,7.424,0,0,1-.671,14.816Z" transform="translate(-0.083 -29.777)"/>
    </g>
  </g>
</svg>
