<svg xmlns="http://www.w3.org/2000/svg" xmlns:xlink="http://www.w3.org/1999/xlink" width="242" height="123.761" viewBox="0 0 242 123.761">
  <defs>
    <style>
      .cls-1 {
        fill: #fff;
      }

      .cls-2 {
        fill: #fe6e6f;
      }

      .cls-3 {
        fill: url(#linear-gradient);
      }
    </style>
    <linearGradient id="linear-gradient" x1="0.926" y1="0.912" x2="0.26" y2="0.287" gradientUnits="objectBoundingBox">
      <stop offset="0.106" stop-color="#7937ad"/>
      <stop offset="0.252" stop-color="#a03eac"/>
      <stop offset="0.469" stop-color="#d348ab"/>
      <stop offset="0.633" stop-color="#f34eaa"/>
      <stop offset="0.723" stop-color="#ff50aa"/>
      <stop offset="0.768" stop-color="#fe667e"/>
      <stop offset="0.866" stop-color="#fe6e6f"/>
    </linearGradient>
  </defs>
  <g id="Grupo_7" data-name="Grupo 7" transform="translate(-0.083)">
    <g id="Grupo_5" data-name="Grupo 5" transform="translate(71.353 0)">
      <g id="Grupo_4" data-name="Grupo 4">
        <g id="Grupo_1" data-name="Grupo 1">
          <path id="Caminho_1" data-name="Caminho 1" class="cls-1" d="M195.128,10.454c0-4.7.376-6.2,1.956-7.972C198.475.827,200.919,0,203.589,0a22.62,22.62,0,0,1,4.851.489v5.3a11.752,11.752,0,0,0-2.632-.3c-1.467,0-2.783,0-3.573.9a4.051,4.051,0,0,0-.714,2.933v1.88h8.273V16.4h-8.273v24.97h-6.393V16.359H189.6V11.207h5.528Z" transform="translate(-189.6 0)"/>
          <path id="Caminho_2" data-name="Caminho 2" class="cls-1" d="M255.97,27.5a15.52,15.52,0,0,1,15.87,15.945,15.87,15.87,0,1,1-31.739,0A15.633,15.633,0,0,1,255.97,27.5Zm0,26.061c5.6,0,9.439-4.4,9.439-10.116,0-5.641-3.836-10.154-9.439-10.154-5.716,0-9.439,4.325-9.439,10.154C246.531,49.161,250.254,53.561,255.97,53.561Z" transform="translate(-221.109 -17.158)"/>
          <path id="Caminho_3" data-name="Caminho 3" class="cls-1" d="M347.833,34.518a8.238,8.238,0,0,0-2.67-.3c-3.46,0-5.9,1.354-7.07,3.121V58.962H331.7V28.8h5.754V31.66a8.96,8.96,0,0,1,7.559-3.46,8.424,8.424,0,0,1,2.783.3v6.017Z" transform="translate(-278.262 -17.595)"/>
          <path id="Caminho_4" data-name="Caminho 4" class="cls-1" d="M378.193,46.077c.226,4.325,3.723,7.672,9.853,7.672,3.347,0,7.183-.978,9.627-3.046h.414v5.942a19.289,19.289,0,0,1-10.454,2.745c-9.326,0-15.832-5.9-15.832-15.832,0-9.326,6.468-16.058,14.441-16.058C394.815,27.5,400,33.893,400,43.859c0,1.091-.113,2.181-.113,2.181h-21.7Zm15.456-5.19c-.188-4.55-2.858-7.86-7.408-7.86-4.513,0-7.6,3.723-8.048,7.86Z" transform="translate(-303.282 -17.158)"/>
          <path id="Caminho_5" data-name="Caminho 5" class="cls-1" d="M454.383,59.9,442.5,29.7h6.807l5.829,16.359a60.5,60.5,0,0,1,2.557,7.07h.075c.489-1.655,1.053-2.971,2.482-7.07L466.041,29.7h6.769L461.077,59.9Z" transform="translate(-347.395 -18.531)"/>
          <path id="Caminho_6" data-name="Caminho 6" class="cls-1" d="M525.793,46.077c.226,4.325,3.723,7.672,9.853,7.672,3.347,0,7.183-.978,9.627-3.046h.414v5.942a19.289,19.289,0,0,1-10.454,2.745c-9.326,0-15.832-5.9-15.832-15.832,0-9.326,6.468-16.058,14.441-16.058,8.574,0,13.764,6.393,13.764,16.359,0,1.091-.113,2.181-.113,2.181h-21.7Zm15.456-5.19c-.188-4.55-2.858-7.86-7.408-7.86-4.513,0-7.6,3.723-8.048,7.86Z" transform="translate(-395.376 -17.158)"/>
          <path id="Caminho_7" data-name="Caminho 7" class="cls-1" d="M616.833,34.518a8.238,8.238,0,0,0-2.67-.3c-3.46,0-5.9,1.354-7.07,3.121V58.962H600.7V28.8h5.791V31.66a8.96,8.96,0,0,1,7.559-3.46,8.265,8.265,0,0,1,2.783.3v6.017Z" transform="translate(-446.102 -17.595)"/>
        </g>
        <g id="Grupo_3" data-name="Grupo 3" transform="translate(64.72 45.465)">
          <g id="Grupo_2" data-name="Grupo 2">
            <path id="Caminho_8" data-name="Caminho 8" class="cls-2" d="M366.213,150.759v1.956H361.7V120.9h5v9.778A10.33,10.33,0,0,1,373.4,128.5c6.581,0,11.883,5,11.883,12.335,0,7.446-5.49,12.523-11.883,12.523A10.236,10.236,0,0,1,366.213,150.759Zm13.989-9.89c0-4.738-3.008-7.935-7.747-7.935a8.018,8.018,0,0,0-5.791,2.294v11.545a8.3,8.3,0,0,0,5.791,2.144C377.006,148.916,380.2,145.569,380.2,140.869Z" transform="translate(-361.7 -120.9)"/>
            <path id="Caminho_9" data-name="Caminho 9" class="cls-2" d="M434.6,155.641c.188,3.385,2.9,5.979,7.672,5.979a12.013,12.013,0,0,0,7.484-2.369h.339v4.663a15.292,15.292,0,0,1-8.161,2.144c-7.258,0-12.335-4.588-12.335-12.335,0-7.258,5.039-12.523,11.244-12.523,6.694,0,10.718,5,10.718,12.748a14.251,14.251,0,0,1-.113,1.692H434.6Zm12.071-4.024c-.15-3.573-2.219-6.13-5.791-6.13a6.526,6.526,0,0,0-6.28,6.13Z" transform="translate(-404.066 -133.566)"/>
            <path id="Caminho_10" data-name="Caminho 10" class="cls-2" d="M495.014,136.691H489.9v-4.024h5.114V126.5h5v6.167h5.942v4.024h-5.942v10.755c0,2.708-.038,3.685.677,4.287a3.944,3.944,0,0,0,2.745.6,12.771,12.771,0,0,0,2.294-.226v4.137a17.979,17.979,0,0,1-3.986.414c-2.144,0-3.873-.376-5.19-1.655-1.279-1.429-1.5-2.52-1.5-6.2V136.691Z" transform="translate(-441.689 -124.394)"/>
            <path id="Caminho_11" data-name="Caminho 11" class="cls-2" d="M538.282,147.643v-4.513a14.768,14.768,0,0,1,7.559-2.031c5.641,0,9.74,2.783,9.74,8.349v15.87h-4.513v-1.88A9.149,9.149,0,0,1,544.3,166c-4.738,0-8.5-2.858-8.5-7.634,0-5.077,4.588-7.9,10.116-7.9a13.85,13.85,0,0,1,4.7.79v-1.316c0-3.084-2.106-4.475-5.265-4.475a11.133,11.133,0,0,0-6.694,2.181h-.376Zm2.52,10.53c0,2.52,2.144,3.648,4.738,3.648a6.837,6.837,0,0,0,5.039-2.106v-4.738a7.741,7.741,0,0,0-3.836-.715C543.321,154.262,540.8,155.653,540.8,158.173Z" transform="translate(-470.328 -133.504)"/>
          </g>
        </g>
      </g>
    </g>
    <g id="Grupo_6" data-name="Grupo 6" transform="translate(0.083 11.198)">
      <path id="Caminho_12" data-name="Caminho 12" class="cls-3" d="M78.009,73.446H58.642V56.862h-.075A29.283,29.283,0,1,0,29.8,88.338h0V73.521c-10.868-.376-15.682-7.07-15.682-14.779A14.741,14.741,0,0,1,28.858,44c7.6,0,14.215,5.566,14.7,14.741v14.7H37.884v15.08h5.678V108.57h0A34.45,34.45,0,1,0,78.009,73.446Zm.526,54.942a19.883,19.883,0,0,1-19.893-19.442V88.526h21.7a19.974,19.974,0,0,1-1.805,39.862Z" transform="translate(-0.083 -29.777)"/>
    </g>
  </g>
</svg>
