<svg xmlns="http://www.w3.org/2000/svg" width="33.669" height="33.669" viewBox="0 0 33.669 33.669">
  <defs>
    <style>
      .cls-1 {
        fill: #ff50aa;
      }

      .cls-2 {
        fill: #fff;
      }
    </style>
  </defs>
  <g id="Grupo_112" data-name="Grupo 112" transform="translate(-103.331 -657.457)">
    <circle id="Elipse_25" data-name="Elipse 25" class="cls-1" cx="16.835" cy="16.835" r="16.835" transform="translate(103.331 657.457)"/>
    <path id="Caminho_71" data-name="Caminho 71" class="cls-2" d="M1412.3,279.943h-11.739a1.614,1.614,0,0,0-1.613,1.613v8.6a1.614,1.614,0,0,0,1.613,1.612h3.72l1.232,2.464a.96.96,0,0,0,1.834,0l1.232-2.464h3.721a1.614,1.614,0,0,0,1.612-1.612v-8.6A1.614,1.614,0,0,0,1412.3,279.943Zm.736,10.212a.737.737,0,0,1-.736.736H1408.3a.438.438,0,0,0-.392.242l-1.354,2.707a.528.528,0,0,1-.133.183.539.539,0,0,1-.133-.183l-1.353-2.707a.438.438,0,0,0-.392-.242h-3.991a.737.737,0,0,1-.736-.736v-8.6a.736.736,0,0,1,.736-.736H1412.3a.736.736,0,0,1,.736.736Z" transform="translate(-1286.26 386.866)"/>
  </g>
</svg>
