<svg width="12" height="88" viewBox="0 0 12 88" fill="none" xmlns="http://www.w3.org/2000/svg">
<path opacity="0.6" d="M4.03265 87.5555C3.43257 87.5546 2.84024 87.4138 2.29876 87.1432C1.75727 86.8727 1.28026 86.4794 0.902408 85.9918C0.524559 85.5042 0.255387 84.9346 0.114461 84.3246C-0.0264639 83.7145 -0.0355857 83.0793 0.0877475 82.465C5.21704 57.103 5.21704 30.8992 0.0877475 5.53721C-0.134131 4.44294 0.0687026 3.30125 0.651625 2.36339C1.23455 1.42553 2.14981 0.768301 3.19607 0.53624C4.24232 0.304179 5.33385 0.516278 6.23056 1.12595C7.12726 1.73563 7.75569 2.6929 7.97757 3.78717C13.3408 30.303 13.3408 57.6991 7.97757 84.215C7.78577 85.1604 7.2892 86.0081 6.57103 86.6163C5.85286 87.2245 4.9567 87.556 4.03265 87.5555Z" fill="white"/>
</svg>
