<svg id="Grupo_113" data-name="Grupo 113" xmlns="http://www.w3.org/2000/svg" xmlns:xlink="http://www.w3.org/1999/xlink" width="14.053" height="14.054" viewBox="0 0 14.053 14.054">
  <defs>
    <style>
      .cls-1 {
        fill: url(#radial-gradient);
      }

      .cls-2 {
        fill: url(#radial-gradient-2);
      }

      .cls-3 {
        fill: #422f0d;
      }

      .cls-4 {
        fill: url(#radial-gradient-3);
      }
    </style>
    <radialGradient id="radial-gradient" cx="0.5" cy="0.5" fy="0.20246273279190063" r="0.655" gradientTransform="translate(0)" gradientUnits="objectBoundingBox">
      <stop offset="0" stop-color="#eab242"/>
      <stop offset="0.362" stop-color="#e9af41"/>
      <stop offset="0.562" stop-color="#e8a73e"/>
      <stop offset="0.723" stop-color="#e69939"/>
      <stop offset="0.863" stop-color="#e48632"/>
      <stop offset="0.949" stop-color="#e2762d"/>
    </radialGradient>
    <radialGradient id="radial-gradient-2" cx="0.479" cy="1.283" r="1.425" gradientTransform="matrix(0.012, 1, -0.431, 0.033, 1.026, 0.762)" gradientUnits="objectBoundingBox">
      <stop offset="0.778" stop-color="#422f0d"/>
      <stop offset="0.842" stop-color="#2f2109"/>
      <stop offset="0.913" stop-color="#160f04"/>
    </radialGradient>
    <radialGradient id="radial-gradient-3" cx="0.523" cy="0.313" r="0.69" gradientTransform="translate(-0.214) scale(1.428 1)" gradientUnits="objectBoundingBox">
      <stop offset="0.665" stop-color="#43bae8"/>
      <stop offset="0.786" stop-color="#37add7"/>
      <stop offset="0.949" stop-color="#2497ba"/>
    </radialGradient>
  </defs>
  <path id="Caminho_44" data-name="Caminho 44" class="cls-1" d="M1272.3,120.542a7.027,7.027,0,1,0,7.026,7.028A7.035,7.035,0,0,0,1272.3,120.542Zm-3.029,6.027a1.52,1.52,0,1,1,1.146-1.474A1.341,1.341,0,0,1,1269.273,126.569Zm6.058,0a1.52,1.52,0,1,1,1.146-1.474A1.341,1.341,0,0,1,1275.332,126.569Z" transform="translate(-1265.276 -120.542)"/>
  <path id="Caminho_45" data-name="Caminho 45" class="cls-2" d="M1289.428,168.307a.574.574,0,0,1-.773-.242,3.849,3.849,0,0,0-6.823,0,.574.574,0,0,1-1.017-.531,5,5,0,0,1,8.855,0A.576.576,0,0,1,1289.428,168.307Z" transform="translate(-1278.216 -157.597)"/>
  <ellipse id="Elipse_15" data-name="Elipse 15" class="cls-3" cx="1.146" cy="1.474" rx="1.146" ry="1.474" transform="translate(8.909 3.08)"/>
  <ellipse id="Elipse_16" data-name="Elipse 16" class="cls-3" cx="1.146" cy="1.474" rx="1.146" ry="1.474" transform="translate(2.851 3.08)"/>
  <path id="Caminho_46" data-name="Caminho 46" class="cls-4" d="M1323.1,161.486l-.6-.985a.061.061,0,0,0-.106,0l-.563.991a.646.646,0,0,0-.1.338.732.732,0,0,0,1.465,0,.621.621,0,0,0-.105-.345Z" transform="translate(-1312.495 -153.934)"/>
</svg>
