<svg xmlns="http://www.w3.org/2000/svg" xmlns:xlink="http://www.w3.org/1999/xlink" width="85.82" height="85.83" viewBox="0 0 85.82 85.83">
  <defs>
    <style>
      .cls-1 {
        stroke-miterlimit: 10;
        fill: url(#linear-gradient);
      }

      .cls-2, .cls-3 {
        stroke: none;
      }

      .cls-3 {
        fill: #707070;
      }
    </style>
    <linearGradient id="linear-gradient" x1="0.864" y1="0.165" x2="0.128" y2="0.842" gradientUnits="objectBoundingBox">
      <stop offset="0" stop-color="#e85b43"/>
      <stop offset="0.221" stop-color="#e6563c"/>
      <stop offset="0.532" stop-color="#e1482a"/>
      <stop offset="0.896" stop-color="#d9310c"/>
      <stop offset="0.949" stop-color="#d82e07"/>
    </linearGradient>
  </defs>
  <g id="Caminho_5" data-name="Caminho 5" class="cls-1" transform="translate(-1481.505 -120.542)">
    <path class="cls-2" d="M 1524.416015625 205.8719940185547 C 1501.030517578125 205.8719940185547 1482.005004882813 186.8469543457031 1482.005004882813 163.4620056152344 C 1482.005004882813 140.071533203125 1501.030517578125 121.0419998168945 1524.416015625 121.0419998168945 C 1547.800415039063 121.0419998168945 1566.824951171875 140.071533203125 1566.824951171875 163.4620056152344 C 1566.824951171875 186.8469543457031 1547.800415039063 205.8719940185547 1524.416015625 205.8719940185547 Z M 1549.719482421875 147.1423950195313 L 1549.2724609375 147.5894470214844 L 1508.548461914063 188.314453125 L 1508.101684570313 188.7612457275391 L 1508.63916015625 189.0933532714844 C 1513.38134765625 192.0233154296875 1518.8369140625 193.5720062255859 1524.416015625 193.5720062255859 C 1541.018188476563 193.5720062255859 1554.525024414063 180.0647125244141 1554.525024414063 163.4620056152344 C 1554.525024414063 157.8798828125 1552.978149414063 152.4226837158203 1550.051513671875 147.6804046630859 L 1549.719482421875 147.1423950195313 Z M 1524.416015625 133.3419952392578 C 1507.812744140625 133.3419952392578 1494.305053710938 146.8537750244141 1494.305053710938 163.4620056152344 C 1494.305053710938 169.2963104248047 1495.9912109375 174.9656524658203 1499.18115234375 179.8571166992188 L 1499.517822265625 180.373291015625 L 1499.953491210938 179.9375610351563 L 1540.899536132813 138.9925689697266 L 1541.335327148438 138.556884765625 L 1540.819213867188 138.2202301025391 C 1535.926879882813 135.0288696289063 1530.254760742188 133.3419952392578 1524.416015625 133.3419952392578 Z"/>
    <path class="cls-3" d="M 1524.416015625 121.5419921875 C 1501.30615234375 121.5419921875 1482.505004882813 140.3472290039063 1482.505004882813 163.4620056152344 C 1482.505004882813 186.5712432861328 1501.30615234375 205.3719787597656 1524.416015625 205.3719787597656 C 1547.524658203125 205.3719787597656 1566.324951171875 186.5712432861328 1566.324951171875 163.4620056152344 C 1566.324951171875 140.3472290039063 1547.524658203125 121.5419921875 1524.416015625 121.5419921875 M 1499.435546875 181.1625671386719 L 1498.762329101563 180.1302490234375 C 1495.519287109375 175.1573333740234 1493.805053710938 169.3935546875 1493.805053710938 163.4620056152344 C 1493.805053710938 146.5780639648438 1507.537109375 132.8419799804688 1524.416015625 132.8419799804688 C 1530.351928710938 132.8419799804688 1536.118530273438 134.5569305419922 1541.092407226563 137.8014373779297 L 1542.12451171875 138.4747314453125 L 1541.253173828125 139.3461151123047 L 1500.307006835938 180.2911224365234 L 1499.435546875 181.1625671386719 M 1524.416015625 194.0720062255859 C 1518.744018554688 194.0720062255859 1513.197509765625 192.4975128173828 1508.376342773438 189.5187225341797 L 1507.30126953125 188.8544921875 L 1508.19482421875 187.9609069824219 L 1548.918823242188 147.2359008789063 L 1549.812866210938 146.341796875 L 1550.476928710938 147.4178161621094 C 1553.452392578125 152.2390747070313 1555.025024414063 157.7870635986328 1555.025024414063 163.4620056152344 C 1555.025024414063 180.3404083251953 1541.293823242188 194.0720062255859 1524.416015625 194.0720062255859 M 1524.416015625 120.5419921875 C 1548.0849609375 120.5419921875 1567.324951171875 139.7920074462891 1567.324951171875 163.4620056152344 C 1567.324951171875 187.1219940185547 1548.0849609375 206.3719787597656 1524.416015625 206.3719787597656 C 1500.755004882813 206.3719787597656 1481.505004882813 187.1219940185547 1481.505004882813 163.4620056152344 C 1481.505004882813 139.7920074462891 1500.755004882813 120.5419921875 1524.416015625 120.5419921875 Z M 1499.599975585938 179.5839996337891 L 1540.546020507813 138.6390075683594 C 1535.901000976563 135.6089935302734 1530.363037109375 133.8419799804688 1524.416015625 133.8419799804688 C 1508.0849609375 133.8419799804688 1494.805053710938 147.1219940185547 1494.805053710938 163.4620056152344 C 1494.805053710938 169.4040069580078 1496.572021484375 174.9409942626953 1499.599975585938 179.5839996337891 Z M 1524.416015625 193.0720062255859 C 1540.744995117188 193.0720062255859 1554.025024414063 179.7819976806641 1554.025024414063 163.4620056152344 C 1554.025024414063 157.7740020751953 1552.412963867188 152.4589996337891 1549.6259765625 147.9429931640625 L 1508.901977539063 188.6679992675781 C 1513.416015625 191.4570007324219 1518.72998046875 193.0720062255859 1524.416015625 193.0720062255859 Z"/>
  </g>
</svg>
