<svg xmlns="http://www.w3.org/2000/svg" xmlns:xlink="http://www.w3.org/1999/xlink" width="65.31" height="86.406" viewBox="0 0 65.31 86.406">
  <defs>
    <style>
      .cls-1 {
        stroke-miterlimit: 10;
        fill: url(#linear-gradient);
      }

      .cls-2 {
        fill: url(#linear-gradient-2);
      }

      .cls-3, .cls-4 {
        stroke: none;
      }

      .cls-4 {
        fill: #707070;
      }
    </style>
    <linearGradient id="linear-gradient" x1="0.5" y1="0.34" x2="0.5" y2="1.335" gradientUnits="objectBoundingBox">
      <stop offset="0" stop-color="#ef6452"/>
      <stop offset="0.252" stop-color="#ea5d4d"/>
      <stop offset="0.607" stop-color="#dd4b42"/>
      <stop offset="0.949" stop-color="#c33"/>
    </linearGradient>
    <linearGradient id="linear-gradient-2" x1="0.5" y1="0.398" x2="0.5" y2="1.106" gradientUnits="objectBoundingBox">
      <stop offset="0" stop-color="#ff954d"/>
      <stop offset="0.183" stop-color="#fc8e4d"/>
      <stop offset="0.441" stop-color="#f47c4d"/>
      <stop offset="0.741" stop-color="#e75e4d"/>
      <stop offset="0.949" stop-color="#dd454d"/>
    </linearGradient>
  </defs>
  <g id="Grupo_3" data-name="Grupo 3" transform="translate(-1696.745 -120.254)">
    <g id="Caminho_3" data-name="Caminho 3" class="cls-1">
      <path class="cls-3" d="M 1729.493286132813 206.1600036621094 L 1729.492553710938 206.1600036621094 L 1729.491943359375 206.1600036621094 L 1729.468994140625 206.1600036621094 L 1729.400024414063 206.1600036621094 C 1711.669677734375 206.1600036621094 1697.244995117188 191.7353363037109 1697.244995117188 174.0050048828125 C 1697.244995117188 173.4129638671875 1697.244995117188 172.8008728027344 1697.29150390625 172.1887359619141 C 1697.409057617188 168.0411834716797 1697.98193359375 164.2677154541016 1698.994384765625 160.9728546142578 C 1699.814453125 158.3039245605469 1700.9248046875 155.9365539550781 1702.294555664063 153.9364776611328 C 1704.671875 150.4651794433594 1707.046142578125 149.2424468994141 1707.30908203125 149.1144409179688 C 1707.605224609375 148.9666595458984 1707.943725585938 148.8873901367188 1708.283447265625 148.8873901367188 C 1708.655639648438 148.8873901367188 1709.02734375 148.98095703125 1709.358642578125 149.1580047607422 C 1709.991577148438 149.4957122802734 1710.4306640625 150.1197814941406 1710.533935546875 150.8282318115234 C 1710.535034179688 150.8341217041016 1710.536254882813 150.8411560058594 1710.53759765625 150.8493194580078 C 1710.7109375 151.8915100097656 1712.36328125 160.8138580322266 1718.35400390625 162.6371154785156 C 1718.40673828125 157.914306640625 1718.681518554688 151.2346801757813 1720.17626953125 145.3244171142578 C 1722.463500976563 136.27783203125 1729.022094726563 126.7975769042969 1736.885131835938 121.1723556518555 C 1737.267456054688 120.8985824584961 1737.7197265625 120.7538223266602 1738.192993164063 120.7538223266602 C 1738.554077148438 120.7538223266602 1738.91259765625 120.8420791625977 1739.230102539063 121.0090713500977 C 1739.972534179688 121.3887939453125 1740.452026367188 122.1749877929688 1740.452026367188 123.0130004882813 C 1740.452026367188 131.0412139892578 1744.526000976563 136.5327453613281 1749.2431640625 142.8913726806641 L 1749.275634765625 142.9351043701172 C 1754.487548828125 149.9496154785156 1760.395263671875 157.9003601074219 1761.369506835938 170.640869140625 C 1761.377197265625 170.7425537109375 1761.555053710938 173.1243896484375 1761.555053710938 174.0050048828125 C 1761.555053710938 178.3301696777344 1760.706176757813 182.5303344726563 1759.032104492188 186.4888610839844 C 1757.415649414063 190.3110961914063 1755.102294921875 193.7470245361328 1752.15625 196.7011871337891 C 1749.210571289063 199.6551361083984 1745.781494140625 201.9776763916016 1741.964599609375 203.6043090820313 C 1738.011962890625 205.2887115478516 1733.816040039063 206.1485900878906 1729.493286132813 206.1600036621094 Z M 1720.041748046875 185.8353729248047 C 1719.633056640625 187.0806274414063 1719.404174804688 188.5553131103516 1719.35986328125 190.2351684570313 L 1719.359619140625 190.2404022216797 L 1719.359375 190.2456207275391 C 1719.348022460938 190.4868316650391 1719.348022460938 190.6963653564453 1719.348022460938 190.8990020751953 C 1719.348022460938 196.8210601806641 1723.857299804688 201.6390075683594 1729.400024414063 201.6390075683594 C 1734.942749023438 201.6390075683594 1739.452026367188 196.8210601806641 1739.452026367188 190.8990020751953 C 1739.452026367188 190.586669921875 1739.428344726563 190.2794647216797 1739.407470703125 190.0084075927734 C 1739.048461914063 185.0269470214844 1736.985107421875 182.1066589355469 1734.989624023438 179.2825469970703 C 1733.71728515625 177.4760894775391 1732.407104492188 175.6157684326172 1731.586547851563 173.3719482421875 C 1730.197265625 175.1914520263672 1729.162841796875 177.2749633789063 1728.705444335938 179.2014923095703 C 1728.09326171875 181.7272644042969 1728.0419921875 184.5924682617188 1728.0419921875 187.0800018310547 C 1728.0419921875 188.3234252929688 1727.025512695313 189.3350067138672 1725.776000976563 189.3350067138672 C 1724.292358398438 189.3350067138672 1722.96533203125 188.8673706054688 1721.831665039063 187.9450988769531 C 1721.151245117188 187.3915100097656 1720.5517578125 186.6844177246094 1720.041748046875 185.8353729248047 Z"/>
      <path class="cls-4" d="M 1729.491943359375 205.6600036621094 C 1746.901977539063 205.6139984130859 1761.055053710938 191.4259948730469 1761.055053710938 174.0050048828125 C 1761.055053710938 173.1329956054688 1760.870971679688 170.6790008544922 1760.870971679688 170.6790008544922 C 1759.907958984375 158.0859985351563 1754.046997070313 150.1950073242188 1748.8740234375 143.2330017089844 C 1744.092041015625 136.7870025634766 1739.952026367188 131.2250061035156 1739.952026367188 123.0130081176758 C 1739.952026367188 122.3590087890625 1739.5849609375 121.7509918212891 1739 121.453010559082 C 1738.746337890625 121.3190002441406 1738.468872070313 121.2538146972656 1738.192993164063 121.2538146972656 C 1737.832641601563 121.2538146972656 1737.474975585938 121.3649215698242 1737.176025390625 121.5790100097656 C 1729.400024414063 127.1419982910156 1722.920043945313 136.5119934082031 1720.661010742188 145.4470062255859 C 1719.088989257813 151.6629943847656 1718.883056640625 158.6589965820313 1718.848022460938 163.281005859375 C 1711.680053710938 161.7440032958984 1710.06298828125 151.0200042724609 1710.0400390625 150.906005859375 C 1709.9599609375 150.343994140625 1709.615966796875 149.8619995117188 1709.123046875 149.5989990234375 C 1708.862182617188 149.4596099853516 1708.572875976563 149.3873901367188 1708.283447265625 149.3873901367188 C 1708.02490234375 149.3873901367188 1707.766357421875 149.4450531005859 1707.527954101563 149.5639953613281 C 1707.150024414063 149.7480010986328 1698.296020507813 154.2429962158203 1697.791015625 172.2149963378906 C 1697.744995117188 172.8119964599609 1697.744995117188 173.4080047607422 1697.744995117188 174.0050048828125 C 1697.744995117188 191.4609985351563 1711.943969726563 205.6600036621094 1729.400024414063 205.6600036621094 L 1729.468994140625 205.6600036621094 L 1729.491943359375 205.6600036621094 M 1719.972045898438 184.6369934082031 C 1720.993041992188 186.8269958496094 1722.817016601563 188.8350067138672 1725.776000976563 188.8350067138672 C 1726.7509765625 188.8350067138672 1727.5419921875 188.0540008544922 1727.5419921875 187.0800018310547 C 1727.5419921875 184.5789947509766 1727.588012695313 181.6889953613281 1728.218994140625 179.0859985351563 C 1728.76904296875 176.7689971923828 1730.099975585938 174.3139953613281 1731.774047851563 172.3419952392578 C 1732.52001953125 174.8990020751953 1733.975952148438 176.9750061035156 1735.39794921875 178.9940032958984 C 1737.43994140625 181.8840026855469 1739.538940429688 184.8769989013672 1739.906005859375 189.9700012207031 C 1739.928955078125 190.2680053710938 1739.952026367188 190.5780029296875 1739.952026367188 190.8990020751953 C 1739.952026367188 197.10400390625 1735.214965820313 202.1390075683594 1729.400024414063 202.1390075683594 C 1723.5849609375 202.1390075683594 1718.848022460938 197.10400390625 1718.848022460938 190.8990020751953 C 1718.848022460938 190.6920013427734 1718.848022460938 190.4750061035156 1718.859985351563 190.2220001220703 C 1718.928955078125 187.6069946289063 1719.432983398438 185.8179931640625 1719.972045898438 184.6369934082031 M 1729.49462890625 206.6600036621094 L 1729.493286132813 206.6600036621094 L 1729.491943359375 206.6600036621094 L 1729.468994140625 206.6600036621094 L 1729.400024414063 206.6600036621094 C 1711.39404296875 206.6600036621094 1696.744995117188 192.0110321044922 1696.744995117188 174.0050048828125 C 1696.744995117188 173.4074096679688 1696.744995117188 172.7897491455078 1696.792114257813 172.1628570556641 C 1696.91162109375 167.9748077392578 1697.49169921875 164.1608123779297 1698.516479492188 160.8259887695313 C 1699.351440429688 158.1087493896484 1700.483764648438 155.6957397460938 1701.882080078125 153.6539611816406 C 1704.317626953125 150.0976715087891 1706.786010742188 148.8138885498047 1707.085083007813 148.6673736572266 C 1707.45361328125 148.4842071533203 1707.867919921875 148.3873901367188 1708.283447265625 148.3873901367188 C 1708.737548828125 148.3873901367188 1709.190795898438 148.5013885498047 1709.594360351563 148.7170104980469 C 1710.36474609375 149.1280670166016 1710.89990234375 149.8870849609375 1711.02783203125 150.7494506835938 C 1711.028686523438 150.7548828125 1711.02978515625 150.7608184814453 1711.03076171875 150.7672729492188 C 1711.110473632813 151.2467803955078 1711.56884765625 153.7691040039063 1712.7646484375 156.3419036865234 C 1714.094970703125 159.2038269042969 1715.806274414063 161.0780334472656 1717.863403320313 161.9311218261719 C 1717.936645507813 157.2363586425781 1718.256591796875 150.8756561279297 1719.691528320313 145.2018280029297 C 1722.005981445313 136.0474243164063 1728.640747070313 126.4556503295898 1736.59423828125 120.7657012939453 C 1737.061767578125 120.4309005737305 1737.61474609375 120.2538223266602 1738.192993164063 120.2538223266602 C 1738.634033203125 120.2538223266602 1739.072143554688 120.3615264892578 1739.460571289063 120.5653610229492 C 1740.380737304688 121.0372085571289 1740.952026367188 121.974365234375 1740.952026367188 123.0130081176758 C 1740.952026367188 130.8760223388672 1744.980346679688 136.3060607910156 1749.644775390625 142.5935211181641 L 1749.677124023438 142.63720703125 C 1752.328979492188 146.2061614990234 1755.071655273438 149.8972930908203 1757.34375 154.3933410644531 C 1759.948120117188 159.5469055175781 1761.428100585938 164.8490447998047 1761.868041992188 170.6027374267578 C 1761.875854492188 170.7059173583984 1762.055053710938 173.1058807373047 1762.055053710938 174.0050048828125 C 1762.055053710938 178.3974304199219 1761.19287109375 182.6631469726563 1759.49267578125 186.6836242675781 C 1757.85107421875 190.5652465820313 1755.501831054688 194.0544281005859 1752.510375976563 197.0542449951172 C 1749.51904296875 200.0538482666016 1746.036865234375 202.4123687744141 1742.16064453125 204.0642700195313 C 1738.146118164063 205.7750701904297 1733.884643554688 206.6484069824219 1729.49462890625 206.6600036621094 Z M 1720.23681640625 187.0073089599609 C 1720.017456054688 187.9718780517578 1719.89111328125 189.0553131103516 1719.859619140625 190.2483673095703 L 1719.859375 190.2587890625 L 1719.85888671875 190.2692108154297 C 1719.848022460938 190.4986419677734 1719.848022460938 190.7021636962891 1719.848022460938 190.8990020751953 C 1719.848022460938 196.5453643798828 1724.133056640625 201.1390075683594 1729.400024414063 201.1390075683594 C 1734.6669921875 201.1390075683594 1738.952026367188 196.5453643798828 1738.952026367188 190.8990020751953 C 1738.952026367188 190.6060028076172 1738.92919921875 190.3089141845703 1738.908935546875 190.0467834472656 C 1738.559814453125 185.2017822265625 1736.537231445313 182.3392944335938 1734.581176757813 179.5710754394531 C 1733.45263671875 177.9686431884766 1732.294921875 176.3248138427734 1731.459228515625 174.400146484375 C 1730.376586914063 175.9795684814453 1729.57421875 177.7065734863281 1729.192016601563 179.3169708251953 C 1728.592163085938 181.7914428710938 1728.5419921875 184.6213531494141 1728.5419921875 187.0800018310547 C 1728.5419921875 188.59912109375 1727.301147460938 189.8350067138672 1725.776000976563 189.8350067138672 C 1723.567993164063 189.8350067138672 1721.656372070313 188.8460388183594 1720.23681640625 187.0073089599609 Z"/>
    </g>
    <path id="Caminho_4" data-name="Caminho 4" class="cls-2" d="M1739.952,190.9c0,6.205-4.737,11.24-10.552,11.24s-10.552-5.035-10.552-11.24c0-.207,0-.424.012-.677a14.3,14.3,0,0,1,1.112-5.585c1.021,2.19,2.845,4.2,5.8,4.2a1.758,1.758,0,0,0,1.766-1.755,34.706,34.706,0,0,1,.677-7.994,16.979,16.979,0,0,1,3.555-6.744,22.63,22.63,0,0,0,3.624,6.652c2.042,2.89,4.141,5.883,4.508,10.976C1739.929,190.268,1739.952,190.578,1739.952,190.9Z"/>
  </g>
</svg>
