<svg xmlns="http://www.w3.org/2000/svg" xmlns:xlink="http://www.w3.org/1999/xlink" width="85.82" height="85.83" viewBox="0 0 85.82 85.83">
  <defs>
    <style>
      .cls-1 {
        fill: url(#radial-gradient);
      }

      .cls-2 {
        fill: #422f0d;
      }

      .cls-3 {
        fill: url(#radial-gradient-2);
      }

      .cls-4 {
        fill: #992c20;
      }
    </style>
    <radialGradient id="radial-gradient" cx="0.5" cy="0.458" fy="0.15271331369876862" r="0.671" gradientTransform="translate(0)" gradientUnits="objectBoundingBox">
      <stop offset="0" stop-color="#eab242"/>
      <stop offset="0.362" stop-color="#e9af41"/>
      <stop offset="0.562" stop-color="#e8a73e"/>
      <stop offset="0.723" stop-color="#e69939"/>
      <stop offset="0.863" stop-color="#e48632"/>
      <stop offset="0.949" stop-color="#e2762d"/>
    </radialGradient>
    <radialGradient id="radial-gradient-2" cx="0.523" cy="-0.347" r="1.108" gradientTransform="matrix(-0.001, 1, -1.044, -0.007, 0.162, -0.872)" gradientUnits="objectBoundingBox">
      <stop offset="0.257" stop-color="#160f04"/>
      <stop offset="0.577" stop-color="#38270a"/>
      <stop offset="0.661" stop-color="#422f0d"/>
    </radialGradient>
  </defs>
  <g id="Grupo_6" data-name="Grupo 6" transform="translate(-1157.161 -120.542)">
    <path id="Caminho_9" data-name="Caminho 9" class="cls-1" d="M1242.981,163.462a42.91,42.91,0,1,1-42.91-42.92A42.953,42.953,0,0,1,1242.981,163.462Z"/>
    <g id="Grupo_5" data-name="Grupo 5">
      <path id="Caminho_10" data-name="Caminho 10" class="cls-2" d="M1226.621,150.852a3.5,3.5,0,0,1-3.5,3.5h-12.1a3.5,3.5,0,0,1-2.47-5.97l9.67-9.68a3.5,3.5,0,0,1,4.95,4.95l-3.7,3.7h3.65A3.5,3.5,0,0,1,1226.621,150.852Z"/>
      <path id="Caminho_11" data-name="Caminho 11" class="cls-2" d="M1192.361,152.192a3.509,3.509,0,0,1-3.24,2.16h-12.1a3.5,3.5,0,0,1,0-7h3.65l-3.7-3.7a3.5,3.5,0,0,1,4.95-4.95l9.68,9.68A3.5,3.5,0,0,1,1192.361,152.192Z"/>
    </g>
    <path id="Caminho_12" data-name="Caminho 12" class="cls-3" d="M1226.86,169.782a27.019,27.019,0,0,1-16.01,21.33,11.013,11.013,0,0,0-21.56,0,26.987,26.987,0,0,1-16-21.33,3.048,3.048,0,0,1,3.02-3.43h47.52A3.055,3.055,0,0,1,1226.86,169.782Z"/>
    <path id="Caminho_13" data-name="Caminho 13" class="cls-4" d="M1210.85,191.112a27.059,27.059,0,0,1-21.56,0,11.013,11.013,0,0,1,21.56,0Z"/>
  </g>
</svg>
