<svg width="21" height="14" viewBox="0 0 21 14" fill="none" xmlns="http://www.w3.org/2000/svg">
<path d="M15.5007 1C14.4129 0.999859 13.3495 1.32229 12.445 1.92652C11.5404 2.53075 10.8353 3.38964 10.4189 4.39458C10.0025 5.39952 9.89347 6.50537 10.1055 7.57229C10.3176 8.63921 10.8413 9.61928 11.6104 10.3886C12.3795 11.1579 13.3595 11.6818 14.4263 11.8942C15.4932 12.1065 16.5991 11.9977 17.6041 11.5816C18.6091 11.1654 19.4682 10.4606 20.0727 9.55621C20.6772 8.65182 20.9999 7.5885 21 6.5007C20.9986 5.04251 20.4188 3.64441 19.3878 2.61318C18.3568 1.58195 16.9589 1.00179 15.5007 1ZM13.1297 5.71748C12.632 5.71748 12.2327 5.2009 12.2327 4.56415C12.2327 3.9274 12.6337 3.41082 13.1297 3.41082C13.6256 3.41082 14.0267 3.9274 14.0267 4.56415C14.0267 5.2009 13.6256 5.71748 13.1297 5.71748ZM17.8717 5.71748C17.374 5.71748 16.9747 5.2009 16.9747 4.56415C16.9747 3.9274 17.3757 3.41082 17.8717 3.41082C18.3677 3.41082 18.7687 3.9274 18.7687 4.56415C18.7687 5.2009 18.3677 5.71748 17.8717 5.71748Z" fill="url(#paint0_radial)"/>
<path d="M18.776 9.38298C18.6707 9.43766 18.5479 9.44839 18.4347 9.41281C18.3214 9.37723 18.2269 9.29825 18.1717 9.19313C17.9167 8.70545 17.533 8.2969 17.0623 8.01183C16.5916 7.72676 16.0518 7.57605 15.5015 7.57605C14.9512 7.57605 14.4114 7.72676 13.9406 8.01183C13.4699 8.2969 13.0863 8.70545 12.8313 9.19313C12.804 9.2454 12.7668 9.29178 12.7216 9.32964C12.6764 9.36749 12.6242 9.39608 12.5679 9.41375C12.5117 9.43143 12.4525 9.43786 12.3938 9.43267C12.335 9.42748 12.2779 9.41078 12.2256 9.38352C12.1734 9.35625 12.127 9.31896 12.0891 9.27377C12.0513 9.22857 12.0227 9.17637 12.005 9.12013C11.9874 9.06389 11.9809 9.00472 11.9861 8.94599C11.9913 8.88727 12.008 8.83014 12.0353 8.77788C12.3663 8.14501 12.8642 7.61486 13.4751 7.24493C14.086 6.87501 14.7866 6.67944 15.5008 6.67944C16.2149 6.67944 16.9155 6.87501 17.5264 7.24493C18.1373 7.61486 18.6353 8.14501 18.9663 8.77788C19.0207 8.88345 19.0312 9.00624 18.9956 9.11954C18.9599 9.23284 18.8811 9.32751 18.776 9.38298Z" fill="url(#paint1_radial)"/>
<path d="M17.8726 5.71742C18.368 5.71742 18.7696 5.20106 18.7696 4.56409C18.7696 3.92713 18.368 3.41077 17.8726 3.41077C17.3772 3.41077 16.9756 3.92713 16.9756 4.56409C16.9756 5.20106 17.3772 5.71742 17.8726 5.71742Z" fill="#422F0D"/>
<path d="M13.1294 5.71742C13.6248 5.71742 14.0264 5.20106 14.0264 4.56409C14.0264 3.92713 13.6248 3.41077 13.1294 3.41077C12.634 3.41077 12.2324 3.92713 12.2324 4.56409C12.2324 5.20106 12.634 5.71742 13.1294 5.71742Z" fill="#422F0D"/>
<path d="M18.302 6.91135L17.8363 6.14057C17.832 6.13334 17.826 6.12734 17.8187 6.12318C17.8115 6.11901 17.8033 6.11682 17.7949 6.11682C17.7865 6.11682 17.7783 6.11901 17.771 6.12318C17.7637 6.12734 17.7577 6.13334 17.7534 6.14057L17.313 6.91597C17.2641 6.99554 17.2382 7.0871 17.2383 7.18048C17.2383 7.33248 17.2987 7.47825 17.4061 7.58573C17.5136 7.6932 17.6594 7.75359 17.8114 7.75359C17.9634 7.75359 18.1092 7.6932 18.2166 7.58573C18.3241 7.47825 18.3845 7.33248 18.3845 7.18048C18.3844 7.08423 18.3557 6.99019 18.302 6.91028V6.91135Z" fill="url(#paint2_radial)"/>
<path d="M7.24545 12.95C10.929 12.95 13.9909 10.203 13.9909 6.725C13.9909 3.24696 10.929 0.5 7.24545 0.5C3.56189 0.5 0.5 3.24696 0.5 6.725C0.5 10.203 3.56189 12.95 7.24545 12.95Z" fill="#2C2C2C" stroke="#2C2C2C"/>
<path d="M13.4498 6.72557C13.4589 7.86904 13.1309 8.98946 12.5073 9.94468C11.8838 10.8999 10.9929 11.6469 9.94761 12.0908C8.90234 12.5348 7.74985 12.6557 6.6363 12.4382C5.52276 12.2208 4.49837 11.6747 3.69312 10.8694C2.88788 10.0641 2.33804 9.03576 2.1134 7.91491C1.88876 6.79405 1.99945 5.63119 2.43138 4.57384C2.86331 3.51649 3.59705 2.61232 4.53948 1.97605C5.48192 1.33977 6.59058 1.00007 7.72482 1.00003C9.2367 0.995248 10.6887 1.59546 11.762 2.66892C12.8354 3.74238 13.4424 5.20135 13.4498 6.72557Z" fill="url(#paint3_radial)"/>
<path d="M11.1756 5.03708C11.1756 5.09832 11.1637 5.15897 11.1405 5.21556C11.1173 5.27215 11.0832 5.32357 11.0403 5.36687C10.9973 5.41018 10.9463 5.44452 10.8902 5.46793C10.834 5.49135 10.7739 5.50338 10.7131 5.50333H9.11471C9.02318 5.50365 8.93362 5.47653 8.85741 5.42542C8.78119 5.37432 8.72176 5.30153 8.68667 5.2163C8.65157 5.13107 8.64238 5.03725 8.66028 4.94675C8.67819 4.85625 8.72238 4.77316 8.78723 4.70803L10.0647 3.41861C10.1516 3.33105 10.2694 3.28186 10.3922 3.28186C10.515 3.28186 10.6329 3.33105 10.7197 3.41861C10.8066 3.50617 10.8553 3.62493 10.8553 3.74876C10.8553 3.87259 10.8066 3.99135 10.7197 4.07891L10.2307 4.57157H10.7128C10.7735 4.57148 10.8336 4.58344 10.8897 4.60679C10.9459 4.63013 10.9969 4.6644 11.0399 4.70763C11.0828 4.75087 11.117 4.80221 11.1402 4.85874C11.1635 4.91527 11.1756 4.97587 11.1756 5.03708Z" fill="#422F0D"/>
<path d="M6.64895 5.21536C6.61375 5.30053 6.55436 5.37329 6.47822 5.42447C6.40207 5.47565 6.31261 5.50296 6.22109 5.50296H4.62262C4.49997 5.50296 4.38236 5.45384 4.29563 5.36641C4.2089 5.27897 4.16016 5.16037 4.16016 5.03672C4.16016 4.91306 4.2089 4.79447 4.29563 4.70703C4.38236 4.6196 4.49997 4.57047 4.62262 4.57047H5.10472L4.61609 4.07781C4.52924 3.99025 4.48044 3.8715 4.48044 3.74767C4.48044 3.62384 4.52924 3.50507 4.61609 3.41751C4.70294 3.32995 4.82071 3.28076 4.94353 3.28076C5.06636 3.28076 5.18416 3.32995 5.27102 3.41751L6.54999 4.70693C6.61456 4.77228 6.65843 4.85549 6.67605 4.946C6.69367 5.03651 6.68423 5.13026 6.64895 5.21536Z" fill="#422F0D"/>
<path d="M11.2082 7.55937C11.1295 8.17696 10.8933 8.7634 10.5226 9.26139C10.1518 9.75938 9.65927 10.1519 9.09304 10.4005C9.02417 10.0711 8.84509 9.77564 8.5858 9.56359C8.3265 9.35153 8.00279 9.2358 7.66891 9.2358C7.33503 9.2358 7.01126 9.35153 6.75197 9.56359C6.49267 9.77564 6.31359 10.0711 6.24473 10.4005C5.67856 10.152 5.18614 9.75948 4.81563 9.26145C4.44511 8.76342 4.20923 8.17692 4.13108 7.55937C4.12395 7.50217 4.12896 7.44409 4.14582 7.389C4.16269 7.33392 4.19102 7.28308 4.22888 7.23987C4.26675 7.19667 4.31327 7.16209 4.36542 7.13843C4.41757 7.11477 4.47413 7.10258 4.53131 7.10266H10.8094C10.8664 7.1029 10.9227 7.11532 10.9747 7.13911C11.0266 7.1629 11.0729 7.19751 11.1106 7.24067C11.1483 7.28382 11.1765 7.33454 11.1933 7.38947C11.2101 7.44441 11.2152 7.50231 11.2082 7.55937Z" fill="url(#paint4_radial)"/>
<path d="M9.09342 10.3994C8.644 10.5962 8.15923 10.6978 7.66925 10.6978C7.17927 10.6978 6.69454 10.5962 6.24512 10.3994C6.31398 10.0701 6.49306 9.77458 6.75236 9.56253C7.01165 9.35047 7.33537 9.23474 7.66925 9.23474C8.00313 9.23474 8.32685 9.35047 8.58614 9.56253C8.84544 9.77458 9.02456 10.0701 9.09342 10.3994Z" fill="#992C20"/>
<defs>
<radialGradient id="paint0_radial" cx="0" cy="0" r="1" gradientUnits="userSpaceOnUse" gradientTransform="translate(15.5 6.49999) scale(7.205)">
<stop stop-color="#EAB242"/>
<stop offset="0.362" stop-color="#E9AF41"/>
<stop offset="0.562" stop-color="#E8A73E"/>
<stop offset="0.723" stop-color="#E69939"/>
<stop offset="0.863" stop-color="#E48632"/>
<stop offset="0.949" stop-color="#E2762D"/>
</radialGradient>
<radialGradient id="paint1_radial" cx="0" cy="0" r="1" gradientUnits="userSpaceOnUse" gradientTransform="translate(-464.27 409.1) rotate(89.3125) scale(10.0212 1.69347)">
<stop offset="0.778" stop-color="#422F0D"/>
<stop offset="0.842" stop-color="#2F2109"/>
<stop offset="0.913" stop-color="#160F04"/>
</radialGradient>
<radialGradient id="paint2_radial" cx="0" cy="0" r="1" gradientUnits="userSpaceOnUse" gradientTransform="translate(219.141 6.62913) scale(1.12939)">
<stop offset="0.665" stop-color="#43BAE8"/>
<stop offset="0.786" stop-color="#37ADD7"/>
<stop offset="0.949" stop-color="#2497BA"/>
</radialGradient>
<radialGradient id="paint3_radial" cx="0" cy="0" r="1" gradientUnits="userSpaceOnUse" gradientTransform="translate(7.725 6.28695) scale(7.68295 7.74572)">
<stop stop-color="#EAB242"/>
<stop offset="0.362" stop-color="#E9AF41"/>
<stop offset="0.562" stop-color="#E8A73E"/>
<stop offset="0.723" stop-color="#E69939"/>
<stop offset="0.863" stop-color="#E48632"/>
<stop offset="0.949" stop-color="#E2762D"/>
</radialGradient>
<radialGradient id="paint4_radial" cx="0" cy="0" r="1" gradientUnits="userSpaceOnUse" gradientTransform="translate(-485.158 379.468) rotate(90.0568) scale(7.91241 3.78388)">
<stop offset="0.257" stop-color="#160F04"/>
<stop offset="0.577" stop-color="#38270A"/>
<stop offset="0.661" stop-color="#422F0D"/>
</radialGradient>
</defs>
</svg>
