<svg width="30" height="13" viewBox="0 0 30 13" fill="none" xmlns="http://www.w3.org/2000/svg">
<g clip-path="url(#clip0)">
<path d="M24.2728 0.554657C23.1399 0.554511 22.0324 0.890273 21.0903 1.51948C20.1483 2.14869 19.4139 3.04309 18.9803 4.08958C18.5466 5.13606 18.433 6.28763 18.6539 7.39866C18.8747 8.50969 19.4202 9.53028 20.2212 10.3314C21.0221 11.1325 22.0427 11.6781 23.1539 11.8992C24.265 12.1203 25.4167 12.0071 26.4634 11.5737C27.5102 11.1404 28.4049 10.4064 29.0344 9.4646C29.664 8.52282 30 7.41554 30.0002 6.28277C29.9987 4.76429 29.3949 3.3084 28.3211 2.23453C27.2474 1.16066 25.7915 0.556519 24.2728 0.554657ZM21.8034 5.46717C21.2851 5.46717 20.8693 4.92923 20.8693 4.26616C20.8693 3.60309 21.2869 3.06515 21.8034 3.06515C22.32 3.06515 22.7377 3.60309 22.7377 4.26616C22.7377 4.92923 22.3204 5.46717 21.8038 5.46717H21.8034ZM26.7421 5.46717C26.2238 5.46717 25.8076 4.92923 25.8076 4.26616C25.8076 3.60309 26.2252 3.06515 26.7421 3.06515C27.259 3.06515 27.6764 3.60309 27.6764 4.26616C27.6764 4.92923 27.2587 5.46717 26.7421 5.46717Z" fill="url(#paint0_radial)"/>
<path d="M24.2736 10.005C25.0763 10.005 25.7269 9.16844 25.7269 8.13648C25.7269 7.10453 25.0763 6.26796 24.2736 6.26796C23.471 6.26796 22.8203 7.10453 22.8203 8.13648C22.8203 9.16844 23.471 10.005 24.2736 10.005Z" fill="url(#paint1_radial)"/>
<path d="M26.7438 5.46716C27.2597 5.46716 27.678 4.92945 27.678 4.26615C27.678 3.60285 27.2597 3.06514 26.7438 3.06514C26.2278 3.06514 25.8096 3.60285 25.8096 4.26615C25.8096 4.92945 26.2278 5.46716 26.7438 5.46716Z" fill="#422F0D"/>
<path d="M21.8043 5.46716C22.3203 5.46716 22.7385 4.92945 22.7385 4.26615C22.7385 3.60285 22.3203 3.06514 21.8043 3.06514C21.2884 3.06514 20.8701 3.60285 20.8701 4.26615C20.8701 4.92945 21.2884 5.46716 21.8043 5.46716Z" fill="#422F0D"/>
</g>
<path d="M14.7281 0.752136C13.5954 0.75199 12.488 1.08775 11.5461 1.71696C10.6041 2.34617 9.86988 3.24056 9.43625 4.28705C9.00262 5.33353 8.88906 6.4851 9.10991 7.59612C9.33076 8.70715 9.87611 9.72774 10.677 10.5288C11.4779 11.3299 12.4983 11.8755 13.6093 12.0967C14.7203 12.3178 15.8719 12.2045 16.9185 11.7712C17.965 11.3378 18.8596 10.6038 19.4891 9.66206C20.1185 8.72028 20.4546 7.613 20.4547 6.48024C20.4533 4.96176 19.8495 3.50587 18.7759 2.43201C17.7023 1.35814 16.2466 0.753998 14.7281 0.752136ZM12.2591 5.66464C11.7408 5.66464 11.325 5.1267 11.325 4.46363C11.325 3.80056 11.7426 3.26262 12.2591 3.26262C12.7755 3.26262 13.1932 3.80056 13.1932 4.46363C13.1932 5.1267 12.7755 5.66464 12.2591 5.66464ZM17.1971 5.66464C16.6788 5.66464 16.2631 5.1267 16.2631 4.46363C16.2631 3.80056 16.6807 3.26262 17.1971 3.26262C17.7136 3.26262 18.1312 3.80056 18.1312 4.46363C18.1312 5.1267 17.7136 5.66464 17.1971 5.66464Z" fill="url(#paint2_radial)"/>
<path d="M18.1388 9.48162C18.0291 9.53856 17.9013 9.54974 17.7834 9.51269C17.6654 9.47564 17.567 9.39338 17.5095 9.28392C17.244 8.77608 16.8444 8.35065 16.3543 8.05379C15.8641 7.75693 15.302 7.59999 14.7289 7.59999C14.1559 7.59999 13.5937 7.75693 13.1035 8.05379C12.6134 8.35065 12.2139 8.77608 11.9484 9.28392C11.92 9.33835 11.8811 9.38665 11.8341 9.42607C11.787 9.46549 11.7326 9.49526 11.6741 9.51367C11.6155 9.53208 11.5539 9.53877 11.4927 9.53337C11.4316 9.52797 11.3721 9.51057 11.3176 9.48218C11.2632 9.45379 11.2149 9.41495 11.1755 9.36789C11.1361 9.32083 11.1063 9.26647 11.0879 9.2079C11.0695 9.14934 11.0628 9.08772 11.0682 9.02657C11.0736 8.96542 11.091 8.90593 11.1194 8.8515C11.4641 8.19247 11.9826 7.64041 12.6188 7.25519C13.2549 6.86997 13.9844 6.66632 14.7282 6.66632C15.4719 6.66632 16.2014 6.86997 16.8376 7.25519C17.4737 7.64041 17.9923 8.19247 18.3369 8.8515C18.3936 8.96145 18.4045 9.08931 18.3674 9.20729C18.3303 9.32528 18.2482 9.42386 18.1388 9.48162Z" fill="url(#paint3_radial)"/>
<path d="M17.1977 5.66463C17.7136 5.66463 18.1318 5.12692 18.1318 4.46362C18.1318 3.80033 17.7136 3.26262 17.1977 3.26262C16.6819 3.26262 16.2637 3.80033 16.2637 4.46362C16.2637 5.12692 16.6819 5.66463 17.1977 5.66463Z" fill="#422F0D"/>
<path d="M12.2593 5.66463C12.7751 5.66463 13.1933 5.12692 13.1933 4.46362C13.1933 3.80033 12.7751 3.26262 12.2593 3.26262C11.7434 3.26262 11.3252 3.80033 11.3252 4.46362C11.3252 5.12692 11.7434 5.66463 12.2593 5.66463Z" fill="#422F0D"/>
<path d="M17.6448 6.90785L17.1598 6.1052C17.1554 6.09767 17.1491 6.09143 17.1416 6.0871C17.134 6.08276 17.1254 6.08047 17.1167 6.08047C17.108 6.08047 17.0994 6.08276 17.0919 6.0871C17.0843 6.09143 17.078 6.09767 17.0736 6.1052L16.6149 6.91266C16.564 6.99552 16.5371 7.09087 16.5371 7.18811C16.5371 7.34639 16.6 7.49818 16.7119 7.61011C16.8238 7.72203 16.9757 7.78491 17.1339 7.78491C17.2922 7.78491 17.444 7.72203 17.5559 7.61011C17.6678 7.49818 17.7307 7.34639 17.7307 7.18811C17.7306 7.08788 17.7007 6.98995 17.6448 6.90673V6.90785Z" fill="url(#paint4_radial)"/>
<path d="M6.3641 11.591L6.34301 11.607L6.32573 11.6271C6.27655 11.6841 6.1511 11.75 5.99922 11.75L5.99854 11.75C5.92977 11.7502 5.86173 11.736 5.79877 11.7083L5.69825 11.9372L5.79877 11.7083C5.73581 11.6807 5.67932 11.6402 5.63292 11.5894L5.61617 11.5711L5.59615 11.5564C5.51045 11.4936 4.16137 10.4609 2.83666 9.03314C2.17451 8.31946 1.52418 7.51317 1.04064 6.68525C0.55547 5.85454 0.25 5.02205 0.25 4.25091C0.25 2.59633 1.59635 1.25 3.24919 1.25L3.24947 1.25C3.75633 1.24944 4.25504 1.37748 4.69895 1.62214C5.14286 1.86681 5.51746 2.2201 5.78768 2.64897L5.9992 2.98466L6.21071 2.64897C6.48093 2.2201 6.85553 1.86681 7.29944 1.62214C7.74334 1.37748 8.24206 1.24944 8.74892 1.25H8.7492C10.4037 1.24998 11.75 2.59641 11.75 4.25091C11.75 5.02203 11.4445 5.8545 10.9588 6.68568C10.4747 7.51409 9.8232 8.32138 9.15875 9.03707C7.8299 10.4684 6.47169 11.5095 6.3641 11.591Z" fill="url(#paint5_linear)" stroke="#2C2C2C" stroke-width="0.5"/>
<defs>
<radialGradient id="paint0_radial" cx="0" cy="0" r="1" gradientUnits="userSpaceOnUse" gradientTransform="translate(24.2721 6.28203) scale(7.50384 7.50286)">
<stop stop-color="#EAB242"/>
<stop offset="0.362" stop-color="#E9AF41"/>
<stop offset="0.562" stop-color="#E8A73E"/>
<stop offset="0.723" stop-color="#E69939"/>
<stop offset="0.863" stop-color="#E48632"/>
<stop offset="0.949" stop-color="#E2762D"/>
</radialGradient>
<radialGradient id="paint1_radial" cx="0" cy="0" r="1" gradientUnits="userSpaceOnUse" gradientTransform="translate(24.6363 8.54756) scale(2.26893 2.26839)">
<stop offset="0.73" stop-color="#422F0D"/>
<stop offset="0.863" stop-color="#2E2009"/>
<stop offset="1" stop-color="#160F04"/>
</radialGradient>
<radialGradient id="paint2_radial" cx="0" cy="0" r="1" gradientUnits="userSpaceOnUse" gradientTransform="translate(14.7274 6.4795) scale(7.50286)">
<stop stop-color="#EAB242"/>
<stop offset="0.362" stop-color="#E9AF41"/>
<stop offset="0.562" stop-color="#E8A73E"/>
<stop offset="0.723" stop-color="#E69939"/>
<stop offset="0.863" stop-color="#E48632"/>
<stop offset="0.949" stop-color="#E2762D"/>
</radialGradient>
<radialGradient id="paint3_radial" cx="0" cy="0" r="1" gradientUnits="userSpaceOnUse" gradientTransform="translate(-484.877 425.723) rotate(89.3125) scale(10.4355 1.76347)">
<stop offset="0.778" stop-color="#422F0D"/>
<stop offset="0.842" stop-color="#2F2109"/>
<stop offset="0.913" stop-color="#160F04"/>
</radialGradient>
<radialGradient id="paint4_radial" cx="0" cy="0" r="1" gradientUnits="userSpaceOnUse" gradientTransform="translate(226.787 6.61396) scale(1.17608)">
<stop offset="0.665" stop-color="#43BAE8"/>
<stop offset="0.786" stop-color="#37ADD7"/>
<stop offset="0.949" stop-color="#2497BA"/>
</radialGradient>
<linearGradient id="paint5_linear" x1="0" y1="6.5" x2="12" y2="6.5" gradientUnits="userSpaceOnUse">
<stop stop-color="#FE6E6F"/>
<stop offset="0.284" stop-color="#F86769"/>
<stop offset="0.683" stop-color="#E9555A"/>
<stop offset="0.949" stop-color="#DD454D"/>
</linearGradient>
<clipPath id="clip0">
<rect width="12" height="12" fill="white" transform="translate(18)"/>
</clipPath>
</defs>
</svg>
