<svg width="20" height="13" viewBox="0 0 20 13" fill="none" xmlns="http://www.w3.org/2000/svg">
<path d="M13.966 0.793091C12.8135 0.792942 11.6867 1.13458 10.7283 1.7748C9.76988 2.41502 9.02279 3.32507 8.58158 4.38986C8.14037 5.45466 8.02482 6.62637 8.24953 7.75684C8.47424 8.88731 9.02913 9.92576 9.84403 10.7409C10.6589 11.556 11.6972 12.1111 12.8277 12.3361C13.9581 12.5611 15.1298 12.4459 16.1947 12.0049C17.2596 11.564 18.1699 10.8172 18.8103 9.85894C19.4508 8.90068 19.7927 7.77402 19.7929 6.62143C19.7914 5.07638 19.177 3.59502 18.0847 2.50236C16.9923 1.4097 15.5111 0.794986 13.966 0.793091ZM13.966 2.599C14.7441 2.59821 15.5053 2.82458 16.1565 3.25032L10.5964 8.81045C10.2014 8.20383 9.97766 7.50179 9.94869 6.7785C9.91972 6.0552 10.0866 5.33751 10.4318 4.70125C10.777 4.06499 11.2877 3.53378 11.9099 3.16374C12.532 2.79371 13.2425 2.59859 13.9664 2.599H13.966ZM13.966 10.642C13.2219 10.6426 12.4923 10.4355 11.8595 10.0438L17.3895 4.5134C17.7648 5.12253 17.9706 5.82076 17.9859 6.53603C18.0011 7.2513 17.8252 7.95768 17.4763 8.58226C17.1274 9.20684 16.6181 9.72698 16.0011 10.089C15.384 10.451 14.6815 10.6418 13.966 10.6416V10.642Z" fill="url(#paint0_linear)"/>
<path d="M11.4498 6.72557C11.4589 7.86904 11.1309 8.98946 10.5073 9.94468C9.88382 10.8999 8.99288 11.6469 7.94761 12.0908C6.90234 12.5348 5.74985 12.6557 4.6363 12.4382C3.52276 12.2208 2.49837 11.6747 1.69312 10.8694C0.887877 10.0641 0.338044 9.03576 0.113402 7.91491C-0.111239 6.79405 -0.000550046 5.63119 0.431381 4.57384C0.863312 3.51649 1.59705 2.61232 2.53948 1.97605C3.48192 1.33977 4.59058 1.00007 5.72482 1.00003C7.2367 0.995248 8.68867 1.59546 9.76203 2.66892C10.8354 3.74238 11.4424 5.20135 11.4498 6.72557Z" fill="url(#paint1_radial)"/>
<path d="M9.1756 5.03707C9.17565 5.09831 9.16373 5.15896 9.14051 5.21555C9.11728 5.27214 9.08321 5.32355 9.04026 5.36686C8.99731 5.41016 8.94631 5.44451 8.89018 5.46792C8.83405 5.49133 8.77388 5.50336 8.71313 5.50331H7.11471C7.02318 5.50363 6.93362 5.47651 6.85741 5.42541C6.78119 5.3743 6.72176 5.30151 6.68667 5.21628C6.65157 5.13105 6.64238 5.03723 6.66028 4.94674C6.67819 4.85624 6.72238 4.77315 6.78723 4.70802L8.06474 3.4186C8.15159 3.33103 8.26939 3.28185 8.39222 3.28185C8.51505 3.28185 8.63285 3.33103 8.71971 3.4186C8.80656 3.50616 8.85531 3.62491 8.85531 3.74874C8.85531 3.87257 8.80656 3.99134 8.71971 4.0789L8.23068 4.57156H8.71278C8.77349 4.57146 8.83361 4.58342 8.88973 4.60677C8.94586 4.63012 8.99688 4.66439 9.03986 4.70762C9.08284 4.75085 9.11695 4.8022 9.14024 4.85873C9.16353 4.91526 9.17555 4.97586 9.1756 5.03707Z" fill="#422F0D"/>
<path d="M4.64895 5.21535C4.61375 5.30052 4.55436 5.37328 4.47822 5.42446C4.40207 5.47564 4.31261 5.50295 4.22109 5.50295H2.62262C2.49997 5.50295 2.38236 5.45383 2.29563 5.36639C2.2089 5.27895 2.16016 5.16036 2.16016 5.0367C2.16016 4.91305 2.2089 4.79446 2.29563 4.70702C2.38236 4.61958 2.49997 4.57046 2.62262 4.57046H3.10472L2.61609 4.0778C2.52924 3.99024 2.48044 3.87148 2.48044 3.74765C2.48044 3.62382 2.52924 3.50506 2.61609 3.4175C2.70294 3.32994 2.82071 3.28075 2.94353 3.28075C3.06636 3.28075 3.18416 3.32994 3.27102 3.4175L4.54999 4.70692C4.61456 4.77227 4.65843 4.85547 4.67605 4.94598C4.69367 5.0365 4.68423 5.13024 4.64895 5.21535Z" fill="#422F0D"/>
<path d="M9.20816 7.55943C9.12952 8.17702 8.89332 8.76346 8.52259 9.26145C8.15185 9.75944 7.65927 10.1519 7.09304 10.4006C7.02417 10.0712 6.84509 9.77571 6.5858 9.56365C6.3265 9.35159 6.00279 9.23586 5.66891 9.23586C5.33503 9.23586 5.01126 9.35159 4.75197 9.56365C4.49267 9.77571 4.31359 10.0712 4.24473 10.4006C3.67856 10.152 3.18614 9.75954 2.81563 9.26151C2.44511 8.76348 2.20923 8.17698 2.13108 7.55943C2.12395 7.50223 2.12896 7.44415 2.14582 7.38907C2.16269 7.33398 2.19102 7.28314 2.22888 7.23993C2.26675 7.19673 2.31327 7.16215 2.36542 7.13849C2.41757 7.11483 2.47413 7.10264 2.53131 7.10272H8.80938C8.86641 7.10296 8.92274 7.11539 8.97466 7.13917C9.02658 7.16296 9.07289 7.19757 9.11057 7.24073C9.14825 7.28388 9.17645 7.3346 9.19328 7.38954C9.2101 7.44447 9.21515 7.50238 9.20816 7.55943Z" fill="url(#paint2_radial)"/>
<path d="M7.09342 10.3995C6.644 10.5962 6.15923 10.6978 5.66925 10.6978C5.17927 10.6978 4.69454 10.5962 4.24512 10.3995C4.31398 10.0701 4.49306 9.7746 4.75236 9.56254C5.01165 9.35049 5.33537 9.23476 5.66925 9.23476C6.00313 9.23476 6.32685 9.35049 6.58614 9.56254C6.84544 9.7746 7.02456 10.0701 7.09342 10.3995Z" fill="#992C20"/>
<defs>
<linearGradient id="paint0_linear" x1="18.2078" y1="2.71619" x2="9.62956" y2="10.6067" gradientUnits="userSpaceOnUse">
<stop stop-color="#E85B43"/>
<stop offset="0.221" stop-color="#E6563C"/>
<stop offset="0.532" stop-color="#E1482A"/>
<stop offset="0.896" stop-color="#D9310C"/>
<stop offset="0.949" stop-color="#D82E07"/>
</linearGradient>
<radialGradient id="paint1_radial" cx="0" cy="0" r="1" gradientUnits="userSpaceOnUse" gradientTransform="translate(5.725 6.28695) scale(7.68295 7.74572)">
<stop stop-color="#EAB242"/>
<stop offset="0.362" stop-color="#E9AF41"/>
<stop offset="0.562" stop-color="#E8A73E"/>
<stop offset="0.723" stop-color="#E69939"/>
<stop offset="0.863" stop-color="#E48632"/>
<stop offset="0.949" stop-color="#E2762D"/>
</radialGradient>
<radialGradient id="paint2_radial" cx="0" cy="0" r="1" gradientUnits="userSpaceOnUse" gradientTransform="translate(-487.158 379.468) rotate(90.0568) scale(7.91241 3.78388)">
<stop offset="0.257" stop-color="#160F04"/>
<stop offset="0.577" stop-color="#38270A"/>
<stop offset="0.661" stop-color="#422F0D"/>
</radialGradient>
</defs>
</svg>
