<svg width="20" height="13" viewBox="0 0 20 13" fill="none" xmlns="http://www.w3.org/2000/svg">
<path d="M13.966 0.793091C12.8135 0.792942 11.6867 1.13458 10.7283 1.7748C9.76988 2.41502 9.02279 3.32507 8.58158 4.38986C8.14037 5.45466 8.02482 6.62637 8.24953 7.75684C8.47424 8.88731 9.02913 9.92576 9.84403 10.7409C10.6589 11.556 11.6972 12.1111 12.8277 12.3361C13.9581 12.5611 15.1298 12.4459 16.1947 12.0049C17.2596 11.564 18.1699 10.8172 18.8103 9.85894C19.4508 8.90068 19.7927 7.77402 19.7929 6.62143C19.7914 5.07638 19.177 3.59502 18.0847 2.50236C16.9923 1.4097 15.5111 0.794986 13.966 0.793091ZM13.966 2.599C14.7441 2.59821 15.5053 2.82458 16.1565 3.25032L10.5964 8.81045C10.2014 8.20383 9.97766 7.50179 9.94869 6.7785C9.91972 6.0552 10.0866 5.33751 10.4318 4.70125C10.777 4.06499 11.2877 3.53378 11.9099 3.16374C12.532 2.79371 13.2425 2.59859 13.9664 2.599H13.966ZM13.966 10.642C13.2219 10.6426 12.4923 10.4355 11.8595 10.0438L17.3895 4.5134C17.7648 5.12253 17.9706 5.82076 17.9859 6.53603C18.0011 7.2513 17.8252 7.95768 17.4763 8.58226C17.1274 9.20684 16.6181 9.72698 16.0011 10.089C15.384 10.451 14.6815 10.6418 13.966 10.6416V10.642Z" fill="url(#paint0_linear)"/>
<path d="M5.72887 1C4.59595 0.999854 3.48845 1.33562 2.54639 1.96483C1.60432 2.59404 0.86999 3.48843 0.436308 4.53492C0.0026252 5.5814 -0.110953 6.73297 0.109924 7.844C0.330801 8.95503 0.876221 9.97562 1.67721 10.7767C2.47819 11.5778 3.4988 12.1234 4.60992 12.3445C5.72103 12.5657 6.87276 12.4524 7.91949 12.0191C8.96623 11.5857 9.86094 10.8517 10.4905 9.90995C11.12 8.96817 11.4561 7.86088 11.4562 6.72811C11.4548 5.20963 10.8509 3.75374 9.77718 2.67987C8.70345 1.606 7.24755 1.00186 5.72887 1ZM3.2595 5.91251C2.74112 5.91251 2.32532 5.37457 2.32532 4.7115C2.32532 4.04843 2.74297 3.51049 3.2595 3.51049C3.77603 3.51049 4.19372 4.04843 4.19372 4.7115C4.19372 5.37457 3.77603 5.91251 3.2595 5.91251ZM8.19819 5.91251C7.67981 5.91251 7.26365 5.37457 7.26365 4.7115C7.26365 4.04843 7.68129 3.51049 8.19819 3.51049C8.71509 3.51049 9.13242 4.04843 9.13242 4.7115C9.13242 5.37457 8.71472 5.91251 8.19819 5.91251Z" fill="url(#paint1_radial)"/>
<path d="M5.72968 10.4503C6.53233 10.4503 7.183 9.61378 7.183 8.58183C7.183 7.54987 6.53233 6.7133 5.72968 6.7133C4.92704 6.7133 4.27637 7.54987 4.27637 8.58183C4.27637 9.61378 4.92704 10.4503 5.72968 10.4503Z" fill="url(#paint2_radial)"/>
<path d="M8.19982 5.9125C8.71577 5.9125 9.13402 5.37479 9.13402 4.71149C9.13402 4.04819 8.71577 3.51048 8.19982 3.51048C7.68388 3.51048 7.26562 4.04819 7.26562 4.71149C7.26562 5.37479 7.68388 5.9125 8.19982 5.9125Z" fill="#422F0D"/>
<path d="M3.26037 5.9125C3.77631 5.9125 4.19457 5.37479 4.19457 4.71149C4.19457 4.04819 3.77631 3.51048 3.26037 3.51048C2.74443 3.51048 2.32617 4.04819 2.32617 4.71149C2.32617 5.37479 2.74443 5.9125 3.26037 5.9125Z" fill="#422F0D"/>
<defs>
<linearGradient id="paint0_linear" x1="18.2078" y1="2.71619" x2="9.62956" y2="10.6067" gradientUnits="userSpaceOnUse">
<stop stop-color="#E85B43"/>
<stop offset="0.221" stop-color="#E6563C"/>
<stop offset="0.532" stop-color="#E1482A"/>
<stop offset="0.896" stop-color="#D9310C"/>
<stop offset="0.949" stop-color="#D82E07"/>
</linearGradient>
<radialGradient id="paint1_radial" cx="0" cy="0" r="1" gradientUnits="userSpaceOnUse" gradientTransform="translate(5.72812 6.72737) scale(7.50384 7.50286)">
<stop stop-color="#EAB242"/>
<stop offset="0.362" stop-color="#E9AF41"/>
<stop offset="0.562" stop-color="#E8A73E"/>
<stop offset="0.723" stop-color="#E69939"/>
<stop offset="0.863" stop-color="#E48632"/>
<stop offset="0.949" stop-color="#E2762D"/>
</radialGradient>
<radialGradient id="paint2_radial" cx="0" cy="0" r="1" gradientUnits="userSpaceOnUse" gradientTransform="translate(6.09238 8.9929) scale(2.26893 2.26839)">
<stop offset="0.73" stop-color="#422F0D"/>
<stop offset="0.863" stop-color="#2E2009"/>
<stop offset="1" stop-color="#160F04"/>
</radialGradient>
</defs>
</svg>
