<svg width="21" height="14" viewBox="0 0 21 14" fill="none" xmlns="http://www.w3.org/2000/svg">
<path d="M20.7254 4.86964C20.7254 8.13128 15.6168 12.0767 15.3982 12.2435C15.2963 12.3625 15.1022 12.4487 14.8971 12.4487C14.7965 12.449 14.6969 12.4281 14.6048 12.3873C14.5127 12.3466 14.43 12.2869 14.3621 12.2121C14.1787 12.0768 9.07031 8.13128 9.07031 4.86964C9.07031 3.11642 10.4866 1.69007 12.2261 1.69007C12.7595 1.68947 13.2843 1.82515 13.7514 2.08441C14.2185 2.34368 14.6127 2.71805 14.8971 3.1725C15.1814 2.71805 15.5756 2.34368 16.0427 2.08441C16.5099 1.82515 17.0347 1.68947 17.5681 1.69007C19.3091 1.69005 20.7254 3.11642 20.7254 4.86964Z" fill="url(#paint0_linear)" stroke="#2C2C2C" stroke-width="0.5"/>
<path d="M7.24545 12.95C10.929 12.95 13.9909 10.203 13.9909 6.725C13.9909 3.24696 10.929 0.5 7.24545 0.5C3.56189 0.5 0.5 3.24696 0.5 6.725C0.5 10.203 3.56189 12.95 7.24545 12.95Z" fill="#2C2C2C" stroke="#2C2C2C"/>
<path d="M7.50072 1C6.41292 0.999859 5.34953 1.32229 4.44498 1.92652C3.54043 2.53075 2.83534 3.38964 2.41893 4.39458C2.00252 5.39952 1.89347 6.50537 2.10555 7.57229C2.31763 8.63921 2.84133 9.61928 3.61041 10.3886C4.3795 11.1579 5.35946 11.6818 6.42633 11.8942C7.49319 12.1065 8.59906 11.9977 9.6041 11.5816C10.6091 11.1654 11.4682 10.4606 12.0727 9.55621C12.6772 8.65182 12.9999 7.5885 13 6.5007C12.9986 5.04251 12.4188 3.64441 11.3878 2.61318C10.3568 1.58195 8.95891 1.00179 7.50072 1ZM5.12969 5.71748C4.63195 5.71748 4.23271 5.2009 4.23271 4.56415C4.23271 3.9274 4.63373 3.41082 5.12969 3.41082C5.62565 3.41082 6.02671 3.9274 6.02671 4.56415C6.02671 5.2009 5.62565 5.71748 5.12969 5.71748ZM9.8717 5.71748C9.37396 5.71748 8.97473 5.2009 8.97473 4.56415C8.97473 3.9274 9.37574 3.41082 9.8717 3.41082C10.3677 3.41082 10.7687 3.9274 10.7687 4.56415C10.7687 5.2009 10.3677 5.71748 9.8717 5.71748Z" fill="url(#paint1_radial)"/>
<path d="M10.776 9.38298C10.6707 9.43766 10.5479 9.44839 10.4347 9.41281C10.3214 9.37723 10.2269 9.29825 10.1717 9.19313C9.9167 8.70545 9.53302 8.2969 9.0623 8.01183C8.59158 7.72676 8.05181 7.57605 7.50149 7.57605C6.95118 7.57605 6.41136 7.72676 5.94064 8.01183C5.46992 8.2969 5.08628 8.70545 4.83132 9.19313C4.80405 9.2454 4.76675 9.29178 4.72156 9.32964C4.67637 9.36749 4.62416 9.39608 4.56793 9.41375C4.51169 9.43143 4.45249 9.43786 4.39377 9.43267C4.33504 9.42748 4.2779 9.41078 4.22564 9.38352C4.17337 9.35625 4.127 9.31896 4.08915 9.27377C4.05129 9.22857 4.02272 9.17637 4.00504 9.12013C3.98736 9.06389 3.98093 9.00472 3.98612 8.94599C3.99131 8.88727 4.00802 8.83014 4.03529 8.77788C4.36626 8.14501 4.86418 7.61486 5.4751 7.24493C6.08601 6.87501 6.78657 6.67944 7.50076 6.67944C8.21494 6.67944 8.9155 6.87501 9.52641 7.24493C10.1373 7.61486 10.6353 8.14501 10.9663 8.77788C11.0207 8.88345 11.0312 9.00624 10.9956 9.11954C10.9599 9.23284 10.8811 9.32751 10.776 9.38298Z" fill="url(#paint2_radial)"/>
<path d="M9.8716 5.71742C10.367 5.71742 10.7686 5.20106 10.7686 4.56409C10.7686 3.92713 10.367 3.41077 9.8716 3.41077C9.37621 3.41077 8.97461 3.92713 8.97461 4.56409C8.97461 5.20106 9.37621 5.71742 9.8716 5.71742Z" fill="#422F0D"/>
<path d="M5.12941 5.71742C5.62481 5.71742 6.02641 5.20106 6.02641 4.56409C6.02641 3.92713 5.62481 3.41077 5.12941 3.41077C4.63402 3.41077 4.23242 3.92713 4.23242 4.56409C4.23242 5.20106 4.63402 5.71742 5.12941 5.71742Z" fill="#422F0D"/>
<path d="M10.3011 6.91135L9.8353 6.14057C9.83107 6.13334 9.82503 6.12734 9.81777 6.12318C9.8105 6.11901 9.80227 6.11682 9.7939 6.11682C9.78552 6.11682 9.7773 6.11901 9.77003 6.12318C9.76276 6.12734 9.75668 6.13334 9.75245 6.14057L9.31199 6.91597C9.26312 6.99554 9.23725 7.0871 9.2373 7.18048C9.2373 7.33248 9.29769 7.47825 9.40517 7.58573C9.51265 7.6932 9.65844 7.75359 9.81043 7.75359C9.96243 7.75359 10.1082 7.6932 10.2157 7.58573C10.3231 7.47825 10.3835 7.33248 10.3835 7.18048C10.3834 7.08423 10.3547 6.99019 10.3011 6.91028V6.91135Z" fill="url(#paint3_radial)"/>
<defs>
<linearGradient id="paint0_linear" x1="9.07031" y1="7.06938" x2="20.7254" y2="7.06938" gradientUnits="userSpaceOnUse">
<stop stop-color="#FE6E6F"/>
<stop offset="0.284" stop-color="#F86769"/>
<stop offset="0.683" stop-color="#E9555A"/>
<stop offset="0.949" stop-color="#DD454D"/>
</linearGradient>
<radialGradient id="paint1_radial" cx="0" cy="0" r="1" gradientUnits="userSpaceOnUse" gradientTransform="translate(7.5 6.49999) scale(7.205)">
<stop stop-color="#EAB242"/>
<stop offset="0.362" stop-color="#E9AF41"/>
<stop offset="0.562" stop-color="#E8A73E"/>
<stop offset="0.723" stop-color="#E69939"/>
<stop offset="0.863" stop-color="#E48632"/>
<stop offset="0.949" stop-color="#E2762D"/>
</radialGradient>
<radialGradient id="paint2_radial" cx="0" cy="0" r="1" gradientUnits="userSpaceOnUse" gradientTransform="translate(-472.27 409.1) rotate(89.3125) scale(10.0212 1.69347)">
<stop offset="0.778" stop-color="#422F0D"/>
<stop offset="0.842" stop-color="#2F2109"/>
<stop offset="0.913" stop-color="#160F04"/>
</radialGradient>
<radialGradient id="paint3_radial" cx="0" cy="0" r="1" gradientUnits="userSpaceOnUse" gradientTransform="translate(211.14 6.62913) scale(1.12939)">
<stop offset="0.665" stop-color="#43BAE8"/>
<stop offset="0.786" stop-color="#37ADD7"/>
<stop offset="0.949" stop-color="#2497BA"/>
</radialGradient>
</defs>
</svg>
