<svg width="27" height="14" viewBox="0 0 27 14" fill="none" xmlns="http://www.w3.org/2000/svg">
<path d="M26.1235 8.02595C25.9691 6.23558 25.029 5.11377 24.1995 4.12432C23.4338 3.20802 22.7685 2.41729 22.7685 1.24985C22.7684 1.20401 22.7541 1.15907 22.7271 1.11994C22.7002 1.08081 22.6616 1.04899 22.6157 1.02794C22.5698 1.0069 22.5182 0.997437 22.4666 1.00059C22.415 1.00375 22.3653 1.01941 22.3231 1.04585C21.039 1.88446 20.107 3.07868 19.6746 4.43956C19.4683 5.27204 19.3708 6.1228 19.3841 6.97504C18.2355 6.75671 17.9751 5.23218 17.9713 5.21596C17.965 5.1769 17.9484 5.1397 17.9228 5.1074C17.8972 5.07509 17.8634 5.0486 17.8241 5.03007C17.7851 5.01131 17.7416 5.00108 17.6972 5.00023C17.6528 4.99937 17.6088 5.00792 17.5689 5.02516C17.5084 5.05118 16.0885 5.69033 16.0072 8.24541C16 8.33025 16 8.4151 16 8.49994C16.0015 9.69303 16.5368 10.8369 17.4886 11.6805C18.4403 12.5242 19.7307 12.9987 21.0767 13H21.0916C22.435 12.9952 23.7216 12.5192 24.6702 11.6759C25.6188 10.8326 26.1522 9.69079 26.1538 8.49994C26.1529 8.37513 26.1235 8.02595 26.1235 8.02595ZM21.0762 12.4985C20.6131 12.4847 20.175 12.3088 19.8578 12.0093C19.5406 11.7098 19.3703 11.311 19.3841 10.9004C19.3841 10.871 19.3841 10.8401 19.3841 10.8043C19.3828 10.5316 19.4434 10.2616 19.5623 10.0101C19.6329 10.1804 19.7591 10.3281 19.9249 10.4345C20.0907 10.5408 20.2885 10.6009 20.493 10.6071C20.5301 10.6072 20.5669 10.6009 20.6012 10.5884C20.6356 10.5759 20.6668 10.5576 20.6932 10.5344C20.7195 10.5112 20.7404 10.4836 20.7546 10.4533C20.7689 10.4229 20.7763 10.3903 20.7764 10.3574C20.7628 9.97615 20.7992 9.59477 20.8848 9.22092C20.9904 8.8671 21.1853 8.5392 21.4548 8.26201C21.5872 8.60395 21.7837 8.92366 22.036 9.20772C22.4498 9.65086 22.702 10.195 22.7591 10.7681C22.763 10.8103 22.7663 10.8544 22.7663 10.9C22.7802 11.3104 22.6102 11.7089 22.2935 12.0085C21.9768 12.308 21.5391 12.4842 21.0762 12.4985Z" fill="url(#paint0_linear)"/>
<path d="M22.7668 10.9002C22.7814 11.1052 22.7485 11.3107 22.6701 11.5039C22.5917 11.6972 22.4695 11.8742 22.3109 12.024C22.1523 12.1737 21.9608 12.2931 21.7482 12.3747C21.5355 12.4563 21.3063 12.4984 21.0745 12.4984C20.8428 12.4984 20.6136 12.4563 20.4009 12.3747C20.1883 12.2931 19.9968 12.1737 19.8382 12.024C19.6796 11.8742 19.5573 11.6972 19.4789 11.5039C19.4005 11.3107 19.3676 11.1052 19.3823 10.9002C19.3823 10.8708 19.3823 10.8399 19.3823 10.804C19.3811 10.5314 19.4416 10.2614 19.5605 10.0099C19.6312 10.1801 19.7575 10.3278 19.9232 10.4342C20.089 10.5405 20.2868 10.6006 20.4913 10.6068C20.5284 10.607 20.5652 10.6006 20.5996 10.5882C20.6339 10.5757 20.6651 10.5573 20.6914 10.5341C20.7177 10.511 20.7386 10.4834 20.7529 10.453C20.7672 10.4227 20.7745 10.3901 20.7746 10.3572C20.7611 9.97592 20.7975 9.59454 20.8831 9.22069C20.9886 8.86688 21.1836 8.53897 21.4532 8.26178C21.5855 8.60374 21.7819 8.92346 22.0342 9.20749C22.4481 9.65064 22.7003 10.1948 22.7574 10.7678C22.7667 10.8105 22.7668 10.8546 22.7668 10.9002Z" fill="url(#paint1_linear)"/>
<path d="M12.8231 0.5L12.8225 0.5C11.5711 0.499838 10.3477 0.870788 9.30701 1.56594C8.26637 2.26108 7.45518 3.24921 6.97611 4.40537C6.49704 5.56152 6.37158 6.83377 6.61557 8.06124C6.85956 9.2887 7.46206 10.4162 8.34687 11.3013C9.23169 12.1863 10.3591 12.7891 11.5865 13.0334C12.8139 13.2777 14.0862 13.1526 15.2424 12.6738C16.3987 12.1951 17.3871 11.3842 18.0825 10.3437C18.7779 9.30321 19.1492 8.07988 19.1493 6.82841V6.82786C19.1477 5.15038 18.4807 3.54206 17.2947 2.35576C16.1087 1.16946 14.5006 0.502058 12.8231 0.5ZM12.8226 3.30591H12.8229L12.8229 3.19995L12.823 3.30591C13.2923 3.30544 13.7546 3.39943 14.1832 3.57992L9.57629 8.18682C9.41418 7.80073 9.32163 7.38719 9.30473 6.9654C9.27936 6.33209 9.42552 5.70369 9.72777 5.1466C10.03 4.5895 10.4772 4.12438 11.0219 3.80039C11.5666 3.4764 12.1887 3.30556 12.8225 3.30591H12.8226ZM12.8226 10.3485L12.7667 10.3485C12.3521 10.3423 11.9435 10.2624 11.5596 10.1142L16.1085 5.56488C16.254 5.9431 16.3337 6.34518 16.3424 6.75361C16.3558 7.37991 16.2018 7.99843 15.8963 8.54532C15.5907 9.09222 15.1448 9.54766 14.6045 9.86464C14.0642 10.1816 13.449 10.3487 12.8226 10.3485Z" fill="url(#paint2_linear)" stroke="#303030"/>
<path d="M5.72575 1C4.59345 0.999854 3.48655 1.33548 2.545 1.96442C1.60345 2.59337 0.869516 3.4874 0.43607 4.53345C0.00262374 5.5795 -0.110892 6.73059 0.109864 7.84115C0.33062 8.95172 0.875743 9.97188 1.67629 10.7726C2.47684 11.5734 3.49689 12.1188 4.6074 12.3398C5.71791 12.5609 6.86902 12.4476 7.91518 12.0145C8.96134 11.5813 9.85556 10.8476 10.4848 9.90624C11.1139 8.96485 11.4499 7.85803 11.45 6.72573C11.4485 5.20788 10.845 3.7526 9.77185 2.67917C8.69871 1.60575 7.2436 1.00186 5.72575 1ZM3.25772 5.91047C2.73962 5.91047 2.32405 5.37275 2.32405 4.70996C2.32405 4.04716 2.74147 3.50945 3.25772 3.50945C3.77397 3.50945 4.19143 4.04716 4.19143 4.70996C4.19143 5.37275 3.77397 5.91047 3.25772 5.91047ZM8.19372 5.91047C7.67563 5.91047 7.26006 5.37275 7.26006 4.70996C7.26006 4.04716 7.67748 3.50945 8.19372 3.50945C8.70997 3.50945 9.12744 4.04716 9.12744 4.70996C9.12744 5.37275 8.70997 5.91047 8.19372 5.91047Z" fill="url(#paint3_radial)"/>
<path d="M9.13494 9.72588C9.02526 9.7828 8.8975 9.79396 8.7796 9.75693C8.6617 9.7199 8.56328 9.63768 8.50584 9.52826C8.24045 9.02063 7.84107 8.59537 7.35109 8.29864C6.86111 8.0019 6.29926 7.84503 5.72643 7.84503C5.15361 7.84503 4.5917 8.0019 4.10173 8.29864C3.61175 8.59537 3.21242 9.02063 2.94702 9.52826C2.91864 9.58267 2.87981 9.63095 2.83277 9.67035C2.78573 9.70976 2.73139 9.73951 2.67285 9.75791C2.61431 9.77631 2.55269 9.783 2.49157 9.7776C2.43044 9.7722 2.37097 9.75482 2.31656 9.72644C2.26216 9.69806 2.21389 9.65924 2.17449 9.6122C2.13508 9.56516 2.10534 9.51081 2.08694 9.45227C2.06854 9.39373 2.06184 9.33214 2.06724 9.27102C2.07264 9.20989 2.09004 9.15043 2.11843 9.09602C2.46294 8.43726 2.98123 7.88542 3.61714 7.50037C4.25305 7.11531 4.98226 6.91174 5.72566 6.91174C6.46906 6.91174 7.19828 7.11531 7.83419 7.50037C8.4701 7.88542 8.98843 8.43726 9.33295 9.09602C9.38957 9.20592 9.40051 9.33372 9.36344 9.45166C9.32637 9.5696 9.24426 9.66814 9.13494 9.72588Z" fill="url(#paint4_radial)"/>
<path d="M8.19443 5.91048C8.71009 5.91048 9.12812 5.37299 9.12812 4.70997C9.12812 4.04695 8.71009 3.50946 8.19443 3.50946C7.67877 3.50946 7.26074 4.04695 7.26074 4.70997C7.26074 5.37299 7.67877 5.91048 8.19443 5.91048Z" fill="#422F0D"/>
<path d="M3.25791 5.91048C3.77357 5.91048 4.19159 5.37299 4.19159 4.70997C4.19159 4.04695 3.77357 3.50946 3.25791 3.50946C2.74224 3.50946 2.32422 4.04695 2.32422 4.70997C2.32422 5.37299 2.74224 5.91048 3.25791 5.91048Z" fill="#422F0D"/>
<path d="M8.64145 7.15314L8.15664 6.35083C8.15224 6.3433 8.14595 6.33706 8.13839 6.33273C8.13083 6.32839 8.12226 6.32611 8.11354 6.32611C8.10483 6.32611 8.09626 6.32839 8.0887 6.33273C8.08113 6.33706 8.07481 6.3433 8.0704 6.35083L7.61193 7.15795C7.56106 7.24077 7.53412 7.33609 7.53418 7.43328C7.53418 7.5915 7.59704 7.74323 7.70892 7.85511C7.82079 7.96698 7.97254 8.02984 8.13076 8.02984C8.28897 8.02984 8.44068 7.96698 8.55255 7.85511C8.66443 7.74323 8.72729 7.5915 8.72729 7.43328C8.72715 7.3331 8.69729 7.23521 8.64145 7.15203V7.15314Z" fill="url(#paint5_radial)"/>
<defs>
<linearGradient id="paint0_linear" x1="21.0769" y1="5.08" x2="21.0769" y2="17.02" gradientUnits="userSpaceOnUse">
<stop stop-color="#EF6452"/>
<stop offset="0.252" stop-color="#EA5D4D"/>
<stop offset="0.607" stop-color="#DD4B42"/>
<stop offset="0.949" stop-color="#CC3333"/>
</linearGradient>
<linearGradient id="paint1_linear" x1="21.0745" y1="9.94796" x2="21.0745" y2="12.9475" gradientUnits="userSpaceOnUse">
<stop stop-color="#FF954D"/>
<stop offset="0.183" stop-color="#FC8E4D"/>
<stop offset="0.441" stop-color="#F47C4D"/>
<stop offset="0.741" stop-color="#E75E4D"/>
<stop offset="0.949" stop-color="#DD454D"/>
</linearGradient>
<linearGradient id="paint2_linear" x1="17.0642" y1="2.9231" x2="8.486" y2="10.8137" gradientUnits="userSpaceOnUse">
<stop stop-color="#E85B43"/>
<stop offset="0.221" stop-color="#E6563C"/>
<stop offset="0.532" stop-color="#E1482A"/>
<stop offset="0.896" stop-color="#D9310C"/>
<stop offset="0.949" stop-color="#D82E07"/>
</linearGradient>
<radialGradient id="paint3_radial" cx="0" cy="0" r="1" gradientUnits="userSpaceOnUse" gradientTransform="translate(5.725 6.72499) scale(7.49975)">
<stop stop-color="#EAB242"/>
<stop offset="0.362" stop-color="#E9AF41"/>
<stop offset="0.562" stop-color="#E8A73E"/>
<stop offset="0.723" stop-color="#E69939"/>
<stop offset="0.863" stop-color="#E48632"/>
<stop offset="0.949" stop-color="#E2762D"/>
</radialGradient>
<radialGradient id="paint4_radial" cx="0" cy="0" r="1" gradientUnits="userSpaceOnUse" gradientTransform="translate(-493.673 425.795) rotate(89.3125) scale(10.4312 1.76274)">
<stop offset="0.778" stop-color="#422F0D"/>
<stop offset="0.842" stop-color="#2F2109"/>
<stop offset="0.913" stop-color="#160F04"/>
</radialGradient>
<radialGradient id="paint5_radial" cx="0" cy="0" r="1" gradientUnits="userSpaceOnUse" gradientTransform="translate(217.697 6.85938) scale(1.17559)">
<stop offset="0.665" stop-color="#43BAE8"/>
<stop offset="0.786" stop-color="#37ADD7"/>
<stop offset="0.949" stop-color="#2497BA"/>
</radialGradient>
</defs>
</svg>
