<svg width="22" height="15" viewBox="0 0 22 15" fill="none" xmlns="http://www.w3.org/2000/svg">
<path d="M16.2465 13.0448L16.2254 13.0609L16.2082 13.081C16.1619 13.1352 16.0423 13.1987 15.8971 13.1987L15.8964 13.1987C15.8309 13.1989 15.766 13.1853 15.7059 13.1587C15.6458 13.1321 15.5917 13.0931 15.5472 13.0441L15.5305 13.0257L15.5105 13.0109C15.4276 12.9497 14.1176 11.9399 12.8313 10.5438C12.1884 9.84602 11.557 9.05775 11.0876 8.24845C10.6167 7.4364 10.3203 6.62292 10.3203 5.86964C10.3203 4.25275 11.6264 2.94007 13.2261 2.94007L13.2264 2.94007C13.7171 2.93951 14.2001 3.06435 14.6301 3.303C15.0601 3.54166 15.4232 3.88639 15.6852 4.30511L15.8971 4.64381L16.109 4.30511C16.371 3.88639 16.7341 3.54166 17.1641 3.303C17.5941 3.06435 18.077 2.93951 18.5678 2.94007H18.5681C20.1694 2.94005 21.4754 4.25283 21.4754 5.86964C21.4754 6.6229 21.1791 7.43636 20.7076 8.24887C20.2376 9.05865 19.6051 9.84789 18.96 10.5477C17.6697 11.9472 16.3508 12.9652 16.2465 13.0448Z" fill="url(#paint0_linear)" stroke="#2C2C2C" stroke-width="0.5"/>
<ellipse cx="7" cy="7.5" rx="6" ry="6.5" fill="#2C2C2C" stroke="#303030"/>
<path d="M6.72887 2C5.59595 1.99985 4.48845 2.33562 3.54639 2.96483C2.60432 3.59404 1.86999 4.48843 1.43631 5.53492C1.00263 6.5814 0.889047 7.73297 1.10992 8.844C1.3308 9.95503 1.87622 10.9756 2.67721 11.7767C3.47819 12.5778 4.4988 13.1234 5.60992 13.3445C6.72103 13.5657 7.87276 13.4524 8.91949 13.0191C9.96623 12.5857 10.8609 11.8517 11.4905 10.9099C12.12 9.96816 12.4561 8.86088 12.4562 7.72811C12.4548 6.20963 11.8509 4.75374 10.7772 3.67987C9.70345 2.606 8.24755 2.00186 6.72887 2ZM4.2595 6.91251C3.74112 6.91251 3.32532 6.37457 3.32532 5.7115C3.32532 5.04843 3.74297 4.51049 4.2595 4.51049C4.77603 4.51049 5.19372 5.04843 5.19372 5.7115C5.19372 6.37457 4.77643 6.91251 4.2599 6.91251H4.2595ZM9.19819 6.91251C8.67981 6.91251 8.26365 6.37457 8.26365 5.7115C8.26365 5.04843 8.68129 4.51049 9.19819 4.51049C9.71509 4.51049 10.1324 5.04843 10.1324 5.7115C10.1324 6.37457 9.71472 6.91251 9.19819 6.91251Z" fill="url(#paint1_radial)"/>
<path d="M6.72968 11.4503C7.53233 11.4503 8.183 10.6137 8.183 9.58178C8.183 8.54982 7.53233 7.71326 6.72968 7.71326C5.92704 7.71326 5.27637 8.54982 5.27637 9.58178C5.27637 10.6137 5.92704 11.4503 6.72968 11.4503Z" fill="url(#paint2_radial)"/>
<path d="M9.19982 6.91251C9.71577 6.91251 10.134 6.3748 10.134 5.71151C10.134 5.04821 9.71577 4.5105 9.19982 4.5105C8.68388 4.5105 8.26562 5.04821 8.26562 5.71151C8.26562 6.3748 8.68388 6.91251 9.19982 6.91251Z" fill="#422F0D"/>
<path d="M4.26037 6.91251C4.77631 6.91251 5.19457 6.3748 5.19457 5.71151C5.19457 5.04821 4.77631 4.5105 4.26037 4.5105C3.74443 4.5105 3.32617 5.04821 3.32617 5.71151C3.32617 6.3748 3.74443 6.91251 4.26037 6.91251Z" fill="#422F0D"/>
<defs>
<linearGradient id="paint0_linear" x1="10.0703" y1="8.06938" x2="21.7254" y2="8.06938" gradientUnits="userSpaceOnUse">
<stop stop-color="#FE6E6F"/>
<stop offset="0.284" stop-color="#F86769"/>
<stop offset="0.683" stop-color="#E9555A"/>
<stop offset="0.949" stop-color="#DD454D"/>
</linearGradient>
<radialGradient id="paint1_radial" cx="0" cy="0" r="1" gradientUnits="userSpaceOnUse" gradientTransform="translate(6.72812 7.72737) scale(7.50384 7.50286)">
<stop stop-color="#EAB242"/>
<stop offset="0.362" stop-color="#E9AF41"/>
<stop offset="0.562" stop-color="#E8A73E"/>
<stop offset="0.723" stop-color="#E69939"/>
<stop offset="0.863" stop-color="#E48632"/>
<stop offset="0.949" stop-color="#E2762D"/>
</radialGradient>
<radialGradient id="paint2_radial" cx="0" cy="0" r="1" gradientUnits="userSpaceOnUse" gradientTransform="translate(7.09238 9.99285) scale(2.26893 2.26839)">
<stop offset="0.73" stop-color="#422F0D"/>
<stop offset="0.863" stop-color="#2E2009"/>
<stop offset="1" stop-color="#160F04"/>
</radialGradient>
</defs>
</svg>
