<svg width="28" height="14" viewBox="0 0 28 14" fill="none" xmlns="http://www.w3.org/2000/svg">
<path d="M21.966 0.793106C20.8135 0.792957 19.6867 1.13459 18.7283 1.77481C17.7699 2.41503 17.0228 3.32508 16.5816 4.38988C16.1404 5.45467 16.0248 6.62639 16.2495 7.75686C16.4742 8.88733 17.0291 9.92577 17.844 10.7409C18.6589 11.556 19.6972 12.1111 20.8277 12.3362C21.9581 12.5612 23.1298 12.4459 24.1947 12.005C25.2596 11.564 26.1699 10.8172 26.8103 9.85895C27.4508 8.90069 27.7927 7.77403 27.7929 6.62145C27.7914 5.0764 27.177 3.59503 26.0847 2.50237C24.9923 1.40971 23.5111 0.795001 21.966 0.793106ZM21.966 2.59902C22.7441 2.59823 23.5053 2.8246 24.1565 3.25034L18.5964 8.81046C18.2014 8.20385 17.9777 7.50181 17.9487 6.77851C17.9197 6.05522 18.0866 5.33753 18.4318 4.70126C18.777 4.065 19.2877 3.53379 19.9099 3.16376C20.532 2.79372 21.2425 2.5986 21.9664 2.59902H21.966ZM21.966 10.642C21.2219 10.6427 20.4923 10.4355 19.8595 10.0438L25.3895 4.51342C25.7648 5.12254 25.9706 5.82077 25.9859 6.53604C26.0011 7.25131 25.8252 7.9577 25.4763 8.58228C25.1274 9.20686 24.6181 9.727 24.0011 10.089C23.384 10.451 22.6815 10.6418 21.966 10.6416V10.642Z" fill="url(#paint0_linear)"/>
<path d="M14.2465 12.0448L14.2254 12.0609L14.2082 12.081C14.1619 12.1351 14.0423 12.1987 13.8971 12.1987L13.8964 12.1987C13.8309 12.1988 13.766 12.1852 13.7059 12.1586C13.6458 12.1321 13.5917 12.0931 13.5472 12.044L13.5305 12.0256L13.5105 12.0109C13.4276 11.9497 12.1176 10.9399 10.8313 9.54381C10.1884 8.84599 9.55701 8.05772 9.08763 7.24841C8.61665 6.43637 8.32031 5.62289 8.32031 4.86961C8.32031 3.25272 9.62639 1.94003 11.2261 1.94004L11.2264 1.94003C11.7171 1.93948 12.2001 2.06432 12.6301 2.30297C13.0601 2.54163 13.4232 2.88636 13.6852 3.30508L13.8971 3.64378L14.109 3.30508C14.371 2.88636 14.7341 2.54163 15.1641 2.30297C15.5941 2.06432 16.077 1.93948 16.5678 1.94003H16.5681C18.1694 1.94002 19.4754 3.2528 19.4754 4.86961C19.4754 5.62287 19.1791 6.43633 18.7076 7.24884C18.2376 8.05862 17.6051 8.84786 16.96 9.54765C15.6697 10.9472 14.3508 11.9652 14.2465 12.0448Z" fill="url(#paint1_linear)" stroke="#2C2C2C" stroke-width="0.5"/>
<path d="M6.27668 0.793106C5.03543 0.792946 3.82203 1.16086 2.78988 1.85033C1.75774 2.53979 0.953181 3.51984 0.478029 4.66654C0.0028762 5.81324 -0.121563 7.07509 0.120435 8.29252C0.362433 9.50995 0.960007 10.6283 1.83759 11.5061C2.71517 12.3839 3.83336 12.9817 5.05073 13.2241C6.26809 13.4664 7.52996 13.3422 8.67678 12.8674C9.8236 12.3925 10.8039 11.5883 11.4936 10.5563C12.1833 9.52434 12.5516 8.31102 12.5517 7.06977C12.5501 5.40587 11.8885 3.81056 10.7121 2.63385C9.5357 1.45714 7.94058 0.795147 6.27668 0.793106ZM3.57118 6.17606C3.00323 6.17606 2.54767 5.58661 2.54767 4.86004C2.54767 4.13347 3.00526 3.54401 3.57118 3.54401C4.1371 3.54401 4.59474 4.13347 4.59474 4.86004C4.59474 5.58661 4.1371 6.17606 3.57118 6.17606ZM8.98213 6.17606C8.41418 6.17606 7.95862 5.58661 7.95862 4.86004C7.95862 4.13347 8.41621 3.54401 8.98213 3.54401C9.54805 3.54401 10.0057 4.13347 10.0057 4.86004C10.0057 5.58661 9.54805 6.17606 8.98213 6.17606Z" fill="url(#paint2_radial)"/>
<path d="M10.0144 10.3586C9.89415 10.421 9.7541 10.4332 9.62486 10.3926C9.49562 10.352 9.38773 10.2619 9.32476 10.142C9.03383 9.58548 8.59602 9.11931 8.0589 8.79402C7.52178 8.46874 6.90585 8.29677 6.27791 8.29677C5.64997 8.29677 5.034 8.46874 4.49688 8.79402C3.95976 9.11931 3.522 9.58548 3.23106 10.142C3.19995 10.2016 3.15739 10.2545 3.10582 10.2977C3.05426 10.3409 2.99469 10.3735 2.93052 10.3937C2.86635 10.4139 2.7988 10.4212 2.73179 10.4153C2.66478 10.4094 2.59958 10.3903 2.53994 10.3592C2.4803 10.3281 2.42739 10.2855 2.3842 10.234C2.341 10.1824 2.3084 10.1228 2.28823 10.0587C2.26805 9.99449 2.26072 9.92697 2.26664 9.85996C2.27256 9.79296 2.29163 9.72777 2.32274 9.66813C2.7004 8.94599 3.26857 8.34105 3.96566 7.91894C4.66276 7.49684 5.46214 7.27368 6.27707 7.27368C7.092 7.27368 7.89138 7.49684 8.58848 7.91894C9.28557 8.34105 9.85379 8.94599 10.2314 9.66813C10.2935 9.7886 10.3055 9.92871 10.2649 10.058C10.2242 10.1873 10.1342 10.2953 10.0144 10.3586Z" fill="url(#paint3_radial)"/>
<path d="M8.98251 6.17605C9.54779 6.17605 10.006 5.58685 10.006 4.86003C10.006 4.13321 9.54779 3.54401 8.98251 3.54401C8.41723 3.54401 7.95898 4.13321 7.95898 4.86003C7.95898 5.58685 8.41723 6.17605 8.98251 6.17605Z" fill="#422F0D"/>
<path d="M3.57138 6.17605C4.13666 6.17605 4.59491 5.58685 4.59491 4.86003C4.59491 4.13321 4.13666 3.54401 3.57138 3.54401C3.0061 3.54401 2.54785 4.13321 2.54785 4.86003C2.54785 5.58685 3.0061 6.17605 3.57138 6.17605Z" fill="#422F0D"/>
<path d="M9.47261 7.53832L8.94114 6.65881C8.93631 6.65056 8.92943 6.64372 8.92114 6.63897C8.91285 6.63422 8.90346 6.63171 8.8939 6.63171C8.88434 6.63171 8.87495 6.63422 8.86666 6.63897C8.85837 6.64372 8.85144 6.65056 8.84661 6.65881L8.34402 7.54359C8.28825 7.63439 8.25873 7.73887 8.25879 7.84542C8.25879 8.01886 8.3277 8.18519 8.45034 8.30783C8.57298 8.43047 8.73933 8.49937 8.91277 8.49937C9.08621 8.49937 9.25251 8.43047 9.37515 8.30783C9.49779 8.18519 9.5667 8.01886 9.5667 7.84542C9.56655 7.7356 9.53382 7.62829 9.47261 7.5371V7.53832Z" fill="url(#paint4_radial)"/>
<defs>
<linearGradient id="paint0_linear" x1="26.2078" y1="2.71621" x2="17.6296" y2="10.6068" gradientUnits="userSpaceOnUse">
<stop stop-color="#E85B43"/>
<stop offset="0.221" stop-color="#E6563C"/>
<stop offset="0.532" stop-color="#E1482A"/>
<stop offset="0.896" stop-color="#D9310C"/>
<stop offset="0.949" stop-color="#D82E07"/>
</linearGradient>
<linearGradient id="paint1_linear" x1="8.07031" y1="7.06934" x2="19.7254" y2="7.06934" gradientUnits="userSpaceOnUse">
<stop stop-color="#FE6E6F"/>
<stop offset="0.284" stop-color="#F86769"/>
<stop offset="0.683" stop-color="#E9555A"/>
<stop offset="0.949" stop-color="#DD454D"/>
</linearGradient>
<radialGradient id="paint2_radial" cx="0" cy="0" r="1" gradientUnits="userSpaceOnUse" gradientTransform="translate(6.27586 7.06896) scale(8.22138)">
<stop stop-color="#EAB242"/>
<stop offset="0.362" stop-color="#E9AF41"/>
<stop offset="0.562" stop-color="#E8A73E"/>
<stop offset="0.723" stop-color="#E69939"/>
<stop offset="0.863" stop-color="#E48632"/>
<stop offset="0.949" stop-color="#E2762D"/>
</radialGradient>
<radialGradient id="paint3_radial" cx="0" cy="0" r="1" gradientUnits="userSpaceOnUse" gradientTransform="translate(-541.173 466.462) rotate(89.3125) scale(11.4349 1.93236)">
<stop offset="0.778" stop-color="#422F0D"/>
<stop offset="0.842" stop-color="#2F2109"/>
<stop offset="0.913" stop-color="#160F04"/>
</radialGradient>
<radialGradient id="paint4_radial" cx="0" cy="0" r="1" gradientUnits="userSpaceOnUse" gradientTransform="translate(238.643 7.21629) scale(1.28871)">
<stop offset="0.665" stop-color="#43BAE8"/>
<stop offset="0.786" stop-color="#37ADD7"/>
<stop offset="0.949" stop-color="#2497BA"/>
</radialGradient>
</defs>
</svg>
