<svg width="22" height="14" viewBox="0 0 22 14" fill="none" xmlns="http://www.w3.org/2000/svg">
<path d="M21.9672 7.61145C21.7999 5.67188 20.7814 4.45659 19.8828 3.38468C19.0533 2.39202 18.3325 1.53539 18.3325 0.270672C18.3324 0.221008 18.3169 0.172326 18.2877 0.129934C18.2585 0.0875426 18.2168 0.0530694 18.167 0.030271C18.1172 0.00747261 18.0613 -0.00277693 18.0054 0.000644388C17.9495 0.0040657 17.8958 0.0210254 17.85 0.049672C16.4589 0.95816 15.4492 2.2519 14.9808 3.72619C14.7573 4.62804 14.6517 5.5497 14.6661 6.47296C13.4218 6.23644 13.1397 4.58486 13.1356 4.56729C13.1287 4.52497 13.1107 4.48467 13.083 4.44968C13.0553 4.41468 13.0187 4.38598 12.9761 4.3659C12.9339 4.34558 12.8867 4.3345 12.8386 4.33358C12.7905 4.33265 12.7428 4.34191 12.6996 4.36059C12.6342 4.38878 11.0958 5.08119 11.0078 7.8492C11 7.94111 11 8.03302 11 8.12494C11.0016 9.41745 11.5816 10.6566 12.6126 11.5706C13.6437 12.4845 15.0416 12.9986 16.4998 13H16.5159C17.9712 12.9948 19.3651 12.4791 20.3928 11.5656C21.4204 10.652 21.9982 9.41502 21.9999 8.12494C21.999 7.98972 21.9672 7.61145 21.9672 7.61145ZM16.4993 12.4567C15.9975 12.4418 15.5229 12.2512 15.1793 11.9267C14.8357 11.6022 14.6511 11.1703 14.6661 10.7255C14.6661 10.6936 14.6661 10.6601 14.6661 10.6213C14.6647 10.3259 14.7303 10.0334 14.8591 9.76099C14.9356 9.94543 15.0724 10.1055 15.252 10.2207C15.4316 10.3358 15.6459 10.4009 15.8675 10.4076C15.9077 10.4078 15.9475 10.4009 15.9847 10.3874C16.0219 10.3739 16.0557 10.354 16.0843 10.3289C16.1128 10.3038 16.1354 10.2739 16.1509 10.241C16.1663 10.2081 16.1743 10.1729 16.1744 10.1372C16.1597 9.72416 16.1992 9.311 16.2919 8.90599C16.4062 8.52269 16.6174 8.16746 16.9094 7.86717C17.0528 8.23761 17.2657 8.58397 17.539 8.89169C17.9873 9.37177 18.2605 9.96126 18.3224 10.5821C18.3265 10.6278 18.3302 10.6756 18.3302 10.7251C18.3453 11.1696 18.1611 11.6014 17.8179 11.9259C17.4748 12.2504 17.0007 12.4412 16.4993 12.4567Z" fill="url(#paint0_linear)"/>
<path d="M18.3303 10.7252C18.3462 10.9473 18.3106 11.1699 18.2257 11.3793C18.1407 11.5887 18.0083 11.7804 17.8365 11.9426C17.6647 12.1049 17.4572 12.2342 17.2268 12.3226C16.9965 12.411 16.7481 12.4566 16.4971 12.4566C16.2461 12.4566 15.9977 12.411 15.7673 12.3226C15.537 12.2342 15.3295 12.1049 15.1577 11.9426C14.9859 11.7804 14.8535 11.5887 14.7685 11.3793C14.6836 11.1699 14.6479 10.9473 14.6638 10.7252C14.6638 10.6934 14.6638 10.6599 14.6638 10.621C14.6625 10.3257 14.7281 10.0331 14.8569 9.76074C14.9334 9.94516 15.0703 10.1052 15.2499 10.2203C15.4295 10.3355 15.6437 10.4006 15.8653 10.4074C15.9055 10.4076 15.9453 10.4007 15.9825 10.3872C16.0197 10.3737 16.0535 10.3538 16.082 10.3287C16.1106 10.3035 16.1332 10.2737 16.1486 10.2408C16.1641 10.2079 16.1721 10.1726 16.1722 10.137C16.1575 9.72391 16.1969 9.31075 16.2897 8.90575C16.404 8.52245 16.6152 8.16722 16.9073 7.86693C17.0506 8.23738 17.2634 8.58374 17.5368 8.89145C17.9851 9.37152 18.2583 9.96102 18.3202 10.5818C18.3303 10.628 18.3303 10.6758 18.3303 10.7252Z" fill="url(#paint1_linear)"/>
<path d="M12.6551 5.17957C12.6551 8.44122 7.54647 12.3866 7.32786 12.5535C7.22604 12.6725 7.03185 12.7586 6.82679 12.7586C6.72617 12.7589 6.6266 12.738 6.53447 12.6972C6.44234 12.6565 6.35968 12.5968 6.2918 12.522C6.10842 12.3867 1 8.44122 1 5.17957C1 3.42635 2.41627 2 4.15581 2C4.68918 1.9994 5.21398 2.13508 5.68111 2.39435C6.14824 2.65361 6.54242 3.02799 6.82677 3.48243C7.11113 3.02799 7.50531 2.65361 7.97244 2.39435C8.43957 2.13508 8.96437 1.9994 9.49774 2C11.2388 1.99998 12.6551 3.42635 12.6551 5.17957Z" fill="url(#paint2_linear)" stroke="#303030"/>
<defs>
<linearGradient id="paint0_linear" x1="16.5" y1="4.42" x2="16.5" y2="17.355" gradientUnits="userSpaceOnUse">
<stop stop-color="#EF6452"/>
<stop offset="0.252" stop-color="#EA5D4D"/>
<stop offset="0.607" stop-color="#DD4B42"/>
<stop offset="0.949" stop-color="#CC3333"/>
</linearGradient>
<linearGradient id="paint1_linear" x1="16.4971" y1="9.69362" x2="16.4971" y2="12.9431" gradientUnits="userSpaceOnUse">
<stop stop-color="#FF954D"/>
<stop offset="0.183" stop-color="#FC8E4D"/>
<stop offset="0.441" stop-color="#F47C4D"/>
<stop offset="0.741" stop-color="#E75E4D"/>
<stop offset="0.949" stop-color="#DD454D"/>
</linearGradient>
<linearGradient id="paint2_linear" x1="1" y1="7.37931" x2="12.6551" y2="7.37931" gradientUnits="userSpaceOnUse">
<stop stop-color="#FE6E6F"/>
<stop offset="0.284" stop-color="#F86769"/>
<stop offset="0.683" stop-color="#E9555A"/>
<stop offset="0.949" stop-color="#DD454D"/>
</linearGradient>
</defs>
</svg>
