<svg width="23" height="14" viewBox="0 0 23 14" fill="none" xmlns="http://www.w3.org/2000/svg">
<path d="M16.8283 1C15.6758 0.999851 14.549 1.34149 13.5906 1.98171C12.6322 2.62193 11.8851 3.53198 11.4439 4.59677C11.0027 5.66156 10.8871 6.83328 11.1118 7.96375C11.3365 9.09422 11.8914 10.1327 12.7063 10.9478C13.5212 11.7629 14.5596 12.318 15.69 12.543C16.8204 12.7681 17.9921 12.6528 19.057 12.2119C20.1219 11.7709 21.0322 11.0241 21.6726 10.0658C22.3131 9.10759 22.655 7.98093 22.6552 6.82834C22.6537 5.28329 22.0393 3.80192 20.947 2.70927C19.8546 1.61661 18.3734 1.00189 16.8283 1ZM16.8283 2.80591C17.6064 2.80512 18.3677 3.03149 19.0188 3.45723L13.4587 9.01735C13.0637 8.41074 12.84 7.7087 12.811 6.98541C12.782 6.26211 12.9489 5.54442 13.2941 4.90816C13.6393 4.27189 14.15 3.74068 14.7722 3.37065C15.3943 3.00062 16.1048 2.8055 16.8287 2.80591H16.8283ZM16.8283 10.8489C16.0842 10.8496 15.3546 10.6424 14.7218 10.2507L20.2518 4.72031C20.6271 5.32944 20.8329 6.02767 20.8482 6.74294C20.8634 7.45821 20.6875 8.16459 20.3386 8.78917C19.9897 9.41375 19.4805 9.93389 18.8634 10.2959C18.2463 10.6579 17.5438 10.8487 16.8283 10.8485V10.8489Z" fill="url(#paint0_linear)"/>
<path d="M14 4.54645C14 8.18443 8.30187 12.5851 8.05804 12.7712C7.94446 12.9039 7.72787 13 7.49915 13C7.38692 13.0003 7.27586 12.977 7.1731 12.9315C7.07034 12.8861 6.97814 12.8195 6.90242 12.7361C6.69788 12.5852 1 8.18443 1 4.54645C1 2.59093 2.5797 1 4.51996 1C5.11487 0.999335 5.70023 1.15067 6.22126 1.43985C6.74229 1.72903 7.18196 2.1466 7.49913 2.65348C7.81629 2.1466 8.25596 1.72903 8.77699 1.43985C9.29802 1.15067 9.88338 0.999335 10.4783 1C12.4202 0.99998 14 2.59093 14 4.54645Z" fill="url(#paint1_linear)" stroke="#2C2C2C"/>
<defs>
<linearGradient id="paint0_linear" x1="21.0701" y1="2.9231" x2="12.4919" y2="10.8137" gradientUnits="userSpaceOnUse">
<stop stop-color="#E85B43"/>
<stop offset="0.221" stop-color="#E6563C"/>
<stop offset="0.532" stop-color="#E1482A"/>
<stop offset="0.896" stop-color="#D9310C"/>
<stop offset="0.949" stop-color="#D82E07"/>
</linearGradient>
<linearGradient id="paint1_linear" x1="1" y1="7" x2="14" y2="7" gradientUnits="userSpaceOnUse">
<stop stop-color="#FE6E6F"/>
<stop offset="0.284" stop-color="#F86769"/>
<stop offset="0.683" stop-color="#E9555A"/>
<stop offset="0.949" stop-color="#DD454D"/>
</linearGradient>
</defs>
</svg>
