<svg width="29" height="13" viewBox="0 0 29 13" fill="none" xmlns="http://www.w3.org/2000/svg">
<path d="M22.966 0.793091C21.8135 0.792942 20.6867 1.13458 19.7283 1.7748C18.7699 2.41502 18.0228 3.32507 17.5816 4.38986C17.1404 5.45466 17.0248 6.62637 17.2495 7.75684C17.4742 8.88731 18.0291 9.92576 18.844 10.7409C19.6589 11.556 20.6972 12.1111 21.8277 12.3361C22.9581 12.5611 24.1298 12.4459 25.1947 12.0049C26.2596 11.564 27.1699 10.8172 27.8103 9.85894C28.4508 8.90068 28.7927 7.77402 28.7929 6.62143C28.7914 5.07638 28.177 3.59502 27.0847 2.50236C25.9923 1.4097 24.5111 0.794986 22.966 0.793091ZM22.966 2.599C23.7441 2.59821 24.5053 2.82458 25.1565 3.25032L19.5964 8.81045C19.2014 8.20383 18.9777 7.50179 18.9487 6.7785C18.9197 6.0552 19.0866 5.33751 19.4318 4.70125C19.777 4.06499 20.2877 3.53378 20.9099 3.16374C21.532 2.79371 22.2425 2.59859 22.9664 2.599H22.966ZM22.966 10.642C22.2219 10.6426 21.4923 10.4355 20.8595 10.0438L26.3895 4.5134C26.7648 5.12253 26.9706 5.82076 26.9859 6.53603C27.0011 7.2513 26.8252 7.95768 26.4763 8.58226C26.1274 9.20684 25.6181 9.72698 25.0011 10.089C24.384 10.451 23.6815 10.6418 22.966 10.6416V10.642Z" fill="url(#paint0_linear)"/>
<path d="M20.4498 6.72557C20.4589 7.86904 20.1309 8.98946 19.5073 9.94468C18.8838 10.8999 17.9929 11.6469 16.9476 12.0908C15.9023 12.5348 14.7498 12.6557 13.6363 12.4382C12.5228 12.2208 11.4984 11.6747 10.6931 10.8694C9.88788 10.0641 9.33804 9.03576 9.1134 7.91491C8.88876 6.79405 8.99945 5.63119 9.43138 4.57384C9.86331 3.51649 10.597 2.61232 11.5395 1.97605C12.4819 1.33977 13.5906 1.00007 14.7248 1.00003C16.2367 0.995248 17.6887 1.59546 18.762 2.66892C19.8354 3.74238 20.4424 5.20135 20.4498 6.72557Z" fill="url(#paint1_radial)"/>
<path d="M18.1756 5.03707C18.1756 5.09831 18.1637 5.15896 18.1405 5.21555C18.1173 5.27214 18.0832 5.32355 18.0403 5.36686C17.9973 5.41016 17.9463 5.44451 17.8902 5.46792C17.834 5.49133 17.7739 5.50336 17.7131 5.50331H16.1147C16.0232 5.50363 15.9336 5.47651 15.8574 5.42541C15.7812 5.3743 15.7218 5.30151 15.6867 5.21628C15.6516 5.13105 15.6424 5.03723 15.6603 4.94674C15.6782 4.85624 15.7224 4.77315 15.7872 4.70802L17.0647 3.4186C17.1516 3.33103 17.2694 3.28185 17.3922 3.28185C17.515 3.28185 17.6329 3.33103 17.7197 3.4186C17.8066 3.50616 17.8553 3.62491 17.8553 3.74874C17.8553 3.87257 17.8066 3.99134 17.7197 4.0789L17.2307 4.57156H17.7128C17.7735 4.57146 17.8336 4.58342 17.8897 4.60677C17.9459 4.63012 17.9969 4.66439 18.0399 4.70762C18.0828 4.75085 18.117 4.8022 18.1402 4.85873C18.1635 4.91526 18.1756 4.97586 18.1756 5.03707Z" fill="#422F0D"/>
<path d="M13.649 5.21535C13.6138 5.30052 13.5544 5.37328 13.4782 5.42446C13.4021 5.47564 13.3126 5.50295 13.2211 5.50295H11.6226C11.5 5.50295 11.3824 5.45383 11.2956 5.36639C11.2089 5.27895 11.1602 5.16036 11.1602 5.0367C11.1602 4.91305 11.2089 4.79446 11.2956 4.70702C11.3824 4.61958 11.5 4.57046 11.6226 4.57046H12.1047L11.6161 4.0778C11.5292 3.99024 11.4804 3.87148 11.4804 3.74765C11.4804 3.62382 11.5292 3.50506 11.6161 3.4175C11.7029 3.32994 11.8207 3.28075 11.9435 3.28075C12.0664 3.28075 12.1842 3.32994 12.271 3.4175L13.55 4.70692C13.6146 4.77227 13.6584 4.85547 13.676 4.94598C13.6937 5.0365 13.6842 5.13024 13.649 5.21535Z" fill="#422F0D"/>
<path d="M18.2082 7.55943C18.1295 8.17702 17.8933 8.76346 17.5226 9.26145C17.1518 9.75944 16.6593 10.1519 16.093 10.4006C16.0242 10.0712 15.8451 9.77571 15.5858 9.56365C15.3265 9.35159 15.0028 9.23586 14.6689 9.23586C14.335 9.23586 14.0113 9.35159 13.752 9.56365C13.4927 9.77571 13.3136 10.0712 13.2447 10.4006C12.6786 10.152 12.1861 9.75954 11.8156 9.26151C11.4451 8.76348 11.2092 8.17698 11.1311 7.55943C11.1239 7.50223 11.129 7.44415 11.1458 7.38907C11.1627 7.33398 11.191 7.28314 11.2289 7.23993C11.2667 7.19673 11.3133 7.16215 11.3654 7.13849C11.4176 7.11483 11.4741 7.10264 11.5313 7.10272H17.8094C17.8664 7.10296 17.9227 7.11539 17.9747 7.13917C18.0266 7.16296 18.0729 7.19757 18.1106 7.24073C18.1483 7.28388 18.1765 7.3346 18.1933 7.38954C18.2101 7.44447 18.2152 7.50238 18.2082 7.55943Z" fill="url(#paint2_radial)"/>
<path d="M16.0934 10.3995C15.644 10.5962 15.1592 10.6978 14.6692 10.6978C14.1793 10.6978 13.6945 10.5962 13.2451 10.3995C13.314 10.0701 13.4931 9.7746 13.7524 9.56254C14.0116 9.35049 14.3354 9.23476 14.6692 9.23476C15.0031 9.23476 15.3268 9.35049 15.5861 9.56254C15.8454 9.7746 16.0246 10.0701 16.0934 10.3995Z" fill="#992C20"/>
<path d="M5.72887 1C4.59595 0.999854 3.48845 1.33562 2.54639 1.96483C1.60432 2.59404 0.86999 3.48843 0.436308 4.53492C0.0026252 5.5814 -0.110953 6.73297 0.109924 7.844C0.330801 8.95503 0.876221 9.97562 1.67721 10.7767C2.47819 11.5778 3.4988 12.1234 4.60992 12.3445C5.72103 12.5657 6.87276 12.4524 7.91949 12.0191C8.96623 11.5857 9.86094 10.8517 10.4905 9.90995C11.12 8.96817 11.4561 7.86088 11.4562 6.72811C11.4548 5.20963 10.8509 3.75374 9.77718 2.67987C8.70345 1.606 7.24755 1.00186 5.72887 1ZM3.2595 5.91251C2.74112 5.91251 2.32532 5.37457 2.32532 4.7115C2.32532 4.04843 2.74297 3.51049 3.2595 3.51049C3.77603 3.51049 4.19372 4.04843 4.19372 4.7115C4.19372 5.37457 3.77603 5.91251 3.2595 5.91251ZM8.19819 5.91251C7.67981 5.91251 7.26365 5.37457 7.26365 4.7115C7.26365 4.04843 7.68129 3.51049 8.19819 3.51049C8.71509 3.51049 9.13242 4.04843 9.13242 4.7115C9.13242 5.37457 8.71472 5.91251 8.19819 5.91251Z" fill="url(#paint3_radial)"/>
<path d="M5.72968 10.4503C6.53233 10.4503 7.183 9.61378 7.183 8.58183C7.183 7.54987 6.53233 6.7133 5.72968 6.7133C4.92704 6.7133 4.27637 7.54987 4.27637 8.58183C4.27637 9.61378 4.92704 10.4503 5.72968 10.4503Z" fill="url(#paint4_radial)"/>
<path d="M8.19982 5.9125C8.71577 5.9125 9.13402 5.37479 9.13402 4.71149C9.13402 4.04819 8.71577 3.51048 8.19982 3.51048C7.68388 3.51048 7.26562 4.04819 7.26562 4.71149C7.26562 5.37479 7.68388 5.9125 8.19982 5.9125Z" fill="#422F0D"/>
<path d="M3.26037 5.9125C3.77631 5.9125 4.19457 5.37479 4.19457 4.71149C4.19457 4.04819 3.77631 3.51048 3.26037 3.51048C2.74443 3.51048 2.32617 4.04819 2.32617 4.71149C2.32617 5.37479 2.74443 5.9125 3.26037 5.9125Z" fill="#422F0D"/>
<defs>
<linearGradient id="paint0_linear" x1="27.2078" y1="2.71619" x2="18.6296" y2="10.6067" gradientUnits="userSpaceOnUse">
<stop stop-color="#E85B43"/>
<stop offset="0.221" stop-color="#E6563C"/>
<stop offset="0.532" stop-color="#E1482A"/>
<stop offset="0.896" stop-color="#D9310C"/>
<stop offset="0.949" stop-color="#D82E07"/>
</linearGradient>
<radialGradient id="paint1_radial" cx="0" cy="0" r="1" gradientUnits="userSpaceOnUse" gradientTransform="translate(14.725 6.28695) scale(7.68295 7.74572)">
<stop stop-color="#EAB242"/>
<stop offset="0.362" stop-color="#E9AF41"/>
<stop offset="0.562" stop-color="#E8A73E"/>
<stop offset="0.723" stop-color="#E69939"/>
<stop offset="0.863" stop-color="#E48632"/>
<stop offset="0.949" stop-color="#E2762D"/>
</radialGradient>
<radialGradient id="paint2_radial" cx="0" cy="0" r="1" gradientUnits="userSpaceOnUse" gradientTransform="translate(-478.158 379.468) rotate(90.0568) scale(7.91241 3.78388)">
<stop offset="0.257" stop-color="#160F04"/>
<stop offset="0.577" stop-color="#38270A"/>
<stop offset="0.661" stop-color="#422F0D"/>
</radialGradient>
<radialGradient id="paint3_radial" cx="0" cy="0" r="1" gradientUnits="userSpaceOnUse" gradientTransform="translate(5.72812 6.72737) scale(7.50384 7.50286)">
<stop stop-color="#EAB242"/>
<stop offset="0.362" stop-color="#E9AF41"/>
<stop offset="0.562" stop-color="#E8A73E"/>
<stop offset="0.723" stop-color="#E69939"/>
<stop offset="0.863" stop-color="#E48632"/>
<stop offset="0.949" stop-color="#E2762D"/>
</radialGradient>
<radialGradient id="paint4_radial" cx="0" cy="0" r="1" gradientUnits="userSpaceOnUse" gradientTransform="translate(6.09238 8.9929) scale(2.26893 2.26839)">
<stop offset="0.73" stop-color="#422F0D"/>
<stop offset="0.863" stop-color="#2E2009"/>
<stop offset="1" stop-color="#160F04"/>
</radialGradient>
</defs>
</svg>
