<svg width="55" height="16" viewBox="0 0 55 16" fill="none" xmlns="http://www.w3.org/2000/svg">
<path d="M27.1235 9.02595C26.9691 7.23558 26.029 6.11377 25.1995 5.12432C24.4338 4.20802 23.7685 3.41729 23.7685 2.24985C23.7684 2.20401 23.7541 2.15907 23.7271 2.11994C23.7002 2.08081 23.6616 2.04899 23.6157 2.02794C23.5698 2.0069 23.5182 1.99744 23.4666 2.00059C23.415 2.00375 23.3653 2.01941 23.3231 2.04585C22.039 2.88446 21.107 4.07868 20.6746 5.43956C20.4683 6.27204 20.3708 7.1228 20.3841 7.97504C19.2355 7.75671 18.9751 6.23218 18.9713 6.21596C18.965 6.1769 18.9484 6.1397 18.9228 6.1074C18.8972 6.07509 18.8634 6.0486 18.8241 6.03007C18.7851 6.01131 18.7416 6.00108 18.6972 6.00023C18.6528 5.99937 18.6088 6.00792 18.5689 6.02516C18.5084 6.05118 17.0885 6.69033 17.0072 9.24541C17 9.33025 17 9.4151 17 9.49994C17.0015 10.693 17.5368 11.8369 18.4886 12.6805C19.4403 13.5242 20.7307 13.9987 22.0767 14H22.0916C23.435 13.9952 24.7216 13.5192 25.6702 12.6759C26.6188 11.8326 27.1522 10.6908 27.1538 9.49994C27.1529 9.37513 27.1235 9.02595 27.1235 9.02595ZM22.0762 13.4985C21.6131 13.4847 21.175 13.3088 20.8578 13.0093C20.5406 12.7098 20.3703 12.311 20.3841 11.9004C20.3841 11.871 20.3841 11.8401 20.3841 11.8043C20.3828 11.5316 20.4434 11.2616 20.5623 11.0101C20.6329 11.1804 20.7591 11.3281 20.9249 11.4345C21.0907 11.5408 21.2885 11.6009 21.493 11.6071C21.5301 11.6072 21.5669 11.6009 21.6012 11.5884C21.6356 11.5759 21.6668 11.5576 21.6932 11.5344C21.7195 11.5112 21.7404 11.4836 21.7546 11.4533C21.7689 11.4229 21.7763 11.3903 21.7764 11.3574C21.7628 10.9762 21.7992 10.5948 21.8848 10.2209C21.9904 9.8671 22.1853 9.5392 22.4548 9.26201C22.5872 9.60395 22.7837 9.92366 23.036 10.2077C23.4498 10.6509 23.702 11.195 23.7591 11.7681C23.763 11.8103 23.7663 11.8544 23.7663 11.9C23.7802 12.3104 23.6102 12.7089 23.2935 13.0085C22.9768 13.308 22.5391 13.4842 22.0762 13.4985Z" fill="url(#paint0_linear)"/>
<path d="M23.7668 11.9003C23.7814 12.1052 23.7485 12.3107 23.6701 12.504C23.5917 12.6973 23.4695 12.8743 23.3109 13.024C23.1523 13.1738 22.9608 13.2932 22.7482 13.3748C22.5355 13.4564 22.3063 13.4985 22.0745 13.4985C21.8428 13.4985 21.6136 13.4564 21.4009 13.3748C21.1883 13.2932 20.9968 13.1738 20.8382 13.024C20.6796 12.8743 20.5573 12.6973 20.4789 12.504C20.4005 12.3107 20.3676 12.1052 20.3823 11.9003C20.3823 11.8708 20.3823 11.8399 20.3823 11.8041C20.3811 11.5315 20.4416 11.2614 20.5605 11.01C20.6312 11.1802 20.7575 11.3279 20.9232 11.4342C21.089 11.5405 21.2868 11.6007 21.4913 11.6069C21.5284 11.607 21.5652 11.6007 21.5996 11.5882C21.6339 11.5758 21.6651 11.5574 21.6914 11.5342C21.7177 11.511 21.7386 11.4834 21.7529 11.4531C21.7672 11.4227 21.7745 11.3902 21.7746 11.3573C21.7611 10.976 21.7975 10.5946 21.8831 10.2208C21.9886 9.86694 22.1836 9.53903 22.4532 9.26184C22.5855 9.6038 22.7819 9.92352 23.0342 10.2076C23.4481 10.6507 23.7003 11.1948 23.7574 11.7679C23.7667 11.8105 23.7668 11.8546 23.7668 11.9003Z" fill="url(#paint1_linear)"/>
<path d="M33.37 8.62H35.34V5.05L33.37 8.62ZM36.32 11H35.34V9.47H32.38V8.62L34.73 4.45H36.32V8.62H37.24V9.47H36.32V11ZM38.899 9.93C39.0323 10.0567 39.099 10.2133 39.099 10.4C39.099 10.5867 39.0323 10.7467 38.899 10.88C38.7723 11.0133 38.6157 11.08 38.429 11.08C38.2357 11.08 38.0723 11.0133 37.939 10.88C37.8123 10.7467 37.749 10.5867 37.749 10.4C37.749 10.2133 37.8123 10.0567 37.939 9.93C38.0723 9.79667 38.2357 9.73 38.429 9.73C38.6157 9.73 38.7723 9.79667 38.899 9.93ZM43.9426 11H39.7526V10.19C40.5926 9.57667 41.2992 8.94333 41.8726 8.29C42.4526 7.63 42.7426 7.03 42.7426 6.49C42.7426 6.11 42.6326 5.82 42.4126 5.62C42.1926 5.41333 41.8892 5.31 41.5026 5.31C40.9692 5.31 40.4459 5.51 39.9326 5.91V4.94C40.4126 4.57333 40.9826 4.39 41.6426 4.39C42.2559 4.39 42.7626 4.56333 43.1626 4.91C43.5626 5.25 43.7626 5.73667 43.7626 6.37C43.7626 7.54333 42.8759 8.80333 41.1026 10.15H43.9426V11ZM49.2735 9.26C49.2735 9.81333 49.0602 10.2567 48.6335 10.59C48.2068 10.9233 47.6668 11.09 47.0135 11.09C46.3735 11.09 45.8468 10.93 45.4335 10.61C45.0202 10.2833 44.8135 9.85 44.8135 9.31C44.8135 8.53667 45.1835 8.00667 45.9235 7.72C45.6102 7.58667 45.3635 7.39333 45.1835 7.14C45.0102 6.88667 44.9235 6.59 44.9235 6.25C44.9235 5.66333 45.1268 5.20333 45.5335 4.87C45.9402 4.53667 46.4335 4.37 47.0135 4.37C47.6135 4.37 48.1168 4.53333 48.5235 4.86C48.9302 5.18 49.1335 5.64667 49.1335 6.26C49.1335 6.92 48.8068 7.40333 48.1535 7.71C48.9002 7.96333 49.2735 8.48 49.2735 9.26ZM45.8135 9.27C45.8135 9.55 45.9168 9.78333 46.1235 9.97C46.3302 10.1567 46.6302 10.25 47.0235 10.25C47.4302 10.25 47.7402 10.15 47.9535 9.95C48.1735 9.75 48.2835 9.50333 48.2835 9.21C48.2835 8.91667 48.1768 8.67 47.9635 8.47C47.7502 8.27 47.4368 8.17 47.0235 8.17C46.6235 8.17667 46.3202 8.28667 46.1135 8.5C45.9135 8.70667 45.8135 8.96333 45.8135 9.27ZM45.9235 6.24C45.9235 6.58 46.0268 6.84 46.2335 7.02C46.4468 7.19333 46.7202 7.28 47.0535 7.28C47.3668 7.28 47.6235 7.19 47.8235 7.01C48.0302 6.82333 48.1335 6.56333 48.1335 6.23C48.1335 5.93667 48.0402 5.69333 47.8535 5.5C47.6735 5.30667 47.3935 5.21 47.0135 5.21C46.6735 5.21 46.4068 5.31 46.2135 5.51C46.0202 5.71 45.9235 5.95333 45.9235 6.24ZM52.2544 7.84C52.761 7.84 53.171 7.64333 53.4844 7.25C53.471 6.63667 53.3577 6.15333 53.1444 5.8C52.9377 5.44667 52.6244 5.27 52.2044 5.27C51.8577 5.27 51.581 5.38667 51.3744 5.62C51.1677 5.84667 51.0644 6.15667 51.0644 6.55C51.0644 6.95 51.171 7.26667 51.3844 7.5C51.6044 7.72667 51.8944 7.84 52.2544 7.84ZM54.4544 7.34C54.4544 8.52667 54.201 9.44667 53.6944 10.1C53.1944 10.7533 52.4744 11.08 51.5344 11.08C51.1077 11.08 50.7244 11.0167 50.3844 10.89V9.94C50.7244 10.0933 51.0844 10.17 51.4644 10.17C52.611 10.17 53.271 9.49 53.4444 8.13C53.1244 8.49667 52.6477 8.68 52.0144 8.68C51.4677 8.68 51.001 8.48667 50.6144 8.1C50.2344 7.71333 50.0444 7.20333 50.0444 6.57C50.0444 5.93667 50.2344 5.41333 50.6144 5C50.9944 4.58667 51.511 4.38 52.1644 4.38C52.911 4.38 53.4777 4.65667 53.8644 5.21C54.2577 5.75667 54.4544 6.46667 54.4544 7.34Z" fill="white"/>
<path d="M13.8231 1.5L13.8225 1.5C12.5711 1.49984 11.3477 1.87079 10.307 2.56594C9.26637 3.26108 8.45518 4.24921 7.97611 5.40537C7.49704 6.56152 7.37158 7.83377 7.61557 9.06124C7.85956 10.2887 8.46206 11.4162 9.34687 12.3013C10.2317 13.1863 11.3591 13.7891 12.5865 14.0334C13.8139 14.2777 15.0862 14.1526 16.2424 13.6738C17.3987 13.1951 18.3871 12.3842 19.0825 11.3437C19.7779 10.3032 20.1492 9.07988 20.1493 7.82841V7.82786C20.1477 6.15038 19.4807 4.54206 18.2947 3.35576C17.1087 2.16946 15.5006 1.50206 13.8231 1.5ZM13.8226 4.30591H13.8229L13.8229 4.19995L13.823 4.30591C14.2923 4.30544 14.7546 4.39943 15.1832 4.57992L10.5763 9.18682C10.4142 8.80073 10.3216 8.38719 10.3047 7.9654C10.2794 7.33209 10.4255 6.70369 10.7278 6.1466C11.03 5.5895 11.4772 5.12438 12.0219 4.80039C12.5666 4.4764 13.1887 4.30556 13.8225 4.30591H13.8226ZM13.8226 11.3485L13.7667 11.3485C13.3521 11.3423 12.9435 11.2624 12.5596 11.1142L17.1085 6.56488C17.254 6.9431 17.3337 7.34518 17.3424 7.75361C17.3558 8.37991 17.2018 8.99843 16.8963 9.54532C16.5907 10.0922 16.1448 10.5477 15.6045 10.8646C15.0642 11.1816 14.449 11.3487 13.8226 11.3485Z" fill="url(#paint2_linear)" stroke="#303030"/>
<ellipse cx="7" cy="7.5" rx="6" ry="6.5" fill="#2C2C2C" stroke="#303030"/>
<path d="M6.72575 2C5.59345 1.99985 4.48655 2.33548 3.545 2.96442C2.60345 3.59337 1.86952 4.4874 1.43607 5.53345C1.00262 6.5795 0.889108 7.73059 1.10986 8.84115C1.33062 9.95172 1.87574 10.9719 2.67629 11.7726C3.47684 12.5734 4.49689 13.1188 5.6074 13.3398C6.71791 13.5609 7.86902 13.4476 8.91518 13.0145C9.96134 12.5813 10.8556 11.8476 11.4848 10.9062C12.1139 9.96485 12.4499 8.85803 12.45 7.72573C12.4485 6.20788 11.845 4.7526 10.7719 3.67917C9.69871 2.60575 8.2436 2.00186 6.72575 2ZM4.25772 6.91047C3.73962 6.91047 3.32405 6.37275 3.32405 5.70996C3.32405 5.04716 3.74147 4.50945 4.25772 4.50945C4.77397 4.50945 5.19143 5.04716 5.19143 5.70996C5.19143 6.37275 4.77397 6.91047 4.25772 6.91047ZM9.19372 6.91047C8.67563 6.91047 8.26006 6.37275 8.26006 5.70996C8.26006 5.04716 8.67748 4.50945 9.19372 4.50945C9.70997 4.50945 10.1274 5.04716 10.1274 5.70996C10.1274 6.37275 9.70997 6.91047 9.19372 6.91047Z" fill="url(#paint3_radial)"/>
<path d="M10.1349 10.7259C10.0253 10.7828 9.8975 10.794 9.7796 10.7569C9.6617 10.7199 9.56328 10.6377 9.50584 10.5283C9.24045 10.0206 8.84107 9.59537 8.35109 9.29864C7.86111 9.0019 7.29926 8.84503 6.72643 8.84503C6.15361 8.84503 5.5917 9.0019 5.10173 9.29864C4.61175 9.59537 4.21242 10.0206 3.94702 10.5283C3.91864 10.5827 3.87981 10.6309 3.83277 10.6704C3.78573 10.7098 3.73139 10.7395 3.67285 10.7579C3.61431 10.7763 3.55269 10.783 3.49157 10.7776C3.43044 10.7722 3.37097 10.7548 3.31656 10.7264C3.26216 10.6981 3.21389 10.6592 3.17449 10.6122C3.13508 10.5652 3.10534 10.5108 3.08694 10.4523C3.06854 10.3937 3.06184 10.3321 3.06724 10.271C3.07264 10.2099 3.09004 10.1504 3.11843 10.096C3.46294 9.43726 3.98123 8.88542 4.61714 8.50037C5.25305 8.11531 5.98226 7.91174 6.72566 7.91174C7.46906 7.91174 8.19828 8.11531 8.83419 8.50037C9.4701 8.88542 9.98843 9.43726 10.3329 10.096C10.3896 10.2059 10.4005 10.3337 10.3634 10.4517C10.3264 10.5696 10.2443 10.6681 10.1349 10.7259Z" fill="url(#paint4_radial)"/>
<path d="M9.19443 6.91042C9.71009 6.91042 10.1281 6.37293 10.1281 5.70991C10.1281 5.04689 9.71009 4.5094 9.19443 4.5094C8.67877 4.5094 8.26074 5.04689 8.26074 5.70991C8.26074 6.37293 8.67877 6.91042 9.19443 6.91042Z" fill="#422F0D"/>
<path d="M4.25791 6.91042C4.77357 6.91042 5.19159 6.37293 5.19159 5.70991C5.19159 5.04689 4.77357 4.5094 4.25791 4.5094C3.74224 4.5094 3.32422 5.04689 3.32422 5.70991C3.32422 6.37293 3.74224 6.91042 4.25791 6.91042Z" fill="#422F0D"/>
<path d="M9.64145 8.1532L9.15664 7.35089C9.15224 7.34336 9.14595 7.33713 9.13839 7.33279C9.13083 7.32845 9.12226 7.32617 9.11354 7.32617C9.10483 7.32617 9.09626 7.32845 9.0887 7.33279C9.08113 7.33713 9.07481 7.34336 9.0704 7.35089L8.61193 8.15801C8.56106 8.24084 8.53412 8.33615 8.53418 8.43334C8.53418 8.59156 8.59704 8.74329 8.70892 8.85517C8.82079 8.96704 8.97254 9.0299 9.13076 9.0299C9.28897 9.0299 9.44068 8.96704 9.55255 8.85517C9.66443 8.74329 9.72729 8.59156 9.72729 8.43334C9.72715 8.33316 9.69729 8.23527 9.64145 8.15209V8.1532Z" fill="url(#paint5_radial)"/>
<defs>
<linearGradient id="paint0_linear" x1="22.0769" y1="6.08" x2="22.0769" y2="18.02" gradientUnits="userSpaceOnUse">
<stop stop-color="#EF6452"/>
<stop offset="0.252" stop-color="#EA5D4D"/>
<stop offset="0.607" stop-color="#DD4B42"/>
<stop offset="0.949" stop-color="#CC3333"/>
</linearGradient>
<linearGradient id="paint1_linear" x1="22.0745" y1="10.948" x2="22.0745" y2="13.9476" gradientUnits="userSpaceOnUse">
<stop stop-color="#FF954D"/>
<stop offset="0.183" stop-color="#FC8E4D"/>
<stop offset="0.441" stop-color="#F47C4D"/>
<stop offset="0.741" stop-color="#E75E4D"/>
<stop offset="0.949" stop-color="#DD454D"/>
</linearGradient>
<linearGradient id="paint2_linear" x1="18.0642" y1="3.9231" x2="9.486" y2="11.8137" gradientUnits="userSpaceOnUse">
<stop stop-color="#E85B43"/>
<stop offset="0.221" stop-color="#E6563C"/>
<stop offset="0.532" stop-color="#E1482A"/>
<stop offset="0.896" stop-color="#D9310C"/>
<stop offset="0.949" stop-color="#D82E07"/>
</linearGradient>
<radialGradient id="paint3_radial" cx="0" cy="0" r="1" gradientUnits="userSpaceOnUse" gradientTransform="translate(6.725 7.72499) scale(7.49975)">
<stop stop-color="#EAB242"/>
<stop offset="0.362" stop-color="#E9AF41"/>
<stop offset="0.562" stop-color="#E8A73E"/>
<stop offset="0.723" stop-color="#E69939"/>
<stop offset="0.863" stop-color="#E48632"/>
<stop offset="0.949" stop-color="#E2762D"/>
</radialGradient>
<radialGradient id="paint4_radial" cx="0" cy="0" r="1" gradientUnits="userSpaceOnUse" gradientTransform="translate(-492.673 426.795) rotate(89.3125) scale(10.4312 1.76274)">
<stop offset="0.778" stop-color="#422F0D"/>
<stop offset="0.842" stop-color="#2F2109"/>
<stop offset="0.913" stop-color="#160F04"/>
</radialGradient>
<radialGradient id="paint5_radial" cx="0" cy="0" r="1" gradientUnits="userSpaceOnUse" gradientTransform="translate(218.697 7.85944) scale(1.17559)">
<stop offset="0.665" stop-color="#43BAE8"/>
<stop offset="0.786" stop-color="#37ADD7"/>
<stop offset="0.949" stop-color="#2497BA"/>
</radialGradient>
</defs>
</svg>
