<svg width="14" height="13" viewBox="0 0 14 13" fill="none" xmlns="http://www.w3.org/2000/svg">
<path d="M13 4.25091C13 7.58573 7.74019 11.6197 7.51511 11.7903C7.41027 11.9119 7.21034 12 6.99922 12C6.89562 12.0003 6.7931 11.9789 6.69825 11.9372C6.60339 11.8956 6.51828 11.8346 6.44839 11.7581C6.25958 11.6198 1 7.58573 1 4.25091C1 2.45836 2.45818 1 4.24919 1C4.79834 0.99939 5.33868 1.13812 5.81963 1.4032C6.30058 1.66828 6.70643 2.05105 6.9992 2.51569C7.29196 2.05105 7.69781 1.66828 8.17876 1.4032C8.65971 1.13812 9.20004 0.99939 9.7492 1C11.5418 0.999981 13 2.45836 13 4.25091Z" fill="url(#paint0_linear)" stroke="#2C2C2C"/>
<defs>
<linearGradient id="paint0_linear" x1="1" y1="6.5" x2="13" y2="6.5" gradientUnits="userSpaceOnUse">
<stop stop-color="#FE6E6F"/>
<stop offset="0.284" stop-color="#F86769"/>
<stop offset="0.683" stop-color="#E9555A"/>
<stop offset="0.949" stop-color="#DD454D"/>
</linearGradient>
</defs>
</svg>
