<svg width="29" height="15" viewBox="0 0 29 15" fill="none" xmlns="http://www.w3.org/2000/svg">
<path d="M22.7289 2.20691C21.596 2.20676 20.4885 2.54252 19.5464 3.17173C18.6043 3.80094 17.87 4.69534 17.4363 5.74183C17.0026 6.78831 16.889 7.93988 17.1099 9.05091C17.3308 10.1619 17.8762 11.1825 18.6772 11.9836C19.4782 12.7847 20.4988 13.3303 21.6099 13.5515C22.721 13.7726 23.8728 13.6593 24.9195 13.226C25.9662 12.7926 26.8609 12.0586 27.4905 11.1169C28.12 10.1751 28.4561 9.06779 28.4562 7.93502C28.4548 6.41654 27.8509 4.96065 26.7772 3.88678C25.7035 2.81291 24.2475 2.20877 22.7289 2.20691ZM20.2595 7.11942C19.7411 7.11942 19.3253 6.58148 19.3253 5.91841C19.3253 5.25534 19.743 4.7174 20.2595 4.7174C20.776 4.7174 21.1937 5.25534 21.1937 5.91841C21.1937 6.58148 20.776 7.11942 20.2595 7.11942ZM25.1982 7.11942C24.6798 7.11942 24.2637 6.58148 24.2637 5.91841C24.2637 5.25534 24.6813 4.7174 25.1982 4.7174C25.7151 4.7174 26.1324 5.25534 26.1324 5.91841C26.1324 6.58148 25.7147 7.11942 25.1982 7.11942Z" fill="url(#paint0_radial)"/>
<path d="M22.7297 11.6572C23.5323 11.6572 24.183 10.8206 24.183 9.78869C24.183 8.75673 23.5323 7.92017 22.7297 7.92017C21.927 7.92017 21.2764 8.75673 21.2764 9.78869C21.2764 10.8206 21.927 11.6572 22.7297 11.6572Z" fill="url(#paint1_radial)"/>
<path d="M25.1998 7.11942C25.7158 7.11942 26.134 6.58171 26.134 5.91841C26.134 5.25512 25.7158 4.71741 25.1998 4.71741C24.6839 4.71741 24.2656 5.25512 24.2656 5.91841C24.2656 6.58171 24.6839 7.11942 25.1998 7.11942Z" fill="#422F0D"/>
<path d="M20.2604 7.11942C20.7763 7.11942 21.1946 6.58171 21.1946 5.91841C21.1946 5.25512 20.7763 4.71741 20.2604 4.71741C19.7444 4.71741 19.3262 5.25512 19.3262 5.91841C19.3262 6.58171 19.7444 7.11942 20.2604 7.11942Z" fill="#422F0D"/>
<path d="M20 5.54645C20 9.18443 14.3019 13.5851 14.058 13.7712C13.9445 13.9039 13.7279 14 13.4992 14C13.3869 14.0003 13.2759 13.977 13.1731 13.9315C13.0703 13.8861 12.9781 13.8195 12.9024 13.7361C12.6979 13.5852 7 9.18443 7 5.54645C7 3.59093 8.5797 2 10.52 2C11.1149 1.99933 11.7002 2.15067 12.2213 2.43985C12.7423 2.72903 13.182 3.1466 13.4991 3.65348C13.8163 3.1466 14.256 2.72903 14.777 2.43985C15.298 2.15067 15.8834 1.99933 16.4783 2C18.4202 1.99998 20 3.59093 20 5.54645Z" fill="url(#paint2_linear)" stroke="#2C2C2C"/>
<path d="M12.4654 8.56954L11.9672 8.61145L12.4654 8.56955L12.4654 8.56958L12.4654 8.56966L12.4655 8.56992L12.4655 8.57085L12.4658 8.57427L12.4669 8.58701L12.4706 8.63291C12.4736 8.67131 12.4777 8.72409 12.4819 8.78138C12.4897 8.88895 12.4993 9.03445 12.4999 9.12153L12.4999 9.12559C12.498 10.5685 11.8512 11.938 10.725 12.9393C9.6006 13.9388 8.08709 14.4944 6.51763 14.5L6.51585 14.5L6.49976 14.5H6.49928C4.92685 14.4985 3.40899 13.9446 2.28095 12.9447C1.15098 11.9431 0.501774 10.5712 0.5 9.12555L0.5 9.12494L0.499999 9.117C0.499991 9.03346 0.49998 8.92893 0.508483 8.82069C0.557669 7.34653 0.995121 6.38193 1.4665 5.77178C1.93512 5.1652 2.41334 4.93948 2.5018 4.90138M12.4654 8.56954L3.13557 5.56729M12.4654 8.56954L12.4653 8.56848C12.2844 6.47086 11.178 5.15127 10.2844 4.08549L10.2665 4.06406L9.8828 4.38468L10.266 4.06345L10.2661 4.06358M12.4654 8.56954L10.2661 4.06358M2.5018 4.90138L2.69959 5.36059L2.50132 4.90158C2.50148 4.90152 2.50164 4.90145 2.5018 4.90138ZM2.5018 4.90138C2.61194 4.85389 2.73047 4.83141 2.8482 4.83367C2.96611 4.83593 3.08407 4.86303 3.1927 4.91524L2.97614 5.3659L3.18939 4.91366C3.29793 4.96484 3.39696 5.04069 3.47503 5.13931C3.55246 5.23709 3.6068 5.3544 3.62838 5.48277M3.62838 5.48277C3.62716 5.47676 3.62611 5.47154 3.62523 5.46714C3.62379 5.45994 3.6228 5.45496 3.62219 5.45239L3.13557 5.56729M3.62838 5.48277C3.62866 5.48441 3.62893 5.48605 3.62919 5.48769L3.13557 5.56729M3.62838 5.48277C3.64825 5.58033 3.71504 5.88479 3.88127 6.21102C3.9657 6.37672 4.06569 6.52814 4.18396 6.65302M3.13557 5.56729C3.13568 5.56774 3.13596 5.56924 3.13644 5.57175C3.15184 5.65294 3.36737 6.78902 4.16481 7.27887C4.16534 7.07004 4.17174 6.86136 4.18396 6.65302M4.18396 6.65302C4.22437 5.96451 4.3285 5.27981 4.49549 4.60593L4.49938 4.59022L4.50428 4.57478C5.01029 2.98225 6.09667 1.59752 7.57661 0.631036L7.58468 0.625768L7.58473 0.625847C7.70392 0.551241 7.83893 0.509901 7.97489 0.501578C8.11087 0.493255 8.24896 0.517857 8.37522 0.575686C8.50161 0.633576 8.61588 0.724858 8.69955 0.846374C8.78384 0.968788 8.83214 1.11531 8.83251 1.26948L8.83251 1.27067C8.83251 2.32567 9.41593 3.04624 10.2661 4.06358M4.18396 6.65302C4.32039 6.79707 4.48114 6.90583 4.67042 6.9605C4.69487 6.20915 4.79871 5.46109 4.98081 4.72619L10.2661 4.06358M4.67884 11.3888C4.70362 11.1732 4.76423 10.9616 4.85913 10.761C4.93168 10.9359 5.05849 11.0889 5.22464 11.2025C5.21496 11.2358 5.20648 11.2694 5.19919 11.303C5.17662 11.4073 5.16555 11.5131 5.16605 11.6189L5.16606 11.6213L5.16606 11.6215V11.6217V11.622V11.6222V11.6224V11.6227V11.6229V11.6231V11.6233V11.6236V11.6238V11.624V11.6242V11.6245V11.6247V11.6249V11.6251V11.6254V11.6256V11.6258V11.626V11.6263V11.6265V11.6267V11.6269V11.6272V11.6274V11.6276V11.6278V11.6281V11.6283V11.6285V11.6287V11.629V11.6292V11.6294V11.6296V11.6298V11.6301V11.6303V11.6305V11.6307V11.631V11.6312V11.6314V11.6316V11.6319V11.6321V11.6323V11.6325V11.6327V11.633V11.6332V11.6334V11.6336V11.6338V11.6341V11.6343V11.6345V11.6347V11.6349V11.6352V11.6354V11.6356V11.6358V11.636V11.6363V11.6365V11.6367V11.6369V11.6371V11.6374V11.6376V11.6378V11.638V11.6382V11.6385V11.6387V11.6389V11.6391V11.6393V11.6395V11.6398V11.64V11.6402V11.6404V11.6406V11.6409V11.6411V11.6413V11.6415V11.6417V11.6419V11.6422V11.6424V11.6426V11.6428V11.643V11.6432V11.6435V11.6437V11.6439V11.6441V11.6443V11.6445V11.6447V11.645V11.6452V11.6454V11.6456V11.6458V11.646V11.6463V11.6465V11.6467V11.6469V11.6471V11.6473V11.6475V11.6478V11.648V11.6482V11.6484V11.6486V11.6488V11.649V11.6492V11.6495V11.6497V11.6499V11.6501V11.6503V11.6505V11.6507V11.651V11.6512V11.6514V11.6516V11.6518V11.652V11.6522V11.6524V11.6526V11.6529V11.6531V11.6533V11.6535V11.6537V11.6539V11.6541V11.6543V11.6545V11.6548V11.655V11.6552V11.6554V11.6556V11.6558V11.656V11.6562V11.6564V11.6567V11.6569V11.6571V11.6573V11.6575V11.6577V11.6579V11.6581V11.6583V11.6585V11.6587V11.659V11.6592V11.6594V11.6596V11.6598V11.66V11.6602V11.6604V11.6606V11.6608V11.661V11.6612V11.6615V11.6617V11.6619V11.6621V11.6623V11.6625V11.6627V11.6629V11.6631V11.6633V11.6635V11.6637V11.6639V11.6641V11.6644V11.6646V11.6648V11.665V11.6652V11.6654V11.6656V11.6658V11.666V11.6662V11.6664V11.6666V11.6668V11.667V11.6672V11.6674V11.6676V11.6678V11.6681V11.6683V11.6685V11.6687V11.6689V11.6691V11.6693V11.6695V11.6697V11.6699V11.6701V11.6703V11.6705V11.6707V11.6709V11.6711V11.6713V11.6715V11.6717V11.6719V11.6721V11.6723V11.6725V11.6727V11.6729V11.6731V11.6734V11.6736V11.6738V11.674V11.6742V11.6744V11.6746V11.6748V11.675V11.6752V11.6754V11.6756V11.6758V11.676V11.6762V11.6764V11.6766V11.6768V11.677V11.6772V11.6774V11.6776V11.6778V11.678V11.6782V11.6784V11.6786V11.6788V11.679V11.6792V11.6794V11.6796V11.6798V11.68V11.6802V11.6804V11.6806V11.6808V11.681V11.6812V11.6814V11.6816V11.6818V11.682V11.6822V11.6824V11.6826V11.6828V11.683V11.6832V11.6834V11.6836V11.6838V11.684V11.6842V11.6844V11.6846V11.6848V11.685V11.6852V11.6854V11.6856V11.6858V11.686V11.6862V11.6864V11.6866V11.6868V11.687V11.6872V11.6874V11.6875V11.6877V11.6879V11.6881V11.6883V11.6885V11.6887V11.6889V11.6891V11.6893V11.6895V11.6897V11.6899V11.6901V11.6903V11.6905V11.6907V11.6909V11.6911V11.6913V11.6915V11.6917V11.6919V11.6921V11.6923V11.6925V11.6927V11.6929V11.693V11.6932V11.6934V11.6936V11.6938V11.694V11.6942V11.6944V11.6946V11.6948V11.695V11.6952V11.6954V11.6956V11.6958V11.696V11.6962V11.6964V11.6966V11.6967V11.6969V11.6971V11.6973V11.6975V11.6977V11.6979V11.6981V11.6983V11.6985V11.6987V11.6989V11.6991V11.6993V11.6995V11.6997V11.6998V11.7V11.7002V11.7004V11.7006V11.7008V11.701V11.7012V11.7014V11.7016V11.7018V11.702V11.7022V11.7024V11.7025V11.7027V11.7029V11.7031V11.7033V11.7035V11.7037V11.7039V11.7041V11.7043V11.7045V11.7047V11.7049V11.705V11.7052V11.7054V11.7056V11.7058V11.706V11.7062V11.7064V11.7066V11.7068V11.707V11.7071V11.7073V11.7075V11.7077V11.7079V11.7081V11.7083V11.7085V11.7087V11.7089V11.7091V11.7092V11.7094V11.7096V11.7098V11.71V11.7102V11.7104V11.7106V11.7108V11.711V11.7111V11.7113V11.7115V11.7117V11.7119V11.7121V11.7123V11.7125V11.7127V11.7129V11.713V11.7132V11.7134V11.7136V11.7138V11.714V11.7142V11.7144V11.7146V11.7148V11.7149V11.7151V11.7153V11.7155V11.7157V11.7159V11.7161V11.7163V11.7165V11.7166V11.7168V11.717V11.7172V11.7174V11.7176V11.7178V11.718V11.7181V11.7183V11.7185V11.7187V11.7189V11.7191V11.7193V11.7195V11.7197V11.7198V11.72V11.7202V11.7204V11.7206V11.7208V11.721V11.7212V11.7213V11.7215V11.7217V11.7219V11.7221V11.7223V11.7225V11.7227V11.7228V11.723V11.7232V11.7234V11.7236V11.7238V11.724V11.7242V11.7243V11.7245V11.7247V11.7249V11.7251V11.7253V11.7255V11.7338L5.16578 11.7422C5.16576 11.7426 5.16575 11.743 5.16574 11.7433C5.16489 11.7429 5.16405 11.7425 5.1632 11.7421C5.1518 11.7367 5.14046 11.7311 5.12918 11.7255C5.07882 11.7001 5.02971 11.6721 4.9821 11.6415C4.97175 11.6349 4.96148 11.6282 4.9513 11.6213C4.95064 11.6208 4.94997 11.6204 4.94931 11.6199C4.85034 11.553 4.75947 11.4755 4.67884 11.3888ZM7.82443 11.6272C7.82449 11.628 7.82456 11.6287 7.82463 11.6295C7.8247 11.6302 7.82478 11.6309 7.82485 11.6317L8.32238 11.5821L7.82443 11.6272ZM6.55869 9.31482C6.64337 9.49149 6.74195 9.66195 6.85347 9.82499C6.92664 9.65884 7.02437 9.50001 7.14527 9.35281C7.05305 9.19673 6.97415 9.0344 6.90941 8.86717C6.7748 9.00559 6.65737 9.15568 6.55869 9.31482ZM6.77104 10.0489C6.77254 10.0439 6.77405 10.0389 6.77559 10.0339C6.77681 10.0284 6.77805 10.023 6.77929 10.0176L6.2919 9.90599L6.77104 10.0489Z" fill="url(#paint3_linear)" stroke="#2C2C2C"/>
<path d="M11.9672 8.61145C11.7999 6.67188 10.7814 5.45659 9.8828 4.38468C9.05328 3.39202 8.33251 2.53539 8.33251 1.27067C8.33239 1.22101 8.31692 1.17233 8.28773 1.12993C8.25854 1.08754 8.21678 1.05307 8.16701 1.03027C8.11723 1.00747 8.06134 0.997223 8.00544 1.00064C7.94955 1.00407 7.89577 1.02103 7.85001 1.04967C6.45888 1.95816 5.44924 3.2519 4.98081 4.72619C4.75734 5.62804 4.65173 6.5497 4.66606 7.47296C3.42178 7.23644 3.13972 5.58486 3.13557 5.56729C3.12875 5.52497 3.11074 5.48467 3.08303 5.44968C3.05532 5.41468 3.01872 5.38598 2.97614 5.3659C2.93385 5.34558 2.88669 5.3345 2.8386 5.33358C2.79051 5.33265 2.74283 5.34191 2.69959 5.36059C2.63415 5.38878 1.09584 6.08119 1.00782 8.8492C0.999985 8.94111 1 9.03302 1 9.12494C1.00159 10.4174 1.58157 11.6566 2.61262 12.5706C3.64367 13.4845 5.04163 13.9986 6.49976 14H6.51585C7.97123 13.9948 9.36511 13.4791 10.3928 12.5656C11.4204 11.652 11.9982 10.415 11.9999 9.12494C11.999 8.98972 11.9672 8.61145 11.9672 8.61145ZM6.49926 13.4567C5.99749 13.4418 5.52287 13.2512 5.17928 12.9267C4.83568 12.6022 4.65115 12.1703 4.66606 11.7255C4.66606 11.6936 4.66606 11.6601 4.66606 11.6213C4.66465 11.3259 4.7303 11.0334 4.85913 10.761C4.93561 10.9454 5.0724 11.1055 5.25202 11.2207C5.43163 11.3358 5.64589 11.4009 5.86745 11.4076C5.90765 11.4078 5.94749 11.4009 5.98469 11.3874C6.02189 11.3739 6.05575 11.354 6.08426 11.3289C6.11277 11.3038 6.1354 11.2739 6.15087 11.241C6.16633 11.2081 6.17432 11.1729 6.17438 11.1372C6.15974 10.7242 6.19918 10.311 6.2919 9.90599C6.40622 9.52269 6.61737 9.16746 6.90941 8.86717C7.05282 9.23761 7.26568 9.58397 7.53897 9.89169C7.98732 10.3718 8.26051 10.9613 8.32238 11.5821C8.32653 11.6278 8.3302 11.6756 8.3302 11.7251C8.34525 12.1696 8.16106 12.6014 7.81794 12.9259C7.47482 13.2504 7.0007 13.4412 6.49926 13.4567Z" fill="url(#paint4_linear)"/>
<path d="M8.33035 11.7252C8.34624 11.9473 8.31059 12.1699 8.22566 12.3793C8.14072 12.5887 8.00827 12.7804 7.83648 12.9427C7.66469 13.1049 7.45721 13.2342 7.22684 13.3226C6.99647 13.411 6.74812 13.4566 6.49709 13.4566C6.24607 13.4566 5.99772 13.411 5.76735 13.3226C5.53698 13.2342 5.3295 13.1049 5.15771 12.9427C4.98592 12.7804 4.85347 12.5887 4.76853 12.3793C4.6836 12.1699 4.64794 11.9473 4.66384 11.7252C4.66384 11.6934 4.66384 11.6599 4.66384 11.6211C4.66249 11.3257 4.72813 11.0332 4.85691 10.7608C4.93345 10.9452 5.07026 11.1052 5.24985 11.2204C5.42945 11.3355 5.64375 11.4007 5.86529 11.4074C5.90549 11.4076 5.94533 11.4007 5.98253 11.3872C6.01973 11.3737 6.05353 11.3538 6.08204 11.3287C6.11055 11.3035 6.13318 11.2737 6.14865 11.2408C6.16412 11.2079 6.1721 11.1726 6.17216 11.137C6.1575 10.7239 6.19694 10.3108 6.28968 9.90576C6.404 9.52246 6.61521 9.16723 6.90725 8.86694C7.05062 9.2374 7.26342 9.58376 7.53675 9.89146C7.9851 10.3715 8.25829 10.961 8.32017 11.5818C8.3303 11.628 8.33035 11.6758 8.33035 11.7252Z" fill="url(#paint5_linear)"/>
<defs>
<radialGradient id="paint0_radial" cx="0" cy="0" r="1" gradientUnits="userSpaceOnUse" gradientTransform="translate(22.7281 7.93428) scale(7.50384 7.50286)">
<stop stop-color="#EAB242"/>
<stop offset="0.362" stop-color="#E9AF41"/>
<stop offset="0.562" stop-color="#E8A73E"/>
<stop offset="0.723" stop-color="#E69939"/>
<stop offset="0.863" stop-color="#E48632"/>
<stop offset="0.949" stop-color="#E2762D"/>
</radialGradient>
<radialGradient id="paint1_radial" cx="0" cy="0" r="1" gradientUnits="userSpaceOnUse" gradientTransform="translate(23.0924 10.1998) scale(2.26893 2.26839)">
<stop offset="0.73" stop-color="#422F0D"/>
<stop offset="0.863" stop-color="#2E2009"/>
<stop offset="1" stop-color="#160F04"/>
</radialGradient>
<linearGradient id="paint2_linear" x1="7" y1="8" x2="20" y2="8" gradientUnits="userSpaceOnUse">
<stop stop-color="#FE6E6F"/>
<stop offset="0.284" stop-color="#F86769"/>
<stop offset="0.683" stop-color="#E9555A"/>
<stop offset="0.949" stop-color="#DD454D"/>
</linearGradient>
<linearGradient id="paint3_linear" x1="6.49996" y1="5.42" x2="6.49996" y2="18.355" gradientUnits="userSpaceOnUse">
<stop stop-color="#EF6452"/>
<stop offset="0.252" stop-color="#EA5D4D"/>
<stop offset="0.607" stop-color="#DD4B42"/>
<stop offset="0.949" stop-color="#CC3333"/>
</linearGradient>
<linearGradient id="paint4_linear" x1="6.49996" y1="5.42" x2="6.49996" y2="18.355" gradientUnits="userSpaceOnUse">
<stop stop-color="#EF6452"/>
<stop offset="0.252" stop-color="#EA5D4D"/>
<stop offset="0.607" stop-color="#DD4B42"/>
<stop offset="0.949" stop-color="#CC3333"/>
</linearGradient>
<linearGradient id="paint5_linear" x1="6.49709" y1="10.6936" x2="6.49709" y2="13.9431" gradientUnits="userSpaceOnUse">
<stop stop-color="#FF954D"/>
<stop offset="0.183" stop-color="#FC8E4D"/>
<stop offset="0.441" stop-color="#F47C4D"/>
<stop offset="0.741" stop-color="#E75E4D"/>
<stop offset="0.949" stop-color="#DD454D"/>
</linearGradient>
</defs>
</svg>
