<svg width="29" height="15" viewBox="0 0 29 15" fill="none" xmlns="http://www.w3.org/2000/svg">
<path d="M28 5.25091C28 8.58573 22.7402 12.6197 22.5151 12.7903C22.4103 12.9119 22.2103 13 21.9992 13C21.8956 13.0003 21.7931 12.9789 21.6982 12.9372C21.6034 12.8956 21.5183 12.8346 21.4484 12.7581C21.2596 12.6198 16 8.58573 16 5.25091C16 3.45836 17.4582 2 19.2492 2C19.7983 1.99939 20.3387 2.13812 20.8196 2.4032C21.3006 2.66828 21.7064 3.05105 21.9992 3.51569C22.292 3.05105 22.6978 2.66828 23.1788 2.4032C23.6597 2.13812 24.2 1.99939 24.7492 2C26.5418 1.99998 28 3.45836 28 5.25091Z" fill="url(#paint0_linear)" stroke="#2C2C2C"/>
<path d="M19.4996 4.70591L19.4991 4.7053C19.4813 4.68396 19.4634 4.66261 19.4456 4.64124C18.7253 3.78004 17.982 2.89123 17.8524 1.6542C16.6962 2.48651 15.8644 3.60846 15.4622 4.86232C15.2517 5.7175 15.1524 6.59074 15.166 7.4652L15.1755 8.07875L14.5727 7.96416C13.7286 7.80372 13.2467 7.16822 12.9903 6.66502C12.8502 6.39014 12.7612 6.12261 12.7093 5.93622C12.5892 6.02373 12.4254 6.16627 12.2578 6.38314C11.923 6.81651 11.5485 7.57836 11.5076 8.86509L11.5071 8.87839L11.506 8.89166C11.5003 8.95884 11.5 9.02944 11.5 9.12494H11M19.4996 4.70591L14.6788 11.3888C14.67 11.4659 14.6657 11.5435 14.6661 11.6213H14.1661V11.6215V11.6217V11.622V11.6222V11.6224V11.6224V11.6227V11.6229V11.6231V11.6233V11.6236V11.6238V11.624V11.6242V11.6245V11.6247V11.6249V11.6251V11.6254V11.6256V11.6258V11.626V11.6263V11.6265V11.6267V11.6269V11.6272V11.6274V11.6276V11.6278V11.6281V11.6283V11.6285V11.6287V11.629V11.6292V11.6294V11.6296V11.6298V11.6301V11.6303V11.6305V11.6307V11.631V11.6312V11.6314V11.6316V11.6319V11.6321V11.6323V11.6325V11.6327V11.633V11.6332V11.6334V11.6336V11.6338V11.6341V11.6343V11.6345V11.6347V11.6349V11.6352V11.6354V11.6356V11.6358V11.636V11.6363V11.6365V11.6367V11.6369V11.6371V11.6374V11.6376V11.6378V11.638V11.6382V11.6385V11.6387V11.6389V11.6391V11.6393V11.6395V11.6398V11.64V11.6402V11.6404V11.6406V11.6409V11.6411V11.6413V11.6415V11.6417V11.6419V11.6422V11.6424V11.6426V11.6428V11.643V11.6432V11.6435V11.6437V11.6439V11.6441V11.6443V11.6445V11.6447V11.645V11.6452V11.6454V11.6456V11.6458V11.646V11.6463V11.6465V11.6467V11.6469V11.6471V11.6473V11.6475V11.6478V11.648V11.6482V11.6484V11.6486V11.6488V11.649V11.6492V11.6495V11.6497V11.6499V11.6501V11.6503V11.6505V11.6507V11.651V11.6512V11.6514V11.6516V11.6518V11.652V11.6522V11.6524V11.6526V11.6529V11.6531V11.6533V11.6535V11.6537V11.6539V11.6541V11.6543V11.6545V11.6548V11.655V11.6552V11.6554V11.6556V11.6558V11.656V11.6562V11.6564V11.6567V11.6569V11.6571V11.6573V11.6575V11.6577V11.6579V11.6581V11.6583V11.6585V11.6587V11.659V11.6592V11.6594V11.6596V11.6598V11.66V11.6602V11.6604V11.6606V11.6608V11.661V11.6612V11.6615V11.6617V11.6619V11.6621V11.6623V11.6625V11.6627V11.6629V11.6631V11.6633V11.6635V11.6637V11.6639V11.6641V11.6644V11.6646V11.6648V11.665V11.6652V11.6654V11.6656V11.6658V11.666V11.6662V11.6664V11.6666V11.6668V11.667V11.6672V11.6674V11.6676V11.6678V11.6681V11.6683V11.6685V11.6687V11.6689V11.6691V11.6693V11.6695V11.6697V11.6699V11.6701V11.6703V11.6705V11.6707V11.6709V11.6711V11.6713V11.6715V11.6717V11.6719V11.6721V11.6723V11.6725V11.6727V11.6729V11.6731V11.6734V11.6736V11.6738V11.674V11.6742V11.6744V11.6746V11.6748V11.675V11.6752V11.6754V11.6756V11.6758V11.676V11.6762V11.6764V11.6766V11.6768V11.677V11.6772V11.6774V11.6776V11.6778V11.678V11.6782V11.6784V11.6786V11.6788V11.679V11.6792V11.6794V11.6796V11.6798V11.68V11.6802V11.6804V11.6806V11.6808V11.681V11.6812V11.6814V11.6816V11.6818V11.682V11.6822V11.6824V11.6826V11.6828V11.683V11.6832V11.6834V11.6836V11.6838V11.684V11.6842V11.6844V11.6846V11.6848V11.685V11.6852V11.6854V11.6856V11.6858V11.686V11.6862V11.6864V11.6866V11.6868V11.687V11.6872V11.6874V11.6875V11.6877V11.6879V11.6881V11.6883V11.6885V11.6887V11.6889V11.6891V11.6893V11.6895V11.6897V11.6899V11.6901V11.6903V11.6905V11.6907V11.6909V11.6911V11.6913V11.6915V11.6917V11.6919V11.6921V11.6923V11.6925V11.6927V11.6929V11.693V11.6932V11.6934V11.6936V11.6938V11.694V11.6942V11.6944V11.6946V11.6948V11.695V11.6952V11.6954V11.6956V11.6958V11.696V11.6962V11.6964V11.6966V11.6967V11.6969V11.6971V11.6973V11.6975V11.6977V11.6979V11.6981V11.6983V11.6985V11.6987V11.6989V11.6991V11.6993V11.6995V11.6997V11.6998V11.7V11.7002V11.7004V11.7006V11.7008V11.701V11.7012V11.7014V11.7016V11.7018V11.702V11.7022V11.7024V11.7025V11.7027V11.7029V11.7031V11.7033V11.7035V11.7037V11.7039V11.7041V11.7043V11.7045V11.7047V11.7049V11.705V11.7052V11.7054V11.7056V11.7058V11.706V11.7062V11.7064V11.7066V11.7068V11.707V11.7071V11.7073V11.7075V11.7077V11.7079V11.7081V11.7083V11.7085V11.7087V11.7089V11.7091V11.7092V11.7094V11.7096V11.7098V11.71V11.7102V11.7104V11.7106V11.7108V11.711V11.7111V11.7113V11.7115V11.7117V11.7119V11.7121V11.7123V11.7125V11.7127V11.7129V11.713V11.7132V11.7134V11.7136V11.7138V11.714V11.7142V11.7144V11.7146V11.7148V11.7149V11.7151V11.7153V11.7155V11.7157V11.7159V11.7161V11.7163V11.7165V11.7166V11.7168V11.717V11.7172V11.7174V11.7176V11.7177C14.1496 12.2834 14.3741 12.8215 14.7736 13.229C14.0894 13.0078 13.4637 12.6568 12.9443 12.1964C12.0121 11.3701 11.5014 10.2637 11.5 9.12432L11 9.12494M19.4996 4.70591C20.4002 5.78009 21.3166 6.88738 21.469 8.65441L21.4693 8.65719L21.4702 8.66892L21.4737 8.71242C21.4767 8.74917 21.4806 8.79941 21.4845 8.85359C21.4928 8.96754 21.4994 9.07746 21.4999 9.12653C21.4978 10.263 20.9889 11.3666 20.0606 12.1919C19.539 12.6555 18.9097 13.0087 18.2212 13.2306C18.6219 12.8226 18.847 12.2833 18.8302 11.7163C18.8298 11.6469 18.8246 11.5841 18.8203 11.5369L18.8204 11.5369L18.8199 11.5325C18.7468 10.7988 18.4252 10.1101 17.909 9.55533C17.6757 9.29165 17.4961 8.99775 17.3757 8.68667L17.0943 7.95987L16.551 8.51858C16.2054 8.87388 15.9512 9.29882 15.8128 9.76309L15.8081 9.77862L15.8045 9.79441C15.7234 10.1489 15.6791 10.5093 15.6723 10.871L19.4996 4.70591ZM11 9.12494C11.0016 10.4175 11.5816 11.6566 12.6126 12.5706C13.6437 13.4845 15.0416 13.9986 16.4998 14L12.6996 5.36059M11 9.12494V9.12441C11 9.03268 11 8.94094 11.0078 8.8492C11.0958 6.08119 12.6342 5.38878 12.6996 5.36059M12.6996 5.36059C12.7428 5.34191 12.7905 5.33265 12.8386 5.33358C12.8867 5.3345 12.9339 5.34558 12.9761 5.3659M12.6996 5.36059L12.9761 5.3659M12.9761 5.3659L12.9761 5.36592L12.9761 5.3659Z" fill="url(#paint1_linear)" stroke="#2C2C2C"/>
<path d="M17.8303 11.7252V11.7431L17.8316 11.7609C17.842 11.9055 17.819 12.0517 17.7623 12.1913C17.7056 12.3312 17.6153 12.4638 17.4932 12.5792L17.8143 12.9192L17.4932 12.5792C17.3709 12.6946 17.2199 12.7897 17.0477 12.8558C16.8755 12.9219 16.688 12.9566 16.4971 12.9566C16.3062 12.9566 16.1187 12.9219 15.9465 12.8558C15.7743 12.7897 15.6233 12.6946 15.501 12.5792L15.187 12.9116L15.501 12.5792C15.3789 12.4638 15.2886 12.3312 15.2319 12.1913C15.1752 12.0517 15.1522 11.9055 15.1626 11.7609L15.1638 11.7432C15.3775 11.8444 15.6122 11.8999 15.8501 11.9072L15.85 11.9074L15.8633 11.9074C15.9614 11.9078 16.0598 11.8911 16.1532 11.8571C16.2468 11.8232 16.3353 11.7719 16.4126 11.7038C16.4901 11.6355 16.5553 11.5511 16.6011 11.4536C16.6471 11.3557 16.672 11.2482 16.6722 11.1378L16.6722 11.1285L16.6718 11.1192C16.6589 10.7554 16.6929 10.3913 16.7734 10.0337C16.7951 9.963 16.8211 9.89327 16.8512 9.82479C16.946 9.96332 17.0501 10.0965 17.1629 10.2235L17.1628 10.2236L17.1713 10.2327C17.5491 10.6372 17.7722 11.1257 17.8226 11.6314L17.8255 11.6605L17.8298 11.6801C17.83 11.6833 17.8301 11.688 17.8302 11.6951L17.8303 11.7252Z" fill="url(#paint2_linear)" stroke="#2C2C2C"/>
<path d="M20.9672 8.61145C20.7999 6.67188 19.7814 5.45659 18.8828 4.38468C18.0533 3.39202 17.3325 2.53539 17.3325 1.27067C17.3324 1.22101 17.3169 1.17233 17.2877 1.12993C17.2585 1.08754 17.2168 1.05307 17.167 1.03027C17.1172 1.00747 17.0613 0.997223 17.0054 1.00064C16.9495 1.00407 16.8958 1.02103 16.85 1.04967C15.4589 1.95816 14.4492 3.2519 13.9808 4.72619C13.7573 5.62804 13.6517 6.5497 13.6661 7.47296C12.4218 7.23644 12.1397 5.58486 12.1356 5.56729C12.1287 5.52497 12.1107 5.48467 12.083 5.44968C12.0553 5.41468 12.0187 5.38598 11.9761 5.3659C11.9339 5.34558 11.8867 5.3345 11.8386 5.33358C11.7905 5.33265 11.7428 5.34191 11.6996 5.36059C11.6342 5.38878 10.0958 6.08119 10.0078 8.8492C9.99999 8.94111 10 9.03302 10 9.12494C10.0016 10.4175 10.5816 11.6566 11.6126 12.5706C12.6437 13.4845 14.0416 13.9986 15.4998 14H15.5159C16.9712 13.9948 18.3651 13.4791 19.3928 12.5656C20.4204 11.652 20.9982 10.415 20.9999 9.12494C20.999 8.98972 20.9672 8.61145 20.9672 8.61145ZM15.4993 13.4567C14.9975 13.4418 14.5229 13.2512 14.1793 12.9267C13.8357 12.6022 13.6511 12.1703 13.6661 11.7255C13.6661 11.6936 13.6661 11.6601 13.6661 11.6213C13.6647 11.3259 13.7303 11.0334 13.8591 10.761C13.9356 10.9454 14.0724 11.1055 14.252 11.2207C14.4316 11.3358 14.6459 11.4009 14.8675 11.4076C14.9077 11.4078 14.9475 11.4009 14.9847 11.3874C15.0219 11.3739 15.0557 11.354 15.0843 11.3289C15.1128 11.3038 15.1354 11.2739 15.1509 11.241C15.1663 11.2081 15.1743 11.1729 15.1744 11.1372C15.1597 10.7242 15.1992 10.311 15.2919 9.90599C15.4062 9.52269 15.6174 9.16746 15.9094 8.86717C16.0528 9.23761 16.2657 9.58397 16.539 9.89169C16.9873 10.3718 17.2605 10.9613 17.3224 11.5821C17.3265 11.6278 17.3302 11.6756 17.3302 11.7251C17.3453 12.1696 17.1611 12.6014 16.8179 12.9259C16.4748 13.2504 16.0007 13.4412 15.4993 13.4567Z" fill="url(#paint3_linear)"/>
<path d="M17.3303 11.7252C17.3462 11.9473 17.3106 12.1699 17.2257 12.3793C17.1407 12.5887 17.0083 12.7804 16.8365 12.9427C16.6647 13.1049 16.4572 13.2342 16.2268 13.3226C15.9965 13.411 15.7481 13.4566 15.4971 13.4566C15.2461 13.4566 14.9977 13.411 14.7673 13.3226C14.537 13.2342 14.3295 13.1049 14.1577 12.9427C13.9859 12.7804 13.8535 12.5887 13.7685 12.3793C13.6836 12.1699 13.6479 11.9473 13.6638 11.7252C13.6638 11.6934 13.6638 11.6599 13.6638 11.6211C13.6625 11.3257 13.7281 11.0332 13.8569 10.7608C13.9334 10.9452 14.0703 11.1052 14.2499 11.2204C14.4295 11.3355 14.6437 11.4007 14.8653 11.4074C14.9055 11.4076 14.9453 11.4007 14.9825 11.3872C15.0197 11.3737 15.0535 11.3538 15.082 11.3287C15.1106 11.3035 15.1332 11.2737 15.1486 11.2408C15.1641 11.2079 15.1721 11.1726 15.1722 11.137C15.1575 10.7239 15.1969 10.3108 15.2897 9.90576C15.404 9.52246 15.6152 9.16723 15.9073 8.86694C16.0506 9.2374 16.2634 9.58376 16.5368 9.89146C16.9851 10.3715 17.2583 10.961 17.3202 11.5818C17.3303 11.628 17.3303 11.6758 17.3303 11.7252Z" fill="url(#paint4_linear)"/>
<ellipse cx="7" cy="7.5" rx="6" ry="6.5" fill="#2C2C2C" stroke="#303030"/>
<path d="M6.72887 2C5.59595 1.99985 4.48845 2.33562 3.54639 2.96483C2.60432 3.59404 1.86999 4.48843 1.43631 5.53492C1.00263 6.5814 0.889047 7.73297 1.10992 8.844C1.3308 9.95503 1.87622 10.9756 2.67721 11.7767C3.47819 12.5778 4.4988 13.1234 5.60992 13.3445C6.72103 13.5657 7.87276 13.4524 8.91949 13.0191C9.96623 12.5857 10.8609 11.8517 11.4905 10.9099C12.12 9.96816 12.4561 8.86088 12.4562 7.72811C12.4548 6.20963 11.8509 4.75374 10.7772 3.67987C9.70345 2.606 8.24755 2.00186 6.72887 2ZM4.2595 6.91251C3.74112 6.91251 3.32532 6.37457 3.32532 5.7115C3.32532 5.04843 3.74297 4.51049 4.2595 4.51049C4.77603 4.51049 5.19372 5.04843 5.19372 5.7115C5.19372 6.37457 4.77643 6.91251 4.2599 6.91251H4.2595ZM9.19819 6.91251C8.67981 6.91251 8.26365 6.37457 8.26365 5.7115C8.26365 5.04843 8.68129 4.51049 9.19819 4.51049C9.71509 4.51049 10.1324 5.04843 10.1324 5.7115C10.1324 6.37457 9.71472 6.91251 9.19819 6.91251Z" fill="url(#paint5_radial)"/>
<path d="M6.72968 11.4503C7.53233 11.4503 8.183 10.6137 8.183 9.58178C8.183 8.54982 7.53233 7.71326 6.72968 7.71326C5.92704 7.71326 5.27637 8.54982 5.27637 9.58178C5.27637 10.6137 5.92704 11.4503 6.72968 11.4503Z" fill="url(#paint6_radial)"/>
<path d="M9.19982 6.91251C9.71577 6.91251 10.134 6.3748 10.134 5.71151C10.134 5.04821 9.71577 4.5105 9.19982 4.5105C8.68388 4.5105 8.26562 5.04821 8.26562 5.71151C8.26562 6.3748 8.68388 6.91251 9.19982 6.91251Z" fill="#422F0D"/>
<path d="M4.26037 6.91251C4.77631 6.91251 5.19457 6.3748 5.19457 5.71151C5.19457 5.04821 4.77631 4.5105 4.26037 4.5105C3.74443 4.5105 3.32617 5.04821 3.32617 5.71151C3.32617 6.3748 3.74443 6.91251 4.26037 6.91251Z" fill="#422F0D"/>
<defs>
<linearGradient id="paint0_linear" x1="16" y1="7.5" x2="28" y2="7.5" gradientUnits="userSpaceOnUse">
<stop stop-color="#FE6E6F"/>
<stop offset="0.284" stop-color="#F86769"/>
<stop offset="0.683" stop-color="#E9555A"/>
<stop offset="0.949" stop-color="#DD454D"/>
</linearGradient>
<linearGradient id="paint1_linear" x1="16.5" y1="5.42" x2="16.5" y2="18.355" gradientUnits="userSpaceOnUse">
<stop stop-color="#EF6452"/>
<stop offset="0.252" stop-color="#EA5D4D"/>
<stop offset="0.607" stop-color="#DD4B42"/>
<stop offset="0.949" stop-color="#CC3333"/>
</linearGradient>
<linearGradient id="paint2_linear" x1="16.4971" y1="10.6936" x2="16.4971" y2="13.9431" gradientUnits="userSpaceOnUse">
<stop stop-color="#FF954D"/>
<stop offset="0.183" stop-color="#FC8E4D"/>
<stop offset="0.441" stop-color="#F47C4D"/>
<stop offset="0.741" stop-color="#E75E4D"/>
<stop offset="0.949" stop-color="#DD454D"/>
</linearGradient>
<linearGradient id="paint3_linear" x1="15.5" y1="5.42" x2="15.5" y2="18.355" gradientUnits="userSpaceOnUse">
<stop stop-color="#EF6452"/>
<stop offset="0.252" stop-color="#EA5D4D"/>
<stop offset="0.607" stop-color="#DD4B42"/>
<stop offset="0.949" stop-color="#CC3333"/>
</linearGradient>
<linearGradient id="paint4_linear" x1="15.4971" y1="10.6936" x2="15.4971" y2="13.9431" gradientUnits="userSpaceOnUse">
<stop stop-color="#FF954D"/>
<stop offset="0.183" stop-color="#FC8E4D"/>
<stop offset="0.441" stop-color="#F47C4D"/>
<stop offset="0.741" stop-color="#E75E4D"/>
<stop offset="0.949" stop-color="#DD454D"/>
</linearGradient>
<radialGradient id="paint5_radial" cx="0" cy="0" r="1" gradientUnits="userSpaceOnUse" gradientTransform="translate(6.72812 7.72737) scale(7.50384 7.50286)">
<stop stop-color="#EAB242"/>
<stop offset="0.362" stop-color="#E9AF41"/>
<stop offset="0.562" stop-color="#E8A73E"/>
<stop offset="0.723" stop-color="#E69939"/>
<stop offset="0.863" stop-color="#E48632"/>
<stop offset="0.949" stop-color="#E2762D"/>
</radialGradient>
<radialGradient id="paint6_radial" cx="0" cy="0" r="1" gradientUnits="userSpaceOnUse" gradientTransform="translate(7.09238 9.99285) scale(2.26893 2.26839)">
<stop offset="0.73" stop-color="#422F0D"/>
<stop offset="0.863" stop-color="#2E2009"/>
<stop offset="1" stop-color="#160F04"/>
</radialGradient>
</defs>
</svg>
