<svg width="30" height="14" viewBox="0 0 30 14" fill="none" xmlns="http://www.w3.org/2000/svg">
<path d="M23.7289 4.78794e-08C22.596 -0.00014639 21.4885 0.335616 20.5464 0.964826C19.6043 1.59404 18.87 2.48843 18.4363 3.53492C18.0026 4.5814 17.889 5.73297 18.1099 6.844C18.3308 7.95503 18.8762 8.97562 19.6772 9.77671C20.4782 10.5778 21.4988 11.1234 22.6099 11.3445C23.721 11.5657 24.8728 11.4524 25.9195 11.0191C26.9662 10.5857 27.8609 9.85172 28.4905 8.90995C29.12 7.96816 29.4561 6.86088 29.4562 5.72811C29.4548 4.20963 28.8509 2.75374 27.7772 1.67987C26.7035 0.606004 25.2475 0.00186227 23.7289 4.78794e-08ZM21.2595 4.91251C20.7411 4.91251 20.3253 4.37457 20.3253 3.7115C20.3253 3.04843 20.743 2.51049 21.2595 2.51049C21.776 2.51049 22.1937 3.04843 22.1937 3.7115C22.1937 4.37457 21.7764 4.91251 21.2599 4.91251H21.2595ZM26.1982 4.91251C25.6798 4.91251 25.2637 4.37457 25.2637 3.7115C25.2637 3.04843 25.6813 2.51049 26.1982 2.51049C26.7151 2.51049 27.1324 3.04843 27.1324 3.7115C27.1324 4.37457 26.7147 4.91251 26.1982 4.91251Z" fill="url(#paint0_radial)"/>
<path d="M23.7297 9.45036C24.5323 9.45036 25.183 8.6138 25.183 7.58184C25.183 6.54988 24.5323 5.71332 23.7297 5.71332C22.927 5.71332 22.2764 6.54988 22.2764 7.58184C22.2764 8.6138 22.927 9.45036 23.7297 9.45036Z" fill="url(#paint1_radial)"/>
<path d="M26.1998 4.91251C26.7158 4.91251 27.134 4.3748 27.134 3.71151C27.134 3.04821 26.7158 2.5105 26.1998 2.5105C25.6839 2.5105 25.2656 3.04821 25.2656 3.71151C25.2656 4.3748 25.6839 4.91251 26.1998 4.91251Z" fill="#422F0D"/>
<path d="M21.2604 4.91251C21.7763 4.91251 22.1946 4.3748 22.1946 3.71151C22.1946 3.04821 21.7763 2.5105 21.2604 2.5105C20.7444 2.5105 20.3262 3.04821 20.3262 3.71151C20.3262 4.3748 20.7444 4.91251 21.2604 4.91251Z" fill="#422F0D"/>
<path d="M21 4.25091C21 7.58573 15.7402 11.6197 15.5151 11.7903C15.4103 11.9119 15.2103 12 14.9992 12C14.8956 12.0003 14.7931 11.9789 14.6982 11.9372C14.6034 11.8956 14.5183 11.8346 14.4484 11.7581C14.2596 11.6198 9 7.58573 9 4.25091C9 2.45836 10.4582 1 12.2492 1C12.7983 0.99939 13.3387 1.13812 13.8196 1.4032C14.3006 1.66828 14.7064 2.05105 14.9992 2.51569C15.292 2.05105 15.6978 1.66828 16.1788 1.4032C16.6597 1.13812 17.2 0.99939 17.7492 1C19.5418 0.999981 21 2.45836 21 4.25091Z" fill="url(#paint2_linear)" stroke="#2C2C2C"/>
<path d="M6.70135 0.5L6.70081 0.5C5.47456 0.499842 4.27583 0.863312 3.25616 1.54444C2.23649 2.22557 1.44166 3.19377 0.97225 4.32662C0.502841 5.45947 0.379907 6.70606 0.618979 7.90877C0.858052 9.11149 1.4484 10.2163 2.31537 11.0835C3.18235 11.9507 4.28703 12.5413 5.48967 12.7807C6.69232 13.0201 7.93894 12.8975 9.0719 12.4284C10.2049 11.9592 11.1733 11.1647 11.8547 10.1452C12.5361 9.1257 12.8998 7.92705 12.9 6.7008V6.70026C12.8984 5.05661 12.2449 3.48072 11.0828 2.31834C9.9207 1.15596 8.345 0.502016 6.70135 0.5ZM6.70082 3.26637H6.7011L6.70113 3.15379L6.70125 3.26637C7.1533 3.26592 7.59873 3.35537 8.01238 3.52723L3.52943 8.01018C3.37526 7.63806 3.28719 7.24013 3.27094 6.83435C3.24621 6.21688 3.38871 5.6042 3.6834 5.06103C3.97809 4.51787 4.41405 4.06438 4.94517 3.74848C5.47627 3.4326 6.08281 3.26603 6.70074 3.26637H6.70082ZM6.70087 10.1329L6.64629 10.1329C6.24772 10.1269 5.85486 10.0511 5.48513 9.91043L9.91064 5.48462C10.0487 5.84879 10.1243 6.23532 10.1327 6.62787C10.1457 7.23852 9.99555 7.84157 9.69767 8.37479C9.39979 8.90801 8.96502 9.35207 8.43821 9.66112C7.91139 9.97018 7.31164 10.133 6.70087 10.1329Z" fill="url(#paint3_linear)" stroke="#303030"/>
<defs>
<radialGradient id="paint0_radial" cx="0" cy="0" r="1" gradientUnits="userSpaceOnUse" gradientTransform="translate(23.7281 5.72737) scale(7.50384 7.50286)">
<stop stop-color="#EAB242"/>
<stop offset="0.362" stop-color="#E9AF41"/>
<stop offset="0.562" stop-color="#E8A73E"/>
<stop offset="0.723" stop-color="#E69939"/>
<stop offset="0.863" stop-color="#E48632"/>
<stop offset="0.949" stop-color="#E2762D"/>
</radialGradient>
<radialGradient id="paint1_radial" cx="0" cy="0" r="1" gradientUnits="userSpaceOnUse" gradientTransform="translate(24.0924 7.99292) scale(2.26893 2.26839)">
<stop offset="0.73" stop-color="#422F0D"/>
<stop offset="0.863" stop-color="#2E2009"/>
<stop offset="1" stop-color="#160F04"/>
</radialGradient>
<linearGradient id="paint2_linear" x1="9" y1="6.5" x2="21" y2="6.5" gradientUnits="userSpaceOnUse">
<stop stop-color="#FE6E6F"/>
<stop offset="0.284" stop-color="#F86769"/>
<stop offset="0.683" stop-color="#E9555A"/>
<stop offset="0.949" stop-color="#DD454D"/>
</linearGradient>
<linearGradient id="paint3_linear" x1="10.8496" y1="2.881" x2="2.4592" y2="10.5988" gradientUnits="userSpaceOnUse">
<stop stop-color="#E85B43"/>
<stop offset="0.221" stop-color="#E6563C"/>
<stop offset="0.532" stop-color="#E1482A"/>
<stop offset="0.896" stop-color="#D9310C"/>
<stop offset="0.949" stop-color="#D82E07"/>
</linearGradient>
</defs>
</svg>
