<svg width="22" height="13" viewBox="0 0 22 13" fill="none" xmlns="http://www.w3.org/2000/svg">
<path d="M15.7289 4.78794e-08C14.596 -0.00014639 13.4885 0.335616 12.5464 0.964826C11.6043 1.59404 10.87 2.48843 10.4363 3.53492C10.0026 4.5814 9.88905 5.73297 10.1099 6.844C10.3308 7.95503 10.8762 8.97562 11.6772 9.77671C12.4782 10.5778 13.4988 11.1234 14.6099 11.3445C15.721 11.5657 16.8728 11.4524 17.9195 11.0191C18.9662 10.5857 19.8609 9.85173 20.4905 8.90995C21.12 7.96817 21.4561 6.86088 21.4562 5.72811C21.4548 4.20963 20.8509 2.75374 19.7772 1.67987C18.7035 0.606004 17.2475 0.00186227 15.7289 4.78794e-08V4.78794e-08ZM13.2595 4.91251C12.7411 4.91251 12.3253 4.37457 12.3253 3.7115C12.3253 3.04843 12.743 2.51049 13.2595 2.51049C13.776 2.51049 14.1937 3.04843 14.1937 3.7115C14.1937 4.37457 13.7764 4.91251 13.2599 4.91251H13.2595ZM18.1982 4.91251C17.6798 4.91251 17.2637 4.37457 17.2637 3.7115C17.2637 3.04843 17.6813 2.51049 18.1982 2.51049C18.7151 2.51049 19.1324 3.04843 19.1324 3.7115C19.1324 4.37457 18.7147 4.91251 18.1982 4.91251V4.91251Z" fill="url(#paint0_radial)"/>
<path d="M15.7297 9.45035C16.5323 9.45035 17.183 8.61378 17.183 7.58183C17.183 6.54987 16.5323 5.7133 15.7297 5.7133C14.927 5.7133 14.2764 6.54987 14.2764 7.58183C14.2764 8.61378 14.927 9.45035 15.7297 9.45035Z" fill="url(#paint1_radial)"/>
<path d="M18.1998 4.9125C18.7158 4.9125 19.134 4.37479 19.134 3.71149C19.134 3.04819 18.7158 2.51048 18.1998 2.51048C17.6839 2.51048 17.2656 3.04819 17.2656 3.71149C17.2656 4.37479 17.6839 4.9125 18.1998 4.9125Z" fill="#422F0D"/>
<path d="M13.2604 4.9125C13.7763 4.9125 14.1946 4.37479 14.1946 3.71149C14.1946 3.04819 13.7763 2.51048 13.2604 2.51048C12.7444 2.51048 12.3262 3.04819 12.3262 3.71149C12.3262 4.37479 12.7444 4.9125 13.2604 4.9125Z" fill="#422F0D"/>
<path d="M13 4.25091C13 7.58573 7.74019 11.6197 7.51511 11.7903C7.41027 11.9119 7.21034 12 6.99922 12C6.89562 12.0003 6.7931 11.9789 6.69825 11.9372C6.60339 11.8956 6.51828 11.8346 6.44839 11.7581C6.25958 11.6198 1 7.58573 1 4.25091C1 2.45836 2.45818 1 4.24919 1C4.79834 0.99939 5.33868 1.13812 5.81963 1.4032C6.30058 1.66828 6.70643 2.05105 6.9992 2.51569C7.29196 2.05105 7.69781 1.66828 8.17876 1.4032C8.65971 1.13812 9.20004 0.99939 9.7492 1C11.5418 0.999981 13 2.45836 13 4.25091Z" fill="url(#paint2_linear)" stroke="#2C2C2C"/>
<defs>
<radialGradient id="paint0_radial" cx="0" cy="0" r="1" gradientUnits="userSpaceOnUse" gradientTransform="translate(15.7281 5.72737) scale(7.50384 7.50286)">
<stop stop-color="#EAB242"/>
<stop offset="0.362" stop-color="#E9AF41"/>
<stop offset="0.562" stop-color="#E8A73E"/>
<stop offset="0.723" stop-color="#E69939"/>
<stop offset="0.863" stop-color="#E48632"/>
<stop offset="0.949" stop-color="#E2762D"/>
</radialGradient>
<radialGradient id="paint1_radial" cx="0" cy="0" r="1" gradientUnits="userSpaceOnUse" gradientTransform="translate(16.0924 7.9929) scale(2.26893 2.26839)">
<stop offset="0.73" stop-color="#422F0D"/>
<stop offset="0.863" stop-color="#2E2009"/>
<stop offset="1" stop-color="#160F04"/>
</radialGradient>
<linearGradient id="paint2_linear" x1="1" y1="6.5" x2="13" y2="6.5" gradientUnits="userSpaceOnUse">
<stop stop-color="#FE6E6F"/>
<stop offset="0.284" stop-color="#F86769"/>
<stop offset="0.683" stop-color="#E9555A"/>
<stop offset="0.949" stop-color="#DD454D"/>
</linearGradient>
</defs>
</svg>
