<svg width="22" height="14" viewBox="0 0 22 14" fill="none" xmlns="http://www.w3.org/2000/svg">
<path d="M21 4.54645C21 8.18443 15.3019 12.5851 15.058 12.7712C14.9445 12.9039 14.7279 13 14.4992 13C14.3869 13.0003 14.2759 12.977 14.1731 12.9315C14.0703 12.8861 13.9781 12.8195 13.9024 12.7361C13.6979 12.5852 8 8.18443 8 4.54645C8 2.59093 9.5797 1 11.52 1C12.1149 0.999335 12.7002 1.15067 13.2213 1.43985C13.7423 1.72903 14.182 2.1466 14.4991 2.65348C14.8163 2.1466 15.256 1.72903 15.777 1.43985C16.298 1.15067 16.8834 0.999335 17.4783 1C19.4202 0.99998 21 2.59093 21 4.54645Z" fill="url(#paint0_linear)" stroke="#2C2C2C"/>
<path d="M10.9672 7.61145C10.7999 5.67188 9.78145 4.45659 8.8828 3.38468C8.05328 2.39202 7.33251 1.53539 7.33251 0.270672C7.33239 0.221008 7.31692 0.172326 7.28773 0.129934C7.25854 0.0875426 7.21678 0.0530694 7.16701 0.030271C7.11723 0.00747261 7.06134 -0.00277693 7.00544 0.000644388C6.94955 0.0040657 6.89577 0.0210254 6.85001 0.049672C5.45888 0.95816 4.44924 2.2519 3.98081 3.72619C3.75734 4.62804 3.65173 5.5497 3.66606 6.47296C2.42178 6.23644 2.13972 4.58486 2.13557 4.56729C2.12875 4.52497 2.11074 4.48467 2.08303 4.44968C2.05532 4.41468 2.01872 4.38598 1.97614 4.3659C1.93385 4.34558 1.88669 4.3345 1.8386 4.33358C1.79051 4.33265 1.74283 4.34191 1.69959 4.36059C1.63415 4.38878 0.0958409 5.08119 0.00781951 7.8492C-1.48511e-05 7.94111 2.11898e-10 8.03302 2.11898e-10 8.12494C0.00158579 9.41745 0.581565 10.6566 1.61262 11.5706C2.64367 12.4845 4.04163 12.9986 5.49976 13H5.51585C6.97123 12.9948 8.36511 12.4791 9.39276 11.5656C10.4204 10.652 10.9982 9.41502 10.9999 8.12494C10.999 7.98972 10.9672 7.61145 10.9672 7.61145ZM5.49926 12.4567C4.99749 12.4418 4.52287 12.2512 4.17928 11.9267C3.83568 11.6022 3.65115 11.1703 3.66606 10.7255C3.66606 10.6936 3.66606 10.6601 3.66606 10.6213C3.66465 10.3259 3.7303 10.0334 3.85913 9.76099C3.93561 9.94543 4.07241 10.1055 4.25202 10.2207C4.43163 10.3358 4.64589 10.4009 4.86745 10.4076C4.90765 10.4078 4.94749 10.4009 4.98469 10.3874C5.02189 10.3739 5.05575 10.354 5.08426 10.3289C5.11277 10.3038 5.1354 10.2739 5.15087 10.241C5.16633 10.2081 5.17432 10.1729 5.17438 10.1372C5.15974 9.72416 5.19918 9.311 5.2919 8.90599C5.40622 8.52269 5.61737 8.16746 5.90941 7.86717C6.05282 8.23761 6.26568 8.58397 6.53897 8.89169C6.98732 9.37177 7.26051 9.96126 7.32238 10.5821C7.32653 10.6278 7.3302 10.6756 7.3302 10.7251C7.34525 11.1696 7.16106 11.6014 6.81794 11.9259C6.47482 12.2504 6.0007 12.4412 5.49926 12.4567Z" fill="url(#paint1_linear)"/>
<path d="M7.33035 10.7252C7.34624 10.9473 7.31059 11.1699 7.22566 11.3793C7.14072 11.5887 7.00827 11.7804 6.83648 11.9427C6.66469 12.1049 6.45721 12.2342 6.22684 12.3226C5.99647 12.411 5.74812 12.4566 5.49709 12.4566C5.24607 12.4566 4.99772 12.411 4.76735 12.3226C4.53698 12.2342 4.3295 12.1049 4.15771 11.9427C3.98592 11.7804 3.85347 11.5887 3.76853 11.3793C3.6836 11.1699 3.64794 10.9473 3.66384 10.7252C3.66384 10.6934 3.66384 10.6599 3.66384 10.6211C3.66249 10.3257 3.72813 10.0332 3.85691 9.76076C3.93345 9.94517 4.07026 10.1052 4.24985 10.2204C4.42945 10.3355 4.64375 10.4007 4.86529 10.4074C4.90549 10.4076 4.94533 10.4007 4.98253 10.3872C5.01973 10.3737 5.05353 10.3538 5.08204 10.3287C5.11055 10.3035 5.13318 10.2737 5.14865 10.2408C5.16412 10.2079 5.1721 10.1726 5.17216 10.137C5.1575 9.72393 5.19694 9.31076 5.28968 8.90576C5.404 8.52246 5.61521 8.16723 5.90725 7.86694C6.05062 8.2374 6.26342 8.58376 6.53675 8.89146C6.9851 9.37154 7.25829 9.96103 7.32017 10.5818C7.3303 10.628 7.33035 10.6758 7.33035 10.7252Z" fill="url(#paint2_linear)"/>
<defs>
<linearGradient id="paint0_linear" x1="8" y1="7" x2="21" y2="7" gradientUnits="userSpaceOnUse">
<stop stop-color="#FE6E6F"/>
<stop offset="0.284" stop-color="#F86769"/>
<stop offset="0.683" stop-color="#E9555A"/>
<stop offset="0.949" stop-color="#DD454D"/>
</linearGradient>
<linearGradient id="paint1_linear" x1="5.49996" y1="4.42" x2="5.49996" y2="17.355" gradientUnits="userSpaceOnUse">
<stop stop-color="#EF6452"/>
<stop offset="0.252" stop-color="#EA5D4D"/>
<stop offset="0.607" stop-color="#DD4B42"/>
<stop offset="0.949" stop-color="#CC3333"/>
</linearGradient>
<linearGradient id="paint2_linear" x1="5.49709" y1="9.69364" x2="5.49709" y2="12.9431" gradientUnits="userSpaceOnUse">
<stop stop-color="#FF954D"/>
<stop offset="0.183" stop-color="#FC8E4D"/>
<stop offset="0.441" stop-color="#F47C4D"/>
<stop offset="0.741" stop-color="#E75E4D"/>
<stop offset="0.949" stop-color="#DD454D"/>
</linearGradient>
</defs>
</svg>
