<svg width="31" height="14" viewBox="0 0 31 14" fill="none" xmlns="http://www.w3.org/2000/svg">
<path d="M24.966 1C23.8135 0.999851 22.6867 1.34149 21.7283 1.98171C20.7699 2.62193 20.0228 3.53198 19.5816 4.59677C19.1404 5.66156 19.0248 6.83328 19.2495 7.96375C19.4742 9.09422 20.0291 10.1327 20.844 10.9478C21.6589 11.7629 22.6972 12.318 23.8277 12.543C24.9581 12.7681 26.1298 12.6528 27.1947 12.2119C28.2596 11.7709 29.1699 11.0241 29.8103 10.0658C30.4508 9.10759 30.7927 7.98093 30.7929 6.82834C30.7914 5.28329 30.177 3.80192 29.0847 2.70927C27.9923 1.61661 26.5111 1.00189 24.966 1ZM24.966 2.80591C25.7441 2.80512 26.5053 3.03149 27.1565 3.45723L21.5964 9.01735C21.2014 8.41074 20.9777 7.7087 20.9487 6.98541C20.9197 6.26211 21.0866 5.54442 21.4318 4.90816C21.777 4.27189 22.2877 3.74068 22.9099 3.37065C23.532 3.00062 24.2425 2.8055 24.9664 2.80591H24.966ZM24.966 10.8489C24.2219 10.8496 23.4923 10.6424 22.8595 10.2507L28.3895 4.72031C28.7648 5.32944 28.9706 6.02767 28.9859 6.74294C29.0011 7.45821 28.8252 8.16459 28.4763 8.78917C28.1274 9.41375 27.6181 9.93389 27.0011 10.2959C26.384 10.6579 25.6815 10.8487 24.966 10.8485V10.8489Z" fill="url(#paint0_linear)"/>
<path d="M16.7289 1.20691C15.596 1.20676 14.4885 1.54252 13.5464 2.17173C12.6043 2.80094 11.87 3.69534 11.4363 4.74183C11.0026 5.78831 10.889 6.93988 11.1099 8.05091C11.3308 9.16194 11.8762 10.1825 12.6772 10.9836C13.4782 11.7847 14.4988 12.3303 15.6099 12.5515C16.721 12.7726 17.8728 12.6593 18.9195 12.226C19.9662 11.7926 20.8609 11.0586 21.4905 10.1169C22.12 9.17507 22.4561 8.06779 22.4562 6.93502C22.4548 5.41654 21.8509 3.96065 20.7772 2.88678C19.7035 1.81291 18.2475 1.20877 16.7289 1.20691ZM14.2595 6.11942C13.7411 6.11942 13.3253 5.58148 13.3253 4.91841C13.3253 4.25534 13.743 3.7174 14.2595 3.7174C14.776 3.7174 15.1937 4.25534 15.1937 4.91841C15.1937 5.58148 14.776 6.11942 14.2595 6.11942ZM19.1982 6.11942C18.6798 6.11942 18.2637 5.58148 18.2637 4.91841C18.2637 4.25534 18.6813 3.7174 19.1982 3.7174C19.7151 3.7174 20.1324 4.25534 20.1324 4.91841C20.1324 5.58148 19.7147 6.11942 19.1982 6.11942Z" fill="url(#paint1_radial)"/>
<path d="M16.7297 10.6573C17.5323 10.6573 18.183 9.82069 18.183 8.78873C18.183 7.75678 17.5323 6.92021 16.7297 6.92021C15.927 6.92021 15.2764 7.75678 15.2764 8.78873C15.2764 9.82069 15.927 10.6573 16.7297 10.6573Z" fill="url(#paint2_radial)"/>
<path d="M19.1998 6.11941C19.7158 6.11941 20.134 5.5817 20.134 4.9184C20.134 4.2551 19.7158 3.71739 19.1998 3.71739C18.6839 3.71739 18.2656 4.2551 18.2656 4.9184C18.2656 5.5817 18.6839 6.11941 19.1998 6.11941Z" fill="#422F0D"/>
<path d="M14.2604 6.11941C14.7763 6.11941 15.1946 5.5817 15.1946 4.9184C15.1946 4.2551 14.7763 3.71739 14.2604 3.71739C13.7444 3.71739 13.3262 4.2551 13.3262 4.9184C13.3262 5.5817 13.7444 6.11941 14.2604 6.11941Z" fill="#422F0D"/>
<path d="M14 4.54645C14 8.18443 8.30187 12.5851 8.05804 12.7712C7.94446 12.9039 7.72787 13 7.49915 13C7.38692 13.0003 7.27586 12.977 7.1731 12.9315C7.07034 12.8861 6.97814 12.8195 6.90242 12.7361C6.69788 12.5852 1 8.18443 1 4.54645C1 2.59093 2.5797 1 4.51996 1C5.11487 0.999335 5.70023 1.15067 6.22126 1.43985C6.74229 1.72903 7.18196 2.1466 7.49913 2.65348C7.81629 2.1466 8.25596 1.72903 8.77699 1.43985C9.29802 1.15067 9.88338 0.999335 10.4783 1C12.4202 0.99998 14 2.59093 14 4.54645Z" fill="url(#paint3_linear)" stroke="#2C2C2C"/>
<defs>
<linearGradient id="paint0_linear" x1="29.2078" y1="2.9231" x2="20.6296" y2="10.8137" gradientUnits="userSpaceOnUse">
<stop stop-color="#E85B43"/>
<stop offset="0.221" stop-color="#E6563C"/>
<stop offset="0.532" stop-color="#E1482A"/>
<stop offset="0.896" stop-color="#D9310C"/>
<stop offset="0.949" stop-color="#D82E07"/>
</linearGradient>
<radialGradient id="paint1_radial" cx="0" cy="0" r="1" gradientUnits="userSpaceOnUse" gradientTransform="translate(16.7281 6.93428) scale(7.50384 7.50286)">
<stop stop-color="#EAB242"/>
<stop offset="0.362" stop-color="#E9AF41"/>
<stop offset="0.562" stop-color="#E8A73E"/>
<stop offset="0.723" stop-color="#E69939"/>
<stop offset="0.863" stop-color="#E48632"/>
<stop offset="0.949" stop-color="#E2762D"/>
</radialGradient>
<radialGradient id="paint2_radial" cx="0" cy="0" r="1" gradientUnits="userSpaceOnUse" gradientTransform="translate(17.0924 9.19981) scale(2.26893 2.26839)">
<stop offset="0.73" stop-color="#422F0D"/>
<stop offset="0.863" stop-color="#2E2009"/>
<stop offset="1" stop-color="#160F04"/>
</radialGradient>
<linearGradient id="paint3_linear" x1="1" y1="7" x2="14" y2="7" gradientUnits="userSpaceOnUse">
<stop stop-color="#FE6E6F"/>
<stop offset="0.284" stop-color="#F86769"/>
<stop offset="0.683" stop-color="#E9555A"/>
<stop offset="0.949" stop-color="#DD454D"/>
</linearGradient>
</defs>
</svg>
