<svg width="29" height="14" viewBox="0 0 29 14" fill="none" xmlns="http://www.w3.org/2000/svg">
<path d="M28.9613 7.61145C28.794 5.67188 27.7756 4.45659 26.8769 3.38468C26.0474 2.39202 25.3267 1.53539 25.3267 0.270672C25.3265 0.221008 25.3111 0.172326 25.2819 0.129934C25.2527 0.0875426 25.2109 0.0530694 25.1611 0.030271C25.1114 0.00747261 25.0555 -0.00277693 24.9996 0.000644388C24.9437 0.0040657 24.8899 0.0210254 24.8441 0.049672C23.453 0.95816 22.4434 2.2519 21.9749 3.72619C21.7515 4.62804 21.6459 5.5497 21.6602 6.47296C20.4159 6.23644 20.1339 4.58486 20.1297 4.56729C20.1229 4.52497 20.1049 4.48467 20.0772 4.44968C20.0495 4.41468 20.0129 4.38598 19.9703 4.3659C19.928 4.34558 19.8808 4.3345 19.8327 4.33358C19.7846 4.33265 19.737 4.34191 19.6937 4.36059C19.6283 4.38878 18.09 5.08119 18.002 7.8492C17.9941 7.94111 17.9941 8.03302 17.9941 8.12494C17.9957 9.41745 18.5757 10.6566 19.6068 11.5706C20.6378 12.4845 22.0358 12.9986 23.4939 13H23.51C24.9654 12.9948 26.3593 12.4791 27.3869 11.5656C28.4145 10.652 28.9924 9.41502 28.9941 8.12494C28.9931 7.98972 28.9613 7.61145 28.9613 7.61145ZM23.4934 12.4567C22.9916 12.4418 22.517 12.2512 22.1734 11.9267C21.8298 11.6022 21.6453 11.1703 21.6602 10.7255C21.6602 10.6936 21.6602 10.6601 21.6602 10.6213C21.6588 10.3259 21.7244 10.0334 21.8533 9.76099C21.9298 9.94543 22.0665 10.1055 22.2462 10.2207C22.4258 10.3358 22.64 10.4009 22.8616 10.4076C22.9018 10.4078 22.9416 10.4009 22.9788 10.3874C23.016 10.3739 23.0499 10.354 23.0784 10.3289C23.1069 10.3038 23.1295 10.2739 23.145 10.241C23.1605 10.2081 23.1685 10.1729 23.1685 10.1372C23.1539 9.72416 23.1933 9.311 23.286 8.90599C23.4004 8.52269 23.6115 8.16746 23.9036 7.86717C24.047 8.23761 24.2598 8.58397 24.5331 8.89169C24.9815 9.37177 25.2546 9.96126 25.3165 10.5821C25.3207 10.6278 25.3243 10.6756 25.3243 10.7251C25.3394 11.1696 25.1552 11.6014 24.8121 11.9259C24.469 12.2504 23.9948 12.4412 23.4934 12.4567Z" fill="url(#paint0_linear)"/>
<path d="M25.3245 10.7252C25.3404 10.9473 25.3047 11.1699 25.2198 11.3793C25.1349 11.5887 25.0024 11.7804 24.8306 11.9426C24.6588 12.1049 24.4513 12.2342 24.221 12.3226C23.9906 12.411 23.7423 12.4566 23.4912 12.4566C23.2402 12.4566 22.9919 12.411 22.7615 12.3226C22.5311 12.2342 22.3236 12.1049 22.1518 11.9426C21.9801 11.7804 21.8476 11.5887 21.7627 11.3793C21.6777 11.1699 21.6421 10.9473 21.658 10.7252C21.658 10.6934 21.658 10.6599 21.658 10.621C21.6566 10.3257 21.7223 10.0331 21.8511 9.76074C21.9276 9.94516 22.0644 10.1052 22.244 10.2203C22.4236 10.3355 22.6379 10.4006 22.8594 10.4074C22.8996 10.4076 22.9395 10.4007 22.9767 10.3872C23.0139 10.3737 23.0477 10.3538 23.0762 10.3287C23.1047 10.3035 23.1273 10.2737 23.1428 10.2408C23.1583 10.2079 23.1662 10.1726 23.1663 10.137C23.1516 9.72391 23.1911 9.31075 23.2838 8.90575C23.3981 8.52245 23.6094 8.16722 23.9014 7.86693C24.0448 8.23738 24.2576 8.58374 24.5309 8.89145C24.9792 9.37152 25.2524 9.96102 25.3143 10.5818C25.3244 10.628 25.3245 10.6758 25.3245 10.7252Z" fill="url(#paint1_linear)"/>
<path d="M13.8229 2.80591C13.8229 2.80591 13.8229 2.80591 13.8229 2.80591L13.8229 2.80591ZM13.8229 2.80591L13.8229 3.05591M13.8229 2.80591L13.8229 3.05591M13.8229 3.05591L13.8227 3.05591M13.8229 3.05591C13.8228 3.05591 13.8228 3.05591 13.8227 3.05591M13.8227 3.05591L13.8227 3.05591L13.8227 3.05591ZM13.8228 0.75L13.8225 0.75C12.6205 0.749845 11.4454 1.10614 10.4459 1.77382C9.44634 2.4415 8.66721 3.39059 8.20707 4.50107C7.74693 5.61154 7.62642 6.83353 7.86077 8.0125C8.09512 9.19146 8.67382 10.2745 9.52367 11.1245C10.3735 11.9746 11.4564 12.5536 12.6353 12.7882C13.8142 13.0229 15.0362 12.9027 16.1468 12.4428C17.2574 11.983 18.2067 11.2041 18.8746 10.2048C19.5426 9.2054 19.8992 8.03041 19.8993 6.82837V6.8281C19.8978 5.21684 19.2571 3.67199 18.1179 2.53251C16.9787 1.39303 15.4341 0.751976 13.8228 0.75ZM15.7932 3.32344L15.6093 3.50738C15.6849 3.54829 15.7592 3.59188 15.8321 3.6381L16.013 3.45723C15.941 3.41019 15.8677 3.36558 15.7932 3.32344ZM10.6338 8.83641C10.5877 8.7634 10.5442 8.68896 10.5034 8.61325L10.3194 8.79727C10.3614 8.87189 10.4059 8.9453 10.4529 9.01735L10.6338 8.83641ZM13.8225 10.5985L13.7648 10.5985C13.1937 10.5903 12.6332 10.4515 12.1258 10.1944L17.1892 5.13066C17.442 5.6318 17.5803 6.18439 17.5924 6.74827C17.6067 7.41906 17.4417 8.08151 17.1145 8.66724C16.7873 9.25298 16.3097 9.74078 15.731 10.0803C15.1523 10.4198 14.4935 10.5987 13.8225 10.5985Z" fill="url(#paint2_linear)" stroke="#303030" stroke-width="0.5"/>
<path d="M6.27668 0.793106C5.03543 0.792946 3.82203 1.16086 2.78988 1.85033C1.75773 2.53979 0.953181 3.51984 0.478029 4.66654C0.00287619 5.81324 -0.121563 7.07509 0.120435 8.29252C0.362433 9.50995 0.960007 10.6283 1.83759 11.5061C2.71517 12.3839 3.83336 12.9817 5.05073 13.2241C6.26809 13.4664 7.52996 13.3422 8.67678 12.8674C9.8236 12.3925 10.8039 11.5883 11.4936 10.5563C12.1833 9.52434 12.5516 8.31102 12.5517 7.06977C12.5501 5.40587 11.8885 3.81056 10.7121 2.63385C9.5357 1.45714 7.94058 0.795147 6.27668 0.793106ZM3.57118 6.17606C3.00323 6.17606 2.54767 5.58661 2.54767 4.86004C2.54767 4.13346 3.00526 3.54401 3.57118 3.54401C4.1371 3.54401 4.59474 4.13346 4.59474 4.86004C4.59474 5.58661 4.1371 6.17606 3.57118 6.17606ZM8.98213 6.17606C8.41418 6.17606 7.95862 5.58661 7.95862 4.86004C7.95862 4.13346 8.41621 3.54401 8.98213 3.54401C9.54805 3.54401 10.0057 4.13346 10.0057 4.86004C10.0057 5.58661 9.54805 6.17606 8.98213 6.17606Z" fill="url(#paint3_radial)"/>
<path d="M10.0144 10.3586C9.89415 10.421 9.7541 10.4332 9.62486 10.3926C9.49562 10.352 9.38773 10.2619 9.32476 10.142C9.03383 9.58548 8.59602 9.11931 8.0589 8.79402C7.52178 8.46874 6.90585 8.29677 6.27791 8.29677C5.64997 8.29677 5.034 8.46874 4.49688 8.79402C3.95976 9.11931 3.522 9.58548 3.23106 10.142C3.19995 10.2016 3.15739 10.2545 3.10582 10.2977C3.05426 10.3409 2.99469 10.3735 2.93052 10.3937C2.86635 10.4139 2.7988 10.4212 2.73179 10.4153C2.66478 10.4094 2.59958 10.3903 2.53994 10.3592C2.4803 10.3281 2.42739 10.2855 2.3842 10.234C2.341 10.1824 2.3084 10.1228 2.28823 10.0587C2.26805 9.99449 2.26072 9.92697 2.26664 9.85996C2.27256 9.79296 2.29163 9.72777 2.32274 9.66813C2.7004 8.94599 3.26857 8.34105 3.96566 7.91894C4.66276 7.49684 5.46214 7.27368 6.27707 7.27368C7.092 7.27368 7.89138 7.49684 8.58848 7.91894C9.28557 8.34105 9.85379 8.94599 10.2314 9.66813C10.2935 9.7886 10.3055 9.92871 10.2649 10.058C10.2242 10.1873 10.1342 10.2953 10.0144 10.3586Z" fill="url(#paint4_radial)"/>
<path d="M8.98251 6.17605C9.54779 6.17605 10.006 5.58685 10.006 4.86003C10.006 4.13321 9.54779 3.54401 8.98251 3.54401C8.41723 3.54401 7.95898 4.13321 7.95898 4.86003C7.95898 5.58685 8.41723 6.17605 8.98251 6.17605Z" fill="#422F0D"/>
<path d="M3.57138 6.17605C4.13666 6.17605 4.59491 5.58685 4.59491 4.86003C4.59491 4.13321 4.13666 3.54401 3.57138 3.54401C3.0061 3.54401 2.54785 4.13321 2.54785 4.86003C2.54785 5.58685 3.0061 6.17605 3.57138 6.17605Z" fill="#422F0D"/>
<path d="M9.47261 7.53832L8.94114 6.65881C8.93631 6.65056 8.92943 6.64372 8.92114 6.63897C8.91285 6.63422 8.90346 6.63171 8.8939 6.63171C8.88434 6.63171 8.87495 6.63422 8.86666 6.63897C8.85837 6.64372 8.85144 6.65056 8.84661 6.65881L8.34402 7.54359C8.28825 7.63439 8.25873 7.73887 8.25879 7.84542C8.25879 8.01886 8.3277 8.18519 8.45034 8.30783C8.57298 8.43047 8.73933 8.49937 8.91277 8.49937C9.08621 8.49937 9.25251 8.43047 9.37515 8.30783C9.49779 8.18519 9.5667 8.01886 9.5667 7.84542C9.56655 7.7356 9.53382 7.62829 9.47261 7.5371V7.53832Z" fill="url(#paint5_radial)"/>
<defs>
<linearGradient id="paint0_linear" x1="23.4941" y1="4.42" x2="23.4941" y2="17.355" gradientUnits="userSpaceOnUse">
<stop stop-color="#EF6452"/>
<stop offset="0.252" stop-color="#EA5D4D"/>
<stop offset="0.607" stop-color="#DD4B42"/>
<stop offset="0.949" stop-color="#CC3333"/>
</linearGradient>
<linearGradient id="paint1_linear" x1="23.4912" y1="9.69362" x2="23.4912" y2="12.9431" gradientUnits="userSpaceOnUse">
<stop stop-color="#FF954D"/>
<stop offset="0.183" stop-color="#FC8E4D"/>
<stop offset="0.441" stop-color="#F47C4D"/>
<stop offset="0.741" stop-color="#E75E4D"/>
<stop offset="0.949" stop-color="#DD454D"/>
</linearGradient>
<linearGradient id="paint2_linear" x1="18.0642" y1="2.9231" x2="9.486" y2="10.8137" gradientUnits="userSpaceOnUse">
<stop stop-color="#E85B43"/>
<stop offset="0.221" stop-color="#E6563C"/>
<stop offset="0.532" stop-color="#E1482A"/>
<stop offset="0.896" stop-color="#D9310C"/>
<stop offset="0.949" stop-color="#D82E07"/>
</linearGradient>
<radialGradient id="paint3_radial" cx="0" cy="0" r="1" gradientUnits="userSpaceOnUse" gradientTransform="translate(6.27586 7.06896) scale(8.22138)">
<stop stop-color="#EAB242"/>
<stop offset="0.362" stop-color="#E9AF41"/>
<stop offset="0.562" stop-color="#E8A73E"/>
<stop offset="0.723" stop-color="#E69939"/>
<stop offset="0.863" stop-color="#E48632"/>
<stop offset="0.949" stop-color="#E2762D"/>
</radialGradient>
<radialGradient id="paint4_radial" cx="0" cy="0" r="1" gradientUnits="userSpaceOnUse" gradientTransform="translate(-541.173 466.462) rotate(89.3125) scale(11.4349 1.93236)">
<stop offset="0.778" stop-color="#422F0D"/>
<stop offset="0.842" stop-color="#2F2109"/>
<stop offset="0.913" stop-color="#160F04"/>
</radialGradient>
<radialGradient id="paint5_radial" cx="0" cy="0" r="1" gradientUnits="userSpaceOnUse" gradientTransform="translate(238.643 7.21629) scale(1.28871)">
<stop offset="0.665" stop-color="#43BAE8"/>
<stop offset="0.786" stop-color="#37ADD7"/>
<stop offset="0.949" stop-color="#2497BA"/>
</radialGradient>
</defs>
</svg>
