<svg width="43" height="55" viewBox="0 0 43 55" fill="none" xmlns="http://www.w3.org/2000/svg">
<path d="M34.6626 31.0295H41.2485V35.7639C41.2485 37.6701 41.0767 39.1701 40.7329 40.2639C40.4048 41.3576 39.7798 42.3498 38.8579 43.2405C37.9517 44.1155 36.8032 44.803 35.4126 45.303L34.1235 42.5608C35.436 42.1233 36.3735 41.5139 36.936 40.7326C37.5142 39.9514 37.811 38.9123 37.8267 37.6155H34.6626V31.0295ZM23.6001 31.0295H30.186V35.7639C30.186 37.6701 30.022 39.1701 29.6938 40.2639C29.3657 41.3576 28.7407 42.3498 27.8188 43.2405C26.9126 44.1155 25.7563 44.803 24.3501 45.303L23.061 42.5608C24.3892 42.1233 25.3345 41.5139 25.897 40.7326C26.4595 39.9514 26.7563 38.9123 26.7876 37.6155H23.6001V31.0295Z" fill="#F44EAA"/>
<path d="M10.6797 24.1736H4.09375V19.4627C4.09375 17.5564 4.25781 16.0564 4.58594 14.9627C4.92969 13.8533 5.55469 12.8611 6.46094 11.9861C7.36719 11.1111 8.52344 10.4236 9.92969 9.92361L11.2188 12.6424C9.90625 13.0799 8.96094 13.6892 8.38281 14.4705C7.82031 15.2517 7.52344 16.2908 7.49219 17.5877H10.6797V24.1736ZM21.6719 24.1736H15.0859V19.4627C15.0859 17.5408 15.25 16.033 15.5781 14.9392C15.9219 13.8455 16.5469 12.8611 17.4531 11.9861C18.375 11.1111 19.5312 10.4236 20.9219 9.92361L22.2109 12.6424C20.8984 13.0799 19.9531 13.6892 19.375 14.4705C18.8125 15.2517 18.5156 16.2908 18.4844 17.5877H21.6719V24.1736Z" fill="#F44EAA"/>
<path d="M33.6626 30.4184H40.2485V35.1528C40.2485 37.059 40.0767 38.559 39.7329 39.6528C39.4048 40.7465 38.7798 41.7387 37.8579 42.6293C36.9517 43.5043 35.8032 44.1918 34.4126 44.6918L33.1235 41.9497C34.436 41.5122 35.3735 40.9028 35.936 40.1215C36.5142 39.3403 36.811 38.3012 36.8267 37.0043H33.6626V30.4184ZM22.6001 30.4184H29.186V35.1528C29.186 37.059 29.022 38.559 28.6938 39.6528C28.3657 40.7465 27.7407 41.7387 26.8188 42.6293C25.9126 43.5043 24.7563 44.1918 23.3501 44.6918L22.061 41.9497C23.3892 41.5122 24.3345 40.9028 24.897 40.1215C25.4595 39.3403 25.7563 38.3012 25.7876 37.0043H22.6001V30.4184Z" fill="white"/>
<path d="M9.67969 23.5625H3.09375V18.8516C3.09375 16.9453 3.25781 15.4453 3.58594 14.3516C3.92969 13.2422 4.55469 12.25 5.46094 11.375C6.36719 10.5 7.52344 9.8125 8.92969 9.3125L10.2188 12.0312C8.90625 12.4688 7.96094 13.0781 7.38281 13.8594C6.82031 14.6406 6.52344 15.6797 6.49219 16.9766H9.67969V23.5625ZM20.6719 23.5625H14.0859V18.8516C14.0859 16.9297 14.25 15.4219 14.5781 14.3281C14.9219 13.2344 15.5469 12.25 16.4531 11.375C17.375 10.5 18.5312 9.8125 19.9219 9.3125L21.2109 12.0312C19.8984 12.4688 18.9531 13.0781 18.375 13.8594C17.8125 14.6406 17.5156 15.6797 17.4844 16.9766H20.6719V23.5625Z" fill="white"/>
</svg>
